<?xml version="1.0" encoding="utf-8"?>
<!-- Generator: Adobe Illustrator 25.2.0, SVG Export Plug-In . SVG Version: 6.00 Build 0)  -->
<svg version="1.1" id="Layer_1" xmlns="http://www.w3.org/2000/svg" xmlns:xlink="http://www.w3.org/1999/xlink" x="0px" y="0px"
	 viewBox="0 0 1197 553.8" style="enable-background:new 0 0 1197 553.8;" xml:space="preserve">
<style type="text/css">
	.st0{fill:#FCD9C5;}
	.st1{fill:#2B112A;}
	.st2{fill:#4E0930;}
	.st3{fill:#EC4138;}
	.st4{fill:#F37D4D;}
	.st5{fill:#7B1232;}
	.st6{fill:#2B1129;}
	.st7{fill:#FBE1D0;}
	.st8{fill:#F16B43;}
	.st9{fill:#1F1020;}
	.st10{fill:#7D1232;}
	.st11{fill:#51092F;}
	.st12{fill:#3C0D2C;}
	.st13{fill:#CB283F;}
	.st14{fill:#FCEEE7;}
</style>
<g id="Layer_2_1_">
	<g id="КАРТИНА">
		<g id="Картина_горы_">
			<path class="st0" d="M4.3,0C0.8,0,0,0.8,0,4.5c0.1,114.1,0.1,228.1,0.1,342.2c6,6.2,15.7,4.5,21.6,10.9c7.8-0.5,12.5,7.3,20,7.8
				c0.5,0,0.9,0.2,1.3,0.5c8.8,9.9,22.1,9.4,32.7,15c0.4,0.2,0.8,0.5,1.2,0.8c7.2,1.9,12.8-2.5,18.5-5.6c7.3-4,14.7-7.4,22.9-9.1
				c2.3-0.5,5-1.2,6-3.2c3.7-7.4,11.2-8.6,17.3-10.8c8-2.9,14.7-7.1,21.4-12.1c4.8-4.3,9.2-0.3,13.3,1.2c3.7,1.2,7.3,2.6,10.8,4.3
				c8.6,4.3,17.8,7,26.6,10.7c8.9,3.9,18.2,7.2,27.6,9.8c2.1,0.5,4.1,1.4,5.8,2.7c0.6-0.1,1.6,0.1,1.7-0.2c2.3-5.5,8.2-8.3,9.5-14.5
				c0.5-2,1.8-3.8,3.6-4.8c2.9-1.9,3.9-5.3,6.5-7.4c0.2-2.7,2.1-4.6,4.1-4.1c2.3,0.5,5.1,1.6,5.3,5.2c0.2,4.3,2.2,7.2,6.5,8.2
				c1.3,0.3,2.9,1.3,3.4,2.4c1.9,4.8,7,6,9.8,9.8c0.6,0.8,1.2,1,2,0.6c8.1-4.8,17.6-3.1,26.1-6.3c3-1.1,6.2-0.7,9.2-1.2
				c3.7-0.7,7.1-2.3,9.9-4.8c4.1-3.6,9.2-5.9,14.6-6.4c4.4-1.1,8.4-3.6,11.3-7.1c0.9-1.1,1.9-2.5,3.1-2.8
				c11-3.2,16.8-13.7,25.9-19.6c3.4-2.2,5.7-6,10.1-6.5c3.9-0.3,6.2,2.3,8,5.2c1.5,2.6,3.8,4.7,6.6,5.8c6.3,2.2,12.4,5,18.1,8.4
				c2.2,1.4,4.9,1.5,7.1,0.3c1.9-0.9,3.5-2.1,4.9-3.6c7.7-8.4,7.7-8.4,17.9-3.4c4.6,2.3,10,3.2,14.1,5.7c4.7,3,9.9,5.2,15.3,6.5
				c6.3,1.4,11.5,5.2,17.5,7.1c-0.7-0.8,3.8-0.3,0.3-2.3c-2.3-1.3-7.5-1-6-6.7c0.3-1.1-2.2,0.8-3.4-0.6c1.2-2.4,3.8-2.8,5.9-3.7
				c1.4-0.6,3.7-0.3,2.8-2.6c-1.1-2.9-2.4,0.2-3.6,0.3c-0.4,0-0.8-0.1-1.2-0.2c0.2-3.5,0.3-6.8,4-8.8c1.7-1,3.4-2.8,0-4.5
				c-2-1-1.9-2.5,0.1-3.4c3.3-1.5,5.3-3,1.3-6.3c-2.4-2-0.4-3.7,1.3-4.4c6.8-2.8,10.7-7.7,12.7-14.9c0.7-2.4,2.2-5,5.2-5.8
				c1.5-0.4,2.1-1.8,3-2.9c2.9-3.6,5.7-7.2,9.9-9.4c0.4-0.2,1-0.4,1.2-0.7c4.7-8.7,14-8.8,21.6-11.7c8-3.1,16.6-4.4,25.1-4
				c9.5,0.5,19.2,2.2,27.5,6.3c10.3,5.2,21.3,10.4,28,21.2c0.9,1.1,2,2,3.2,2.7c2.6,1.8,4.5,4.5,5.2,7.5c1.1,4.1,2.9,8.3,7.3,10.1
				c2.9,1.1,2.8,3.6,2.6,6c-0.2,3,0.2,5.2,3.7,6.1c3.3,0.8,2,3.2,0.5,4.7c-2.5,2.4-2.4,4.2,0.6,5.9c1.5,0.8,2.2,2.5,1.8,4.1
				c-0.8,3.9,3.1,8.6-2.2,11.7c-0.8,0.5,0.1,1.7,1,2.2c4,2.5,1.6,3.4-1,4.3c9.4,5.4,18.5,11.5,28.1,16.6c5.6,2.9,12.3,4.8,16.5,10.6
				c0.4,0.7,1.1,1.1,1.9,1.3c4.4-0.1,7.9,2.4,11.7,3.9c3.7-6.8,9.2-12.1,14.4-17.5c1.2-1.4,2.4-2.9,3.5-4.4c0.8-1.7,1.1-4.2,3.1-4.4
				c2-0.2,3,2.1,3.7,3.9c1.2,3,4.1,3.8,6.3,5.6c3.5,2.9,7.5,5.1,11.3,7.6c4.9-3.8,11-5,16.1-9c4.2-3.3,10.6-3.7,15.6-6.8
				c2.9-1.8,6.2-2.8,8.6-5.5c1.2-1.3,3-1.9,4.7-1.7c2,0.1,3.5-1,5-2.3c0.7-0.6,1.3-1.9,2.1-1.9c6.8-0.4,11-5.9,16.6-8.6
				c0.4-0.2,0.9,0.1,1.4,0.1c3.9,1.7,7.4,4.8,12.1,4.1c10-8.4,21.4-14.6,31.6-22.8c1.3-1.1,2.2-1.9,3,0.4
				c3.4,5.6,7.7,10.6,11.4,15.9c3.5,4.7,7.6,9,12.3,12.6c0.3-0.1,0.6,0.1,0.8,0.4c0.2-0.1,0.5-0.1,0.7,0c5.2-3.1,9.8-6.9,13.8-11.4
				c3.7-4.2,7.2-3.9,9.9,0.7c3,3.3,6.8,5.8,9.2,9.7c2.6,1.6,3.5,4.7,5.6,6.8c3.6,0.3,6.6-0.7,8.7-4c2.3-3.5,5.2-2.3,8-0.6
				c10.2,6.9,20.2,14.1,31.6,19.1c4.2,1.8,8,4.8,12.6,6.1c1.5,0.5,3,0.8,4.5,0.9c5.1-3.7,10.7-6.3,15.3-11.2c3.4-3.7,9-5.8,13.4-8.9
				c2.8-2,5.5-4.1,8.2-6.2c1.5-1.1,3.1-2.1,5.1-1.7c13.7,1.2,26.8,3.8,36.4,15.4c0.3,0.4,0.7,0.7,1.1,0.9c5.6,4.1,13,4.3,18.6,8.6
				c0.9-0.6,1.7-1.3,2.4-2.2c3-4.7,7-6.1,12.3-4.7c2.9,0.7,6.2,1.4,8.8-1.3c1.7-1.7,3.6-1.1,5.7-0.8c8.1,1.2,14.8,5.9,22.4,8.5
				c1.6,0.4,2.7,1.8,2.9,3.4c0.3,2.3,1.5,4.2,2.6,6.1l16.9-9.5V0.1C798.7,0.1,401.5,0.1,4.3,0z"/>
			<path class="st0" d="M1195.9,0.1v363.5l0.8-0.4c0.1-17.4,0.1-34.7,0.1-52.1V0.1C1196.5,0.1,1196.2,0.1,1195.9,0.1z"/>
			<path class="st1" d="M205.8,554.1h33.7c0-0.1,0-0.2,0-0.4c-0.1-0.7-0.4-2-0.7-2.1c-3.4-0.6-4.4-4.1-6.8-5.9
				c-6.2-4.8-9.2-4.9-13.5,1.5c-1.6,2.3-2.6,1.3-4.1,1.1l-4.7,0.1c-0.4,2.4-2.2,1.8-3.7,1.9l0,0
				C205.8,551.6,205.8,552.9,205.8,554.1z"/>
			<path class="st1" d="M183.1,554.1c-0.2-1.2-0.9-2.2-1.8-3c-2.9-2.7-1.5-6.3-1.5-9.5c0-1,0.8-2.8-0.8-2.5
				c-4.4,0.8-2.9-2.2-3.1-4.3v-1.7c0-1-0.1-2-0.1-3c-1.5-1.7-2.8-5.1-5.1-0.7c-6.8-0.2-5.7,5.1-6.2,9.3c0.2,1.3,0.1,2.7,0.6,3.7
				c1.3,2.3,2,4.3-0.2,6.5c-2.2,2.2-5,2-7.3,0.8c-1.5-0.8-3.1-1.3-4.8-1.3c-2.1,0.1-3.3-0.7-3.2-3c0.1-2.1-1.1-3.1-2.9-2.7
				c-4.9,0.9-8.2-2.3-11.7-4.7c-1.6-1.1-3.6-1.9-4.7-0.8c-5.3,5-14.1,3.2-18.1,10.3c-0.1,0.1-0.3,0.3-0.3,0.3
				c-5.2-1-7.1,4.1-10.7,6.3L183.1,554.1z"/>
			<path class="st1" d="M280.5,550.4c0.1,0.3,0.1,0.6,0.1,0.9c1.1,0.9,1.9,1.9,1.9,2.8h31.6c0.2-1.2-0.1-2.6,0.2-3.8
				c0-0.3,0-0.6,0-0.9c-1.1-1.1-2.3-2.1-1.8-4c0-0.9-0.1-1.9-0.1-2.8c-2.3-0.8-2.7-3.1-3.9-4.8c-3.1-4.1-1.5-11.2-8-13
				c-1.1-0.3-1.1-1.5-1.1-2.4c0-3.6-2.4-3.3-4.6-2.8c-1.8,0.4-2.4,1.1-2.4,3.8c-0.2,3.8-2.3,7.3-5.7,9.2c-2,1-2.3,2.1-2.4,4
				c-0.2,4.2-1.9,7.6-5.5,9.8c0,0.6,0.1,1.3,0.1,1.9c1,0.1,1.7,0.9,1.7,1.9C280.5,550.3,280.5,550.4,280.5,550.4z"/>
			<path class="st1" d="M81.4,554.1c-0.3-1.7-0.1-3.4,0.6-5c1.6-3.3,0.9-7.2-1.7-9.8c-1.6-1.6-1.8-3.5-1.2-5.7
				c0.6-2.8,1.1-5.6,1.3-8.5c0.6-4.4-0.4-8.3-4-11c-1.3-0.7-1.8-2.3-1.1-3.6c0,0,0-0.1,0.1-0.1c2-4,2-8.7,0-12.8
				c-1.2-2.7-0.4-5.7-0.5-8.6c-0.1-2.7,0-5.4,0-8.1c0-3.2,0-6.4,0-9.6c0-0.3-0.1-0.6-0.1-0.9c-2.7-3.6-2.6-8.1-3.6-12.2
				c-0.2-1.4-0.2-2.9,0-4.3c0.3-3.8-3.9-6.1-3.3-10.2c0.1-0.8-1.5-1.6-2.2,0.1c-0.6,1.4-1.3,2.8-2,4.3c0.1,0.2,0.2,0.5,0.3,0.7
				c0,0.1-0.2,0.2-0.3,0.3c0,1,0,1.9,0,2.9c-0.3,3.6,1.3,8-3.8,9.6l0,0c0,8.3,0,16.7,0,25c0,3.6,0.2,7.1-1.7,10.6
				c-1.9,3.2-2.2,7.2-0.7,10.7c1.9,4.6-1.8,9.6-2.5,14.5c-0.1,1-0.7,2-0.9,3.1c-1.8,9.5-1.9,19.1-1.9,28.6L81.4,554.1z"/>
			<path class="st1" d="M31.7,554.1c1.3-2.2,2-4.8,2-7.4c0-1,0.3-2.5-1.2-2.7c-1-0.1-1.9,0.5-2.2,1.5c-0.2,2.2-2.2,2.6-3,3.9
				c-1.8,3-2.9,2.9-5,0.1c-2.9-3.6-4,2-6.4,1.9c-1.5-5.2,4.9-12.1,13.7-14.4c-1.2-1.8-2-3.5,0.8-4.8c1.1-0.5,1.8-2.2,2.5-3.4
				c1.5-2.4,0.7-3.6-2-3.7c-1.9,0-3.7,0-5.6,0c-0.4,2-1.4,4.2-3.5,3.4c-2.8-1.1,0.5-3.2,0-4.8c-1.7-1.1-2.6,0.3-3.8,0.9
				c-1.2,0.6-2.7,0.5-4.4,0c0.9-2,1.8-3.8,2.6-5.6c0.8-2.1,1.9-4.2-1.1-5.5v1.9c-4.3,3.8-8.7,7.2-14.9,4.9v33.7L31.7,554.1z"/>
			<path class="st2" d="M4.4,479.4c2.1-0.8,3.3-0.1,2.8,2.5c-0.7,3.8,0.9,5.3,4.6,4.6c1-0.2,2.5-2.8,3,0.1c0.3,1.8,1.2,5.2-1.3,5.4
				c-4,0.2-4.1,3.9-7.5,5.6c3,0.7,6.6-1.1,5.7,3.6c-0.2,0.9,1.8,0.8,2.8,0.2c0.6-0.4,1.3-1.3,1.9-0.2c0.3,0.6,0.2,2.1-0.1,2.2
				c-3.6,1.3-3.1,5.8-6.1,7.8c-1.6,1.1-2.8,2.7-5,2.5c-1.1-0.1-2.2,0.3-2.3,1.8c0,1.8,1.3,1.8,2.6,2c3.4,0.5,6-2.9,9.4-2v-1.9
				c1.3-2.3,2.8-4.5,4.4-6.6c1.6-1.9,3.7-1.7,5.4-0.1c2.6,2.5-0.9,2.2-1.5,3.3c-1.1,2.3-3.1,4-4.1,6.2c-0.9,2-1.2,4.9,2.3,4.7
				c3.1-0.2,2.5,2.7,3.8,4c1.9,0,3.7,0,5.6,0c2.6,0.1,3.4,1.3,2,3.7c-0.8,1.2-1.4,2.9-2.5,3.4c-2.8,1.3-2,3-0.8,4.8
				c-8.8,2.3-15.2,9.2-13.7,14.4c2.4,0.1,3.5-5.5,6.4-1.9c2.2,2.7,3.3,2.9,5-0.1c0.8-1.4,2.9-1.8,3-3.9c0.2-1,1.2-1.6,2.2-1.5
				c1.6,0.2,1.2,1.6,1.2,2.7c0,2.6-0.7,5.1-2,7.4h20.7c-0.1-9.6,0.1-19.2,1.9-28.6c0.2-1.1,0.7-2.2,0.9-3.1c0.7-5,4.3-10,2.5-14.5
				c-1.5-3.5-1.3-7.4,0.7-10.7c1.8-3.5,1.7-7,1.7-10.6c0-8.3,0-16.7,0-25c-4.6-1-8.9,1.5-13.5,1.4c-1.3,0-1.6,1-1.7,1.9
				c-0.4,4.4-3.3,5.5-7.3,5.9c4.1,0.8,4.8,7.2,10,5.8c0.7-0.2,1.1,0.6,0.9,1.3c-0.1,0.6-0.6,1.1-1.2,1c-0.1,0-0.1,0-0.2,0
				c-4.9-1.4-10-0.6-14.6-4.9c-3.8-3.5-8.6-7.3-14-8.2c-6.4-1.3-12.9,0.1-18.3,3.7v11.6C1.8,481.1,3,479.9,4.4,479.4z"/>
			<path class="st3" d="M0.1,421v-28c3.8,0.6,6.5,2.4,7.7,6.5c0.9,3.2,3.5,4.9,7,3.7c1.3-0.4,2.4-0.7,3.5,0.3
				c3.5,3.3,7.8,1.8,11.8,2.5c5.9,1,9.8-3.8,14.4-6c5.5-2.6,9.2-8.4,14.4-12c2.5-1.7,4.8-3.3,7.4-3.5c3.8-0.3,7.6,0.5,11.4,0.7
				c1.5,0.1,2.7,1.1,3,2.5c-0.4,3.3-2,6.2-2.7,9.5c-1.6,6.8-1.6,14.1-5.3,20.3c-0.8,1-0.7,2.5,0.3,3.4c0.1,0.1,0.3,0.2,0.5,0.3
				c1.5,1,2.8,2.5,4.3,3.5c1,0.6,1.7,0.8,0.5,1.9c-2.8,2.4-3.5,5.9-4.8,9.1c-3.6,7.3-4.8-3.6-8-0.2c0.5-2.7,3.1-1.8,3.3-3.5
				c-0.6-2-3.4-0.7-3.5-3.1c-1.3-3.6,1.8-8.1-2.4-11.9c0,4.4-3.3,8-0.1,11.8c-1.5,0.9,0,3.3-0.9,3.6c-5.5,1.6-3.2,4.1-1.2,7
				c0.6,0.9,0.3,2.5,0.4,3.7l-0.5,0.5c-3.2,0-4.9-3.6-8.1-3.8c-0.6,2.4,0.9,3.5,2.2,4.6c1.3,1.1,2.1,2.2,1.1,4s-2,1-3.4,0.8
				c-2.1-0.3-4.1-1.1-5.8-2.2c-1,1.7,1.2,4.2-1.5,5c-0.9,0.7-1.5,2-2.9,1.9c-0.7,0-1.7-0.2-1.8,0.8c-0.2,1,0.3,1.9,1.2,2.3
				c1.1,0.3,2.3,0.6,3.5,0.7c1.5,1.4,2.2,3.7-0.4,3.3c-6.5-1-14.2,2.8-19.3-4.6c-0.4-0.6-1.3-0.8-2.1-1c-3-1-4.5-3.3-6.4-5.7
				c-3.2-4-5.2-8.4-7.7-12.7c-2-3.5-3.6-6.6-3.2-10.6C6.3,421.8,4.7,419.7,0.1,421z"/>
			<path class="st4" d="M80.7,387.8c-0.3-1.4-1.5-2.4-3-2.5c-3.8-0.2-7.7-1.1-11.4-0.7c-2.6,0.2-4.9,1.8-7.4,3.5
				c-5.2,3.6-8.9,9.4-14.4,12c-4.6,2.2-8.5,7.1-14.4,6c-4-0.7-8.4,0.8-11.8-2.5c-1.1-1-2.2-0.8-3.5-0.3c-3.5,1.2-6-0.5-7-3.7
				c-1.2-4.2-3.9-6-7.7-6.5v-46.3c6,6.2,15.7,4.5,21.5,11c7.8-0.5,12.5,7.3,20,7.8c0.5,0,0.9,0.2,1.3,0.5c8.8,9.9,22,9.4,32.7,15
				c0.4,0.2,0.8,0.5,1.2,0.8c-0.5,3,1.8,1.6,2.7,1.6c2.6-0.1,5.2,0.7,7.4,2.2c5.1,3.5,10.1,7,16,9.1c1.1,0.3,1.9,1.3,2,2.4
				c-6.8-2.9-14.5-3.1-20.9-7.4C82.7,389.3,82.5,386.9,80.7,387.8z"/>
			<path class="st5" d="M0.1,421c4.6-1.3,6.2,0.8,5.7,5.4c-0.4,4,1.2,7.1,3.2,10.6c2.5,4.3,4.5,8.7,7.7,12.7
				c1.9,2.4,3.4,4.7,6.4,5.7c0.7,0.2,1.7,0.4,2.1,1c5.1,7.4,12.8,3.6,19.3,4.6c2.6,0.4,2-1.9,0.4-3.3h0.4l1.9-0.1
				c2.4,2.1,5.7,2.9,8.8,2c1.5,0.3,3.5-0.6,3.9,1.9l0,0c-4.6-1-8.9,1.5-13.5,1.4c-1.3,0-1.6,1-1.7,1.9c-0.4,4.4-3.3,5.5-7.3,5.9
				c4.1,0.8,4.8,7.2,10,5.8c0.7-0.2,1.1,0.6,0.9,1.3c-0.1,0.6-0.6,1.1-1.2,1c-0.1,0-0.1,0-0.2,0c-4.9-1.4-10-0.6-14.6-4.9
				c-3.8-3.5-8.6-7.3-14-8.2c-6.3-1.3-12.9,0.1-18.3,3.7V421z"/>
			<path class="st6" d="M0.1,480.9c1.7,0.2,2.9-1,4.3-1.5c2.1-0.8,3.3-0.1,2.8,2.5c-0.7,3.8,0.9,5.3,4.6,4.6c1-0.2,2.5-2.8,3,0.1
				c0.3,1.8,1.2,5.2-1.3,5.4c-4,0.2-4.1,3.9-7.5,5.6c3,0.7,6.6-1.1,5.7,3.6c-0.2,0.9,1.8,0.8,2.8,0.2c0.6-0.4,1.3-1.3,1.9-0.2
				c0.3,0.6,0.2,2.1-0.1,2.2c-3.6,1.3-3.1,5.8-6.1,7.8c-1.6,1.1-2.8,2.7-5,2.5c-1.1-0.1-2.2,0.3-2.3,1.8c0,1.8,1.3,1.8,2.6,2
				c3.4,0.5,6-2.9,9.4-2c-4.3,3.8-8.7,7.2-14.9,4.9L0.1,480.9z"/>
			<path class="st3" d="M1196.6,381.4c-0.2,0.1-0.5,0.2-0.7,0.3v37.7c0.2,0,0.5,0,0.7,0.1C1196.6,406.8,1196.6,394.1,1196.6,381.4z"
				/>
			<path class="st3" d="M1179,373c-1.1-1.9-2.3-3.8-2.6-6.1c-0.2-1.6-1.4-3-2.9-3.4c-7.6-2.6-14.3-7.3-22.4-8.5
				c-2.1-0.3-4-1-5.7,0.8c-2.6,2.7-5.9,2-8.8,1.3c-5.3-1.4-9.3-0.1-12.3,4.7c-0.7,0.8-1.5,1.6-2.4,2.2c-2.5,3.4-5.8,6.1-9.5,8.1
				c-1.9,1.1-3.5,2.7-4.7,4.6c-4.1,6.4-6.7,7-14.1,5.3c-4.9-1.1-10.2-1.8-14.9,1.2c-2.3,1.4-4.8,1.4-7.2,1.6
				c-7.9,0.6-15.6,2.3-23.3,3.6c-5.7,1.7-11.4,3.2-16.9,5.6c-2.7-0.1-5.2,1.4-7.4,2.3c-7.2,2.9-14.3,1.4-21.5,1.6
				c-4.6,0.2-9-0.4-13-2.8c-0.6-0.5-1.4-0.8-2.2-0.8c-7.2,0.6-12-4.4-17.2-7.9c-5.6-3.8-11.7-7.2-15.7-13.1c-1-1.6-2.8-1.1-4.2-1.8
				c-7.5-4-15.2-7.2-23.9-7.7c-4.7-0.3-8.7,2-13.2,1.9c-9.3-0.2-18.3,2.1-27.4,3.4c-0.6,0.2-1.3,0.1-1.8-0.2
				c-3.7-2.8-5.9-0.5-8.1,2.3c-1.7,2.2-3.9,2.4-6.3,1c-4-2.3-7.9-4.8-9.7-9.3c-1.4-3.4-4.9-2.3-7.1-3.9c-3.5-2.5-7.4-4-11.9-3.3
				l-2.7,0.1c-0.7,1-1.9,0.9-2.9,1c-0.7,5.9-5.7,8.8-9.5,10.9c-7.9,4.4-16.9,4.3-25.8,2.3c-0.6-0.1-1.4-0.4-1.6-0.9
				c-2.8-5.9-7-3.9-11.3-2.3c-1.4,0.3-2.7,0.5-4.1,0.5c-9.3,2.4-15.9,10.5-25.3,12.5l-1,1c-8.3,4-15.6,9.7-21.5,16.8
				c-2.9,3.6-6.9,4.4-10.8,4.1c-2.7-0.2-5.5,0.2-8,1.2c-4.7,6.4-11.5,10-17.7,14.4c-4.8,3.4-9,8-14.6,9.8
				c-8.6,2.8-14.2,9.4-19.6,16.1c-2.8,3.5-3.7,8.5-8.1,10.8h0.2l-0.9,1.2c-0.9,3.5,1.7,5.6,3,8.2c0.3,0.5,1,0.7,1.4,1.2
				c2.1,3.3-1.5,7.6,0,9.6c2,2.7,4.4,4.7,4,8.5c-0.3,3.5-2.6,7.2,1.4,10.2c0.6,0.5,0.2,2.4,0.3,3.7c1.1-0.1,2.6,0.3,3.2-0.3
				c4-4.1,8.9-6.8,13.2-10.3c4.6-3.8,8.2-8.8,13.9-11.3c3.2-1.4,5.8-4.1,8.8-6.1c3.2-2.2,1.7-5.9,2.8-8.8c0.2-0.6,0.4-1.2,0.4-1.9
				c0.3-2.5,1.2-5.8,3-5.9c2.7-0.1,2.4,3.5,3,5.7c1.7,6.7,2.8,7.2,9.5,4.9c4.6-1.4,9.1-3.1,13.5-5.2c1.6-0.8,4-1.2,1-3.8
				c-2.1-1.7-1.1-9.1,0.7-11.3c1.6-1.9,2.8-1,3.5,0.7c1,2,1.4,4.3,1.4,6.5c-0.1,1.7,0.5,3.3,2.4,1.5c7.9-8,16.8-15.5,17.2-28.4
				c0-1.6-0.7-4,2-4.1c2.4-0.1,2.9,2.1,3.5,3.9c1.3,4.2,1.1,3.8,5.4,2.9c3.7-0.8,5.9-4.6,10.1-4.4c1.7,0.1,2-2.4,0.4-3.1
				c-4.6-2-2.6-5.4-2-8.5c0.2-1.3,0.7-2.5,1.3-3.6c0.7-1.2,0.2-3.7,2.5-3.4c1.6,0.2,1.7,2,2.1,3.5c0.8,2.8,1.4,5.6,1.8,8.4
				c0.3,4,2.6,3.8,4.8,2.5c3.9-2.3,7.6-4.4,12.1-1.5c0.1,0.1,0.2,0.1,0.3,0.1c0.8,0.4,1.8,0,2.1-0.8c0.5-1.2-0.4-1.7-1.3-2
				c-4.4-1.4-4.5-4.2-2.8-8.1c1.5-3,2.4-6.3,2.8-9.7c0-1.3,0.9-2.5,2.2-2.9c1.6-0.4,2.3,1.3,2.6,2.3c1.3,4.7,2.5,9.4,4.8,13.8
				c1,1.9-1.3,2.1-2.5,2.6c-1.8,0.7-3.7,1.2-3.3,3.8c0.4,2.7,2.5,1.8,4.1,2c8.9,1,17.1,5.3,22.9,12c1.4,1.5,2.7,3.1,4.8,3.7
				c1.1,0.4,2.8,1.1,3.1,2c1.3,4.7,5,6.8,8.3,9.7c2.1,2.1,4.5,3.6,7.3,4.7c2.4,0.8,4.3,2.6,6.8-0.6c1.3-1.6,5.1-1.1,6.1,2
				c0.9,2.7,2.5,2.3,5.4,2.1c-3.9-1.3-3.8-4-3-6.4c0.8-2.1,1.5-4.2,2-6.3c0.1-1,0.6-2.3,2-2.3c1.1,0,1.7,1,1.8,1.9
				c0.8,4.3,3.9,8.5,0.6,13.1c5.4,1,8.8-3.6,13.4-4.7c1.8-0.4,3.2-2,4.9-2.7c2.7-1,4.3-3.7,3.9-6.5c-0.3-4,0.3-8.1,1.6-11.9
				c0.8-2.5,1.8-5,1.4-7.9c-0.2-1.1,0.1-2.4,1.4-2.7c1.3-0.3,2,0.5,2.7,1.4c1,1.3,1.9,2.9,1.3,4.4c-1.1,2.7,0.2,5.3-0.6,8.3
				c3.5-0.9,4.2-4,5.9-5.8c3.9-4.3,7.1-9.1,12.1-12.3c2.7-1.7,2-5.9-1.1-7.1c-2.9-1.1-3.5-2.5-2.4-5.4c1.2-3.5,2.2-7,3-10.6
				c0.4-1.5,0.8-3,2.5-2.9c1.7,0.1,3,1.5,3,3.2c0.4,4,1.6,7.8,3.4,11.4c1.2,2.5-0.7,4.2-2.9,4.2c-2.1,0.1-2.6,0.8-2.1,2.5
				c0.8,2.4,1.9,0.3,2.7-0.1c9.5-4.4,18.9-3.2,27.6,1.7c4.8,2.7,9.9,1.6,14.7,2.8c3,0.7,2.9-2.6,3.8-4.5c0.7-1.6,0.4-4.6,2.7-4.4
				c2.4,0.2,2.3,2.9,2.5,5.1c0.6,4.6,2.3,5.8,6.7,4c6.8-2.7,13.6-2.1,20.6-0.8c6.4,1.2,12.6,2.6,18.5,5.7c3.5,1.8,3.8,0.4,4.5-3.6
				c0.6-4,1.5-8,2.6-11.9c0.3-1.2,0.7-2.8,2.3-2.5c1.5,0.3,2.5,1.6,2.4,3.1c-0.8,7.1,1.3,13.8,2.3,20.6c0.2,1.3-0.1,2.8,1.4,3.1
				c5.8,0.9,9.9,5.8,16,6.2c3.2,0.2,4.4-0.7,4.7-3.5c0.3-2.4,0.8-6,2.8-5.9c2.4,0.2,2.7,3.7,2.9,6.3c0.3,5.6,4.7,8.7,10.3,6.6
				c7.4-2.8,14.6-6.3,21.3-10.4c1.1-0.7,2.7-1.9,1.9-2.8c-2.9-3.1-0.3-6.4,0.1-8.8c0.7-3.8,1.5-7.8,2.6-11.6
				c0.3-1.1,0.6-2.3,1.9-2.4c1.7-0.2,2,1.2,2.4,2.4c1.3,3.3-0.3,6.8,0.7,10.2c0.6,2.1,0.4,3.8,3.8,2.5c5-1.8,8.3-6.7,14-7.2
				c1.8-0.1,1.6-2.8-0.3-4c-0.9-0.6-2.7-0.9-2.2-2c2.1-4.9,2.3-10.5,5-15.2c1.3-2.2,2.7-1.2,3.3,0.6c1.8,4.6,2.8,9.4,5.3,13.7
				c1.6,2.7-3.3,1.6-4.6,4.6c3.4,0,6.5,0.6,9.4-0.1c7.9-1.9,13.8,1.5,19.5,6.4c3.4,3,4.4,2.4,5.5-2c0.2-0.9,0.5-1.8,0.9-2.7
				c0.5-0.8,1.2-1.9,1.9-1.9c1.3-0.1,1.7,1.5,1.7,2.5c0,3.3,1.4,6.2,2,9.4c0.4,2.1,1.4,3.5,3.6,3.8c1-2.2,2.9-2.1,4.6-1.4
				c1.3,0.4,2.7,0.7,4.1,0.8v-37.7C1187.8,384.5,1183.8,377.8,1179,373z"/>
			<path class="st4" d="M716.3,402.7c-4.7,6.4-11.5,10-17.7,14.4c-4.8,3.4-9,8-14.6,9.8c-8.6,2.8-14.2,9.4-19.6,16.1
				c-2.8,3.5-3.7,8.5-8.1,10.8c0.2-3.8,1.1-7.8-3.5-9.9c-1.3-0.6-1.6-2.3-1.8-4.1c-0.3-3.8-0.8-7.7-3.7-10.7
				c-1.7,1.5,0.1,4.3-2.2,5.1c-2.5,0.8-2.6,2.9-2.6,4.9c0.1,4.1,1.7,8.5-3.3,11c-0.4,0.3-0.6,0.7-0.6,1.2c1.2,4.4,0,7.6-4.3,9.3
				c-0.5,0.2-0.7,1.4-1,2.1c-3.5-2.2-7.2-3.9-10.2-7c-3.4-3.4-7-6.6-10.3-10.1c-1-1-1.6-1.3-2.7-0.4c-5.2,4.1-11.8,4.6-17.6,7
				c-3.8,1.6-8.3,3-12.7,0.7c-0.1-1.5,0.4-2.9,1.5-3.9c8.4-8.1,15.9-17.1,24.7-24.7c0.7-0.6,2-1.2,1-2.9c-1.9,0.6-3.9,0.9-5.6,1.9
				c-6,3.3-12.4,5.8-19.1,7.4c-1.2,0.3-2.7,1.7-3.8,0.2c-1.1-1.6,0-3.1,1-4.3c5.8-7.1,12.1-13.7,18.9-19.8c2.6-2.2,5-4.6,7.2-7.1
				c-0.7-0.7-1.9-0.8-2.6-0.1c-0.1,0.1-0.1,0.1-0.2,0.2c-4.6,4.2-10.6,6-15.5,9.6c-0.9,0.6-1.9,1.4-3,0.6c-1.1-0.8-0.5-1.7,0-2.6
				c5.7-9.5,11.5-19,17.2-28.5c0.5-0.9,2.1-1.5,0.9-2.7c-0.8-0.8-1.7,0-2.5,0.5c-4.3,2.8-8.7,5.6-13,8.3c-1.2,0.7-2.4,2-4.4,1.1
				l18.1-31.3c0.5-0.9,2.2-1.6,0.9-2.7c-1.3-1.1-2.1,0.5-2.9,1.4c-4.3,4.4-9.3,7.8-14,11.4l-0.8-0.9l14.7-21.1l-1-0.8l-9.2,7.3
				c-0.7-1.2-0.4-1.7,0.1-2.2c2.9-3.5,5.1-7.7,8.5-10.8c0.9-0.8,2.2-1.9,1.4-3.2c-1-1.6-2.1-0.4-3.2,0.2c-1.6,1-3.4,1.1-6.1,1.4
				c3.9-5.7,9.6-8.3,13.5-13.7c-4.3,0.2-7.5,2.1-10.8,3.2c-0.9,0.3-2,0.6-2.6-0.3c-0.6-0.9,0.3-1.8,0.9-2.4c4-4.5,7.9-9,12-13.3
				c0.8-0.9,1.3-1.3,0.3-2.1c1.3-1.1,3.2-1.7,4.1-0.2c2.4,4,6.7,4.3,10,6.4c11.9,7.2,26.3,9.3,36.9,19.4c0.1,0.1,0.3,0.1,0.4,0.2
				c1.8,1.2,4.5-0.4,5.7,1.4c4.5,7,11.9,7,18.5,8.9c9.4,5.4,18.5,11.5,28.1,16.6c5.6,2.9,12.3,4.8,16.5,10.6
				c0.4,0.7,1.1,1.1,1.9,1.3c4.4-0.1,7.9,2.4,11.7,3.9c-1.9,2.3-4.7,3.6-5.7,6.7c-1.8,5.6-5.7,9.8-9.6,13.9
				C718.4,397.1,716.2,399.3,716.3,402.7z"/>
			<path class="st4" d="M409.6,309.8c3.9-0.3,6.1,2.3,8,5.2c1.5,2.6,3.8,4.7,6.6,5.8c6.3,2.2,12.4,5,18.1,8.4
				c2.2,1.4,4.9,1.5,7.1,0.3c1.9-0.9,3.5-2.1,4.9-3.6c7.7-8.4,7.7-8.4,17.9-3.4c4.6,2.3,10,3.2,14.1,5.7c4.7,3,9.8,5.1,15.2,6.5
				c6.3,1.4,11.5,5.2,17.5,7.1l3.9,1.8c-6.3,7.5-14.7,11.3-23.3,14.7c-6.6,2.7-13.4,4.9-18.1,11c-1,1.4-2.7,2.3-4.5,2.4
				c-3.4,0-6.2,1.8-9.2,3.1c-6.7,2.9-13.4,5.9-20.2,8.4c-2.9,1-5,2.6-6.1,5.3c-1.2,2.9-3.2,4.4-6,4.5c-3.8,0.2-7.4,1.8-9.9,4.7
				c-3.3,3.5-7.1,5.6-12,5.1c-1-0.1-2.1,0.6-3.1,0.9c-2.3-2.9-6-1-8.6-2.8c-4.1-2.8-9.5-2.5-13.1-6.4c-0.8-0.9-2.4-0.4-3.6,0.1
				c-3,1-5.5,0.1-7.5-2.3c-0.8-1-1.5-1.9-2.9-2.1c-5.4-0.8-10.4-3.1-15.9-3.7c-9.2-0.9-17.1,2-24.7,6.8c-3.8,2.4-7.2,5.8-11.2,7.2
				c-5.4,1.9-11.2,3.3-17.1,0.3c-2.8-1.4-6-1.5-5.9-5.9c0.1-1.7-1.1-3.2-2.7-3.5c-2.3-0.3-3.3-1.9-3.8-3.8
				c-1.6-6.9-8.4-9.3-11.6-14.7c-0.2-0.4-0.9-0.8-1.2-0.6c-4.1,2-7.4-1.8-11.3-1.4c-0.6-2.5,1.6-4.6,1.1-6.7
				c-1.3-5.3-1.6-10.8-0.9-16.2c0.3-1.8-0.2-3.7-1.3-5.2c0.2-2.7,2.2-4.6,4.1-4.1c2.3,0.5,5.1,1.6,5.3,5.2c0.2,4.3,2.2,7.2,6.5,8.2
				c1.3,0.3,2.9,1.3,3.4,2.4c1.9,4.8,7,6,9.8,9.8c0.6,0.8,1.2,1,2,0.6c8.1-4.8,17.6-3.1,26.1-6.3c3-1.1,6.2-0.7,9.2-1.2
				c3.7-0.7,7.1-2.3,9.9-4.8c4.1-3.6,9.2-5.9,14.7-6.4c2.5,1.8,5.4,0.6,8.2,1.2c12.1,2.8,23.9,1.7,35-4.2c1-0.5,1.9-1.3,1.4-2.1
				c-2-3.2,0.7-3.7,3.9-4.9c-5.5-0.7-8.7,2.4-12.8,2.7c0.9-2.3,3-2.2,4.1-3.6c0.7-0.9,1.7-1.8,1.3-2.9c-0.5-1.3-1.9-0.5-2.9-0.7l0,0
				c-0.8-3.4,2.9-3.8,3.8-5.8C403.6,320,407.8,315.6,409.6,309.8z"/>
			<path class="st4" d="M1031.3,393.9c-2.7-0.1-5.2,1.4-7.4,2.3c-7.2,2.9-14.3,1.4-21.5,1.6c-4.6,0.1-9-0.4-13-2.8
				c-0.6-0.5-1.4-0.8-2.2-0.8c-7.2,0.6-12-4.4-17.2-7.9c-5.6-3.8-11.7-7.2-15.7-13.1c-1-1.6-2.8-1.1-4.2-1.8
				c-7.5-4-15.2-7.2-23.9-7.7c-4.7-0.3-8.7,2-13.2,1.9c-9.3-0.2-18.3,2.1-27.4,3.4c-0.6,0.2-1.3,0.1-1.8-0.2
				c-3.7-2.8-5.9-0.5-8.1,2.3c-1.7,2.1-3.9,2.4-6.3,1c-4-2.3-7.9-4.8-9.7-9.3c-1.4-3.4-4.9-2.3-7.1-3.9c-3.5-2.5-7.4-4-11.9-3.3
				c-0.4-1.4,2.6-2.3,0.8-3.6c-2.5-1.9-1.7-2.6,0.6-3.2c0.7-0.2,1.3-1,0.8-1.4c-4.2-3.7,1.2-3.7,1.9-5c-0.1-1.6-5.2-1.6-0.5-3.7
				c1.8-1.1,2.8-3.2,2.3-5.3c-0.4-1.8,1-2.6,1.5-3.9c3.9,1.7,7.4,4.8,12.1,4.1c3.2,6.2,9.8,8.2,14.2,13.7c0.9-3.1-0.2-5-0.7-6.9
				c-0.3-1.3-2.3-2.6-0.4-3.6c1.8-1.1,2.1,1.4,3.1,2.2c1,0.8,1.8,1.8,2.8,2.6c0.5,0.5,1.3,0.5,1.8,0.1c0.1-0.1,0.1-0.1,0.2-0.2
				c0.2-0.4-0.1-1.2-0.4-1.7c-1-1.6-3.2-2.4-3.3-4.9c2.7-0.1,3.1,3.1,5.8,2.9c-0.4-2.2-1.1-4.6,2-5.5c0.3-0.1,0.2-1.8,0.3-2.7l0,0
				c0.8-0.2,1.5-0.4,1.7-1.4c0.3-1.6-3.2-6.2,2.7-3.7c0.2,0.1,0.9-0.6,0.8-0.9c-1-5,4-7.8,4.2-12.3c3.4,5.6,7.7,10.6,11.4,15.9
				c3.5,4.7,7.6,9,12.3,12.6c0.2,0.2,0.5,0.3,0.8,0.4c0.2-0.1,0.5-0.1,0.7,0c2-0.3,4.1,0.5,5.4,2.1c2.1,2.3,4.4,4.5,6.6,6.7
				c0.7,0.7,1.6,2.3,2.6,1c0.8-1,2.7-2.7,1.8-3.5c-3.4-2.8-0.2-5.5-0.4-8.2l0,0c3.8,1.7,3.8,1.7,6,0.9c-4-2.9-3.5-6,1.7-9.6
				c3,3.3,6.8,5.8,9.2,9.7c1,3,0.9,7,5.6,6.8l0,0c5.3,2.6,4.4,9.1,8.2,13.8c-0.4-3.4,1.6-5.7,1.5-7.6c-0.2-3.2,1.2-4.2,3.4-5.2
				l0.7,0.6l0.3-0.5l-0.9-0.2c-0.4-3,1.9-4.1,3.6-5.6c10.2,6.9,20.2,14.1,31.6,19.1c4.2,1.8,8,4.8,12.6,6.1c1.5,0.5,3,0.8,4.5,0.9
				c-1.2,0.8-2.8,1.2-1.5,3.5c1.5,2.4,2.7,5,3.6,7.7C1027.4,383.6,1030.8,388.3,1031.3,393.9z"/>
			<path class="st7" d="M522.9,343.6l-3.9-1.8c-0.7-0.8,3.8-0.3,0.3-2.3c-2.2-1.3-7.4-1-6-6.7c0.3-1.1-2.2,0.8-3.4-0.6
				c1.2-2.4,3.8-2.8,5.9-3.7c1.4-0.6,3.7-0.3,2.8-2.6c-1.1-2.9-2.4,0.2-3.6,0.3c-0.4,0-0.8-0.1-1.2-0.2c0.2-3.5,0.2-6.8,4-8.8
				c1.8-1,3.4-2.8,0-4.5c-2-1-1.9-2.5,0.1-3.4c3.4-1.5,5.3-3,1.3-6.3c-2.4-2-0.4-3.7,1.3-4.4c6.8-2.8,10.7-7.7,12.7-14.9
				c0.7-2.4,2.2-5,5.2-5.8c1.5-0.4,2.1-1.8,3-2.9c2.9-3.6,5.7-7.2,9.9-9.4c0.4-0.2,1-0.4,1.2-0.7c4.7-8.8,14-8.8,21.6-11.7
				c8-3.1,16.6-4.4,25.1-4c9.5,0.5,19.2,2.2,27.5,6.3c10.3,5.1,21.3,10.4,28,21.2c0.9,1.1,2,2,3.2,2.7c2.6,1.8,4.5,4.5,5.2,7.5
				c1.1,4.1,2.9,8.3,7.3,10.1c2.9,1.2,2.8,3.6,2.6,6c-0.2,3,0.2,5.2,3.7,6.1c3.3,0.8,2,3.2,0.5,4.7c-2.5,2.4-2.4,4.2,0.6,5.9
				c1.5,0.8,2.2,2.5,1.8,4.1c-0.8,3.9,3.1,8.6-2.2,11.7c-0.8,0.5,0.1,1.7,1,2.2c4,2.5,1.6,3.4-1,4.3c-6.6-2-14-2-18.5-8.9
				c-1.2-1.8-3.9-0.2-5.7-1.4c4.1-1.1,3.8-3.8,3-7.3c-1.1-4.7-0.7-9.7-2.3-14.1c-2.9-7.8-7.1-15.1-12.4-21.5
				c-9.2-11.3-21.8-17.7-35.2-19.8c-16.3-2.5-32.4,1.1-45.7,12.5c-15.3,13.2-23.1,30-22.3,50.8c0.1,1.6-0.3,3.4,1.9,3.8
				C536.1,342.2,529.5,342.8,522.9,343.6z"/>
			<path class="st4" d="M162.8,340.9c4.8-4.3,9.2-0.3,13.3,1.2c3.7,1.2,7.3,2.6,10.8,4.3c8.6,4.3,17.8,7,26.6,10.7
				c9,3.9,18.2,7.2,27.6,9.8c2.1,0.4,4.1,1.4,5.9,2.7c-0.8,4.1-2.6,8-5.3,11.2c-3,3.5-7.1,6.2-9,10.6c-1.2,2.8-2.5,5.4-5.6,6.6
				c-2.3,1-2.9,3.1-2.7,5.6c-2.6,0.6-5.4,0.6-7.7,1.8c-7.9,4-14.5-0.9-20.1-4.6c-4-2.8-7.6-6.2-10.5-10.1c-1.3-1.7-1.8-3.9-3.8-5.3
				c-10.4-7.4-21.2-6-32.1-1.7c-5.7,2.2-11.6,3-17.4,4.6c0.9-1.2,2-2.4-0.6-2.9c-1.5-0.3-3.4,0.6-4.8-1.3c4.6-2.6,9.8-2.7,14.4-5.7
				c-2.9-1.6-5.6-0.1-8.6-1.4l15.4-7c-2.7-1.9-5.7-0.1-8.5-2.2c6.7-3.4,13.5-5.3,19.7-9.7c-2.6-1.1-5,1.6-7.2-0.8l10.5-6.4
				c-1.8-2.7-4,0.8-5.7-1.2c1.9-2.1,3.8-4.2,5.6-6.3C163.9,342.5,164.8,341.3,162.8,340.9z"/>
			<path class="st4" d="M1121.9,364c-2.5,3.4-5.8,6.1-9.5,8.1c-1.9,1.1-3.5,2.7-4.7,4.6c-4.1,6.4-6.7,7-14.1,5.3
				c-4.9-1.1-10.2-1.8-14.9,1.2c-2.3,1.4-4.8,1.4-7.2,1.6c-7.9,0.6-15.6,2.3-23.3,3.6c0.1-5.9-4.2-10.4-5.4-17.1
				c4.7,3.5,6.8,8.6,12,11.3c-1.2-6.3-3.3-11.5-4.7-17.3l12.9,11c-0.6-3.8-1.8-7.5-3.5-11c-0.7-1.6-2.9-3.6-1.3-5.1
				c1.6-1.4,3.7,0.5,5.5,1.4c0.3,0.2,0.5,0.3,0.8,0.5c0.8,0.6,1.6,1.2,2.5,0.6c0.9-0.6,0.6-1.6,0.4-2.6c-0.6-2.1-0.5-4.4-2-6.3
				c-0.6-0.8-0.5-2,0.3-2.6c0.7-0.5,1.4,0.3,2.1,0.6c1.7,0.8,3.1,2.6,5.4,1.9c-2.5-5.1-5.8-9.4-7.2-14.6
				c13.7,1.2,26.8,3.8,36.4,15.4c0.3,0.4,0.7,0.7,1.1,0.9C1109,359.5,1116.3,359.7,1121.9,364z M1056.1,384.1l-0.7-0.3
				c-0.1,0.2-0.3,0.5-0.3,0.7c0.1,0.2,0.4,0.3,0.6,0.3C1056,384.7,1056,384.3,1056.1,384.1L1056.1,384.1z"/>
			<path class="st8" d="M162.8,340.9c2,0.4,1.1,1.6,0.4,2.4c-1.8,2.2-3.7,4.2-5.6,6.3c1.7,2,3.9-1.4,5.7,1.2l-10.5,6.4
				c2.2,2.3,4.6-0.3,7.2,0.8c-6.2,4.4-13,6.4-19.7,9.7c2.8,2.1,5.8,0.3,8.5,2.2l-15.4,7c3,1.3,5.7-0.1,8.6,1.4
				c-4.5,3-9.8,3.1-14.4,5.7c1.4,1.9,3.3,1,4.8,1.3c2.6,0.5,1.5,1.7,0.6,2.9l0,0c-2.7,0.4-5.8-0.4-7.5,2.9c-1.8,4.3-5,5.4-9.3,4.9
				c-2.7-0.4-5.1,0.7-7.4,2.1c-1.6,0.9-3.2,1.5-3.9-1.1c-0.1-1.2-0.9-2.1-2-2.4c-5.9-2-10.9-5.6-16-9.1c-2.2-1.5-4.7-2.2-7.4-2.2
				c-0.9,0-3.2,1.4-2.7-1.6c7.2,1.9,12.8-2.5,18.5-5.6c7.3-4,14.7-7.4,22.9-9.1c2.3-0.5,5.1-1.3,6-3.2c3.7-7.4,11.2-8.6,17.3-10.8
				C149.4,350.1,156.2,345.8,162.8,340.9z"/>
			<path class="st8" d="M1065.9,339.1c1.4,5.2,4.7,9.5,7.2,14.6c-2.3,0.6-3.7-1.1-5.4-1.9c-0.7-0.3-1.3-1.2-2.1-0.6
				c-0.8,0.6-0.9,1.8-0.3,2.6c1.4,1.9,1.4,4.2,2,6.3c0.3,0.9,0.7,1.9-0.4,2.6c-1,0.6-1.8-0.1-2.5-0.6c-0.2-0.2-0.5-0.4-0.8-0.5
				c-1.8-0.9-4-2.7-5.5-1.4c-1.5,1.3,0.6,3.4,1.3,5.1c1.7,3.5,2.8,7.2,3.5,11.1l-12.9-11c1.4,5.8,3.5,11,4.7,17.3
				c-5.3-2.6-7.3-7.7-12-11.3c1.2,6.7,5.5,11.2,5.4,17.1c-5.7,1.7-11.4,3.2-16.9,5.6c-0.4-5.7-3.9-10.3-5.5-15.6
				c-0.9-2.7-2.1-5.3-3.6-7.7c-1.3-2.2,0.3-2.6,1.5-3.5c5.1-3.7,10.7-6.3,15.3-11.2c3.4-3.7,9-5.8,13.4-8.9c2.8-2,5.5-4.1,8.2-6.2
				C1062.2,339.7,1063.9,338.7,1065.9,339.1z"/>
			<path class="st8" d="M848.1,329.3c-0.5,1.3-1.9,2.1-1.5,3.9c0.4,2.1-0.5,4.2-2.3,5.3c-4.7,2.1,0.4,2.2,0.5,3.7
				c-0.7,1.3-6.2,1.2-1.9,5c0.5,0.4-0.1,1.2-0.8,1.4c-2.3,0.7-3.2,1.4-0.6,3.2c1.8,1.3-1.2,2.2-0.8,3.6l-2.7,0.1
				c-1.6-1.6-2.2-0.2-2.9,1c-0.7,5.9-5.7,8.8-9.5,10.9c-7.9,4.4-16.9,4.4-25.8,2.3c-0.6-0.1-1.4-0.4-1.6-0.9
				c-2.8-5.9-7-3.9-11.3-2.3c-1.4,0.3-2.7,0.5-4.1,0.5c-1.1-1.8-3.5-0.3-4.7-1.9c4.9-3.9,11-5,16.1-9c4.2-3.3,10.6-3.7,15.6-6.8
				c2.9-1.8,6.2-2.8,8.6-5.5c1.2-1.3,3-1.9,4.7-1.7c2,0.1,3.6-1,5-2.3c0.7-0.6,1.3-1.8,2.1-1.9c6.8-0.4,11-5.9,16.6-8.6
				C847.1,329.1,847.6,329.3,848.1,329.3z"/>
			<path class="st8" d="M716.3,402.7c0-3.4,2.1-5.6,4.2-7.7c3.9-4.1,7.8-8.3,9.6-13.9c1-3.1,3.8-4.4,5.7-6.7
				c3.7-6.8,9.2-12.1,14.4-17.5c1.2-1.4,2.4-2.9,3.5-4.4c1.8,1.3,1.4,3.3,1.5,5.2c0.5,7.3,0.4,14.7,2.2,21.9l0,0
				c-0.4,0.2-1.6-0.4-1,1c-8.3,4-15.6,9.8-21.4,16.9c-2.9,3.6-6.9,4.4-10.8,4.1C721.5,401.4,718.8,401.8,716.3,402.7z"/>
			<path class="st8" d="M397.4,331.2c1,0.2,2.4-0.6,2.9,0.7c0.4,1.1-0.6,2-1.3,2.9c-1.1,1.4-3.2,1.3-4.1,3.6c4-0.3,7.3-3.4,12.8-2.7
				c-3.2,1.3-5.9,1.7-3.9,4.9c0.5,0.8-0.5,1.6-1.4,2.1c-11.2,5.9-22.9,7.1-35,4.2c-2.7-0.6-5.6,0.7-8.2-1.2
				c4.4-1.1,8.4-3.6,11.3-7.1c0.9-1.1,1.9-2.5,3.1-2.8c11-3.2,16.8-13.7,25.9-19.6c3.4-2.2,5.7-6,10.1-6.5
				c-1.8,5.7-5.9,10.1-8.4,15.6C400.3,327.4,396.6,327.8,397.4,331.2l-0.2,0.3L397.4,331.2z"/>
			<path class="st8" d="M224.5,403.6c-0.2-2.4,0.3-4.6,2.7-5.6c3-1.2,4.4-3.8,5.6-6.6c1.9-4.5,6-7.1,9-10.6
				c2.7-3.2,4.6-7.1,5.3-11.2c0.6-0.1,1.6,0.1,1.7-0.2c2.3-5.5,8.2-8.3,9.5-14.5c0.5-2,1.8-3.8,3.6-4.8c2.9-1.9,3.9-5.3,6.5-7.4
				c1.1,1.5,1.6,3.4,1.3,5.2c-0.7,5.4-0.4,10.9,0.9,16.2c0.5,2.2-1.8,4.3-1.1,6.7c-2.9,2.3-5.9,4.1-9.7,3.9
				c-1.8-0.1-3.5,0.9-4.1,2.6c-1.5,3.4-4,6.1-7.3,7.8c-7.6,4.2-14.1,10.2-18.8,17.5C228.3,404.4,226.6,405.6,224.5,403.6z"/>
			<path class="st8" d="M885.5,329.3c-0.1,1,0,2.6-0.3,2.7c-3.1,0.9-2.4,3.3-2,5.5c-2.6,0.2-3.1-3-5.8-2.9c0.1,2.4,2.3,3.3,3.3,4.9
				c0.3,0.5,0.6,1.3,0.4,1.7c-0.4,0.6-1.2,0.7-1.8,0.4c-0.1-0.1-0.2-0.1-0.2-0.2c-1-0.8-1.8-1.8-2.8-2.6c-1-0.8-1.4-3.2-3.1-2.2
				c-1.7,1,0.1,2.4,0.4,3.6c0.5,1.9,1.6,3.8,0.7,6.9c-4.4-5.5-11.1-7.5-14.2-13.7c10-8.4,21.4-14.6,31.6-22.8c1.3-1.1,2.2-1.9,3,0.4
				c-0.2,4.5-5.2,7.3-4.2,12.3c0,0.2-0.7,0.9-0.8,0.9c-5.9-2.5-2.3,2.1-2.7,3.7C886.9,328.9,886.2,329.1,885.5,329.3
				c-0.2-0.9,0.3-2-1.1-2.3c-0.2,0-0.6,0.3-0.6,0.5C883.6,328.8,884.5,329.1,885.5,329.3z"/>
			<path class="st4" d="M757.4,379.5c-1.8-7.2-1.7-14.5-2.2-21.9c-0.1-1.9,0.3-3.9-1.5-5.2c0.8-1.7,1.1-4.2,3.1-4.4s3,2.1,3.7,3.9
				c1.2,3,4.1,3.8,6.3,5.6c3.5,2.9,7.5,5.1,11.3,7.6c1.2,1.6,3.6,0.1,4.7,1.9C773.5,369.5,766.8,377.5,757.4,379.5z"/>
			<path class="st8" d="M943.6,329.2c-5.2,3.6-5.7,6.7-1.7,9.6c-2.2,0.8-2.2,0.8-6-0.9l-1.3-1.2c-0.1,0.1-0.2,0.3-0.2,0.4
				c0.2,0.8,0.9,0.8,1.5,0.9c0.1,2.7-3,5.4,0.4,8.2c0.9,0.7-1,2.5-1.8,3.5c-1,1.2-1.8-0.3-2.6-1c-2.2-2.2-4.5-4.4-6.6-6.7
				c-1.3-1.6-3.4-2.4-5.4-2.1c5.2-3.1,9.8-6.9,13.8-11.4C937.4,324.3,941,324.6,943.6,329.2z"/>
			<path class="st8" d="M1179,373.1c4.8,4.7,8.8,11.4,16.9,8.6v-18.1L1179,373.1z"/>
			<path class="st8" d="M1196.7,363.2l-0.8,0.4v18.1c0.2-0.1,0.5-0.2,0.7-0.3C1196.7,375.4,1196.7,369.3,1196.7,363.2z"/>
			<path class="st8" d="M975.1,341c-1.7,1.5-4,2.6-3.6,5.6l0,0c-2.2,1-3.5,2-3.4,5.2c0.1,1.9-1.9,4.2-1.5,7.6
				c-3.8-4.7-2.8-11.3-8.2-13.8c3.6,0.3,6.6-0.6,8.7-4C969.4,338.1,972.3,339.3,975.1,341z"/>
			<path class="st8" d="M958.4,345.6c-4.7,0.3-4.6-3.7-5.6-6.8C955.4,340.5,956.4,343.6,958.4,345.6z"/>
			<path class="st8" d="M919.3,339.9c-0.3-0.1-0.5-0.2-0.8-0.4C918.8,339.5,919.1,339.6,919.3,339.9z"/>
			<path class="st9" d="M770.1,554.1c0.5-2.9,0.6-5.9,0.4-8.9c-0.2-2.1-0.2-4-1.4-5.9c-2.9-4.5-5.1-5.2-9.7-2.5
				c-6.7,4-10.2,11-15,16.8c-0.1,0.2-0.3,0.3-0.4,0.5H770.1z"/>
			<path class="st9" d="M688.1,552.3c0.7,0.4,1,1.1,1,1.9h24.5c-5.6-3.7-10.7-8.2-15.2-13.2c-1.5,0-2.5-1.2-3.6-1.9
				c-5.7-3.6-7.8-2.5-8.4,4.6C687.8,546.3,688.4,549.3,688.1,552.3z"/>
			<path class="st10" d="M73.4,421.2c1.5,1,2.8,2.5,4.3,3.5c1,0.6,1.7,0.8,0.5,1.9c-2.8,2.4-3.5,5.9-4.8,9.1
				c0.7,0.1,1.5,0.7,1.2,1.1c-3.2,3.9,0.6,6.9,1.2,10.2c0,0.5,0.2,0.9,0.5,1.3c2.9,2.9,2.8,3.4-1.4,6.5c-1.2,2.2-0.7,3.6,1.9,3.9
				c2-3.5,4.5,0.6,6.8-0.5c0.7-0.3,1.5,1.1,1.1,2.1c-0.8,2.5-0.5,5.7-4.2,5.9c-1.9,1.3-5.6,0-5.7,4.1c0,0.3,0,0.6,0.1,0.9
				c3.1-1.4,8,1.4,9.4-4.7c0.1,3.6,0.7,6.8-2,8.9c-2.1,1.5,0.6,2.4,0.1,3.6l4.1-3.8c0.2,2.6,1.8,4.7-0.4,6.9
				c-0.4,0.4-0.6,1.5-0.4,1.7c5.1,4.7-0.8,3.9-2.5,5.1c0.1,1.7,1.4,1.2,2.4,1.4c1.4,0.4,3.7-3.2,3.8-0.2c0.1,2.7,4.4,6.2-0.5,8.6
				c-1.1,0.5-2,1.3-2.6,2.3c3.7,0.4,5.5,2.7,7.6,4.8c3.3,3.3,8.1,3,11.6,5.4c4.3,3,8.2,6.6,11.7,10.5c4.7,5.3,11.7,7.9,17.6,11.8
				c9.3,6.2,19.6,4.9,29.7,5c0.5-4.3-0.6-9.6,6.2-9.3c2.3-4.4,3.6-1,5.1,0.7c0.8,0.5,1.1,1.7,0.5,2.5c-0.1,0.2-0.3,0.4-0.5,0.5v1.7
				c4.5,2.3,10.1,1,14,5c0.4,0.5,1,0.7,1.7,0.7c8.2-1.6,13.4,6.9,21.3,6.6c0.4,0,0.9,0.9,1.3,1.3c1.5,0.2,2.5,1.2,4.1-1.1
				c4.4-6.3,7.3-6.3,13.5-1.5c2.4,1.8,3.4,5.3,6.8,5.9c0.4,0.1,0.7,1.4,0.7,2.1c0,0.1,0,0.2,0,0.4h34.8c-0.2-0.6-0.2-1.2-0.2-1.8
				c-1,0-2.1,0.1-2.8-1c-0.1-0.8,0.2-2-0.7-2.1c-5.8-0.5-2.9-3.5-1.1-5c5.1-4.2,10.5-8.1,15.2-12.8c1.3-1.3,3.5-2.8,2.6-4.5
				s-3,0-4.5,0.7c-0.7,0.3-1.4,0.7-2,1.2c-5.5,3.8-6.8,3.5-9.8-2.8c3.5-0.8,7.9,1.6,10-3.5c-1-1.8-2.7-0.7-4.1-1.1
				c-2.1-0.6,0-1.2,0-1.8c-8.2,0.9-16.3,1.8-24.4-0.2c-1.8-0.5-3.5-1.2-5.2-2c-1.3-0.5-2.5-2.1-1.9-2.9c2.5-3.6-2-6.5-1.4-8.1
				c1.4-4.2-5.1-8.8,1-12.5c1.4-0.9-2.8-11.2-4.7-11.8c-2.3-0.7-5.7,2.6-5.5,6c0.2,3.4,1.1,6.5-2.2,8.7c-0.1,0.1-0.2,0.3-0.1,0.4
				c2.4,3.8,0.3,6.6-1.7,9.7c-0.5,0.7,1.4,0.7,2.2,0.9l1-0.7l0.2,0.4l-1.2,0.4c0.2,2.9-1.9,4.1-4,4.5c-2.1,0.4-3.7-1.2-5-2.9
				c-2.2-3-3-6.6-4.3-10c-3-8.1-9.1-12.5-16.5-15.7c-7.2-3.2-7.1-3.4-5.4-11.1c-1.5-0.7-3.5,1.6-4.6-0.6c-0.9-1.8,0.1-3.4,0.8-5.3
				c1.5-4.1,4.2-5.7,7.9-6.3c1.5-0.1,2.8-0.9,3.4-2.2c-3-2.3-6.8-0.9-9.8-2.5c-1.5-7.1-4.6-9-10.3-6.3c-0.6,0.3-1.6,0.6-1.6,0.8
				c0.3,6.8-4.3,3.2-7,3.5c-5.8,0.4-11.7-0.3-17.3-2.2c-7.2-2.3-13.7-6.3-19-11.7c-0.8-0.8-0.7-2.5-0.3-2.6c3-0.2,3.6-5.8,7.6-3
				c0-2.4-0.6-4-2.4-5.1c-1.3-0.8-2.3-2.5-0.7-3.5c3.4-2.1,0.7-3.5-0.1-5.1c-1-2.2-3.9-4.1-1-6.9c0.8-0.8-0.3-1.4-0.8-1.9
				c-1.1-1-1.2-2.8-0.2-3.9c3.3-4.3-0.1-7.9-1.1-11.7c-0.3-1-1-2.5-2.7-1.9c-1.5,0.5-3.3,0.6-3.4,2.7c-0.1,2.8-1.6,5.3-1.1,8.2
				c0.2,1.3,0.5,3.1-1.7,3.3c-1.2,0.1-1.3,0.6-0.6,1.5c2,2.4-0.4,4.5-0.6,6.7c-0.2,1.5-4.6,3,0.6,4c1.1,0.2-0.8,1.9-1.4,2.9
				c-0.9,1.4-3.6,2.8-2.1,4.1c1.8,1.7,1.2,6.3,5.6,5.1c1.4-0.4,3.7,1.3,3.5,2.5c-0.3,1.7,0.2,4.2-2.3,5.1c-1.3,0.4-2.6,1.6-3.9,1.6
				c-6.1,0.3-11.3,4.2-17.3,4.4c-6,0.2-10.9-3.1-15.6-7c-5.4-4.5-9.1-10.5-14.4-15.4c1.1-1.7,3-0.7,4.5-1.1c4-1,5.1-3.7,2.8-7.2
				c-2.9-4.5-3.2-9.9-4.4-15c-0.9-3.7-1.6-7.5-2.6-11.2c-1.3-0.2-1.5-2.6-3.3-1.7c-0.4,3.3-2,6.2-2.7,9.5
				c-1.6,6.8-1.6,14.1-5.3,20.3c-0.9,1-0.7,2.5,0.3,3.4C73,421,73.2,421.1,73.4,421.2z"/>
			<path class="st11" d="M479.7,539c-1.6,3.7-4.6,2.9-7.4,2.7c-1.9,1.6-4.1,2.8-6.4,3.7c-2.5,1.1-5.8,2-6.1,5.7
				c-0.1,0.7,1.4,1.9,3.1,3.2h77.8c-0.1-0.3-0.1-0.6-0.2-0.9c2.2-0.7,4.5-0.8,6.7-0.3c6.1,1.4,12-0.2,17.9-2.1
				c4.7-1.5,3.8-3.6,1.4-6.4c-0.4-0.5-0.7-1-1-1.6c-1.8-1.6-3.8-2.7-6.3-2.3c-4.2,0.7-4.6-4-7.2-5.8c-2.6-1.8-5.2-3.2-7.5-5.3
				c-1.1-1-3.1-0.7-4.4,0.1c-2,1.2,0.1,3.2-0.5,5c-2.6-0.4-2.9-4.9-6.6-3.4c2.3-2.8,4.6-4.4,7.5-3.8c3.4,0.7,6.7-1.2,10,0.3
				c1,0.5,1.6-0.3,1.9-1.4c0.8-2.5,1.5-4.9-0.2-7.3c-2.3-3.2-6.8-1.5-9-3.8c-3.2-3.4-5.7-1.6-8.6-0.3c-2.4,1-4.9,2.7-7.5,0.8
				c-1-0.7-2.9-1.5-2.4-3.2c0.4-1.3,2.2-1.6,3.2-1.4c3.5,0.6,5.9-1.5,8.7-2.9c1.1-0.3,1.8-1.4,1.8-2.5c-0.1-1.5-1.1-1.7-2.2-2
				c-2.8-0.8-4.7-3.4-8-3.5c-2.8-0.1,2.3-3.1-1-4.2c-1.6-0.5-4.5,0.6-4.5-0.9c0.1-5.9-6.2-5.2-8-9c-0.7-1-2-1.2-2.9-0.5
				c0,0,0,0-0.1,0c-2.8,2.8-7.2,3.9-8.3,8.7c-3.9-2.2-7.2-3.2-11.7,0.2c-4.5,3.4-2.7,4.4,0.9,6.5c-2.5,1.1-3.9,3-6.3,3.4
				c-1.2,0.1-2.1,1-2.1,2.2c0,1.2,0.8,2.3,2,2.6c2,0.8,3.8,2.2,6,2.5c1.8,0.2,1.7,1.8,1.1,3c-0.4,0.7-1.3,1-2,0.6
				c-0.3-0.2-0.6-0.4-0.7-0.7c-1.5-3-4.9-2.5-7-4.4c-0.3-0.3-0.8-0.5-1.3-0.4c-4.4,1.5-9.6,1.8-12.8,5.5c-2.2,2.5-4.1,5.1-7,6.9
				c-2.3,1.4-4.5,3.3-0.2,5.1c1,0.4,1,1.1,0.9,1.9c-0.3,3,1.9,3,3.8,3.8c3.8,1.5,7.8,1.4,11.7,1.8c1.1,0.1,2.8-0.5,3.3,1.1
				C482.7,538,480.2,537.8,479.7,539z M529.4,550.1c0.2-2.1,1.7-3.4,3.4-4.2c0.8-0.4,2.5-0.5,2.4,0.4c-0.5,3.2,2.2,2.8,3.6,3.5
				c1.8,0.8,2.3,1.7,1.8,3.5c-3-0.3-6.1-0.7-9.1-1C530,552.1,529.3,551.5,529.4,550.1L529.4,550.1z M507.5,530.4
				c0.2-0.2,0.4-0.5,0.7-0.7c0.3-0.5-0.7-2.1,0.8-1.3c2.5,1.3,1.6,3.9,2,6.7l-5.9-3L507.5,530.4z M492.9,547.9
				c0.6,0.3,0.8,1,0.5,1.5c-0.1,0.2-0.3,0.4-0.5,0.5c-1,0.8-2.4,0.6-3.2-0.3c-0.1-0.1-0.1-0.1-0.1-0.2c-1.9-3-4.9-4.5-8.4-6.9
				C487,541.7,489.2,546.4,492.9,547.9L492.9,547.9z"/>
			<path class="st11" d="M314.1,554.1h8.4c-0.2-0.1-0.3-0.3-0.4-0.5c-1.6-4.8-5.1-2.7-7.9-3.3C314.1,551.5,314.4,552.9,314.1,554.1z
				"/>
			<path class="st11" d="M389.5,549.4c1.7,1.4,0.4,3.3,0.5,4.8h39.1c0.3-0.2,0.6-0.4,1-0.5c3.4-0.9,4.5-3.4,5.9-6
				c0.4-0.8,1.6-1.5,0.8-2.4c-0.5-0.6-2.1-0.9-2.5-0.5c-3,2.5-4.5-1.7-7-1.7c-1.3,0-0.2-1.9,0.3-2.7c1.2-2.1,3-4,3.1-7.7
				c-2.5,3.5-6.1,6.2-10.1,7.7c-1,0.4-2.4,0.9-2.8-0.4s0.9-1.9,2-2c4.1-0.3,5-3.7,6.4-6.7c-1.6-1.1-2.7,1.4-4.3,0.5
				c2.6-3.1,1.7-7.7,4.9-11.1c-4.3,2-7,0.9-9.2-2.9c-0.9-1.5-2.6-2.4-4.4-2.3l-1.5-0.1c-1.9,2.3-2.7,5.3-2.1,8.2
				c0.4,2.3-0.9,2.9-2.8,1.8c-1.1-0.6-2.1-1.4-3.1-2c-0.7-0.4-1.6-0.9-2,0.1c-0.2,0.7-0.3,1.5-0.1,2.3c0.1,0.5,0.4,0.9,0.8,1.1
				c2.1,1.5,2.9,3.3,1.6,5.7c-1.3,2.5-3.6,0.1-5.4,0.8c-0.7,0.3-2-1-3.1-1.6c-2.7,3.7-2.4,7,1,10c4.3,0,8.2,0.7,11.5,6.1
				c-5.1-1.5-9.8-0.4-11.5-6.1l-5.4-1.9c2,5.7,7.3,7,11,10.9c-4.1,0.1-6.9-2.9-10.4-2.9C390.3,547.8,388.3,548.4,389.5,549.4z"/>
			<path class="st5" d="M314.7,528.8c2.7,0.5,3.8,1.9,4.7,4.4c0.9,2.1,2.5,3.7,4.6,4.5c2.8,1.2,2.1,2.2-0.1,3.7
				c-2.1,1.6-4.8,0.3-6.7,2.9c-0.9,1.2-2.4-1.1-3-2.6c-0.3-0.9-0.7-2.1-1.8-1.5c-1.1,0.6,0,1.7-0.2,2.6c0,0.9,0.1,1.9,0.1,2.8
				c0.9,0.6,1.8,1.2,2.7,1.8c0.6,0.4,1.8,0.5,1.2,1.5c-0.3,0.5-1.4,0.5-2.1,0.7c0,0.3,0,0.6,0,0.9c2.8,0.6,6.3-1.6,7.9,3.3
				c0.1,0.2,0.2,0.4,0.4,0.5H390c-0.2-1.5,1.2-3.4-0.5-4.8c-1.2-1,0.8-1.5,2.2-1.5c3.5,0,6.3,3.1,10.4,2.9c-3.6-3.9-8.9-5.2-11-10.9
				l5.4,1.9h0.1c-3.4-3-3.7-6.3-1-10c1,0.6,2.4,1.9,3.1,1.6c1.8-0.8,4.1,1.7,5.4-0.8c1.3-2.4,0.5-4.3-1.6-5.7
				c-0.4-0.3-0.7-0.7-0.8-1.1c-0.2-0.7-0.2-1.5,0.1-2.3c0.5-1,1.4-0.5,2-0.1c1.1,0.6,2.1,1.4,3.1,2c1.9,1.1,3.2,0.5,2.8-1.8
				c-0.6-2.9,0.2-6,2.1-8.2c-8-1.4-16.1-0.3-24.1-0.6c-2.2-0.1-4,0.1-5.7-2.6c-2.8-4.5-9.4-3.1-10.9,2c-0.6,2.2-2.3,2-3.6,2.2
				c-12.7,2.3-25.4,3.8-38.3,3.2c-4.5-0.2-8.6-2.2-12.8-3.8c-2.4,2.6-4.1,5.8-4.9,9.3C310.8,526.8,313,528.4,314.7,528.8z"/>
			<path class="st2" d="M75.4,497.6c2,4,2,8.7,0,12.8c-0.8,1.3-0.4,2.9,0.9,3.6c0,0,0.1,0,0.1,0.1c3.7,2.7,4.6,6.6,4,11
				c-0.3,2.9-0.7,5.7-1.3,8.5c-0.6,2.3-0.4,4.2,1.2,5.7c2.6,2.6,3.3,6.5,1.7,9.8c-0.7,1.6-0.9,3.3-0.6,5h19.7
				c3.6-2.2,5.5-7.3,10.7-6.3c0.1,0,0.3-0.2,0.3-0.3c4-7.1,12.9-5.3,18.1-10.3c1.1-1,3.1-0.3,4.7,0.8c3.5,2.4,6.9,5.6,11.7,4.7
				c1.8-0.3,3,0.7,2.9,2.7c-0.1,2.3,1.2,3.1,3.2,3c1.7,0,3.4,0.4,4.8,1.3c2.4,1.2,5.1,1.5,7.3-0.8s1.5-4.2,0.2-6.5
				c-0.6-1-0.5-2.5-0.6-3.7c-10.1-0.1-20.4,1.1-29.7-5c-5.9-3.9-12.8-6.5-17.6-11.8c-3.5-4-7.4-7.5-11.7-10.5
				c-3.4-2.4-8.3-2.1-11.6-5.4c-2-2-3.9-4.4-7.6-4.8c0.6-1,1.5-1.8,2.6-2.3c4.8-2.4,0.5-5.9,0.5-8.6c-0.1-3-2.4,0.6-3.8,0.2
				c-1-0.2-2.2,0.2-2.4-1.4c1.7-1.3,7.6-0.4,2.5-5.1c-0.2-0.2,0-1.4,0.4-1.7c2.2-2.2,0.6-4.4,0.4-6.9l-4.1,3.8
				c-0.2,1.2-0.5,2.3-1.9,0.9l-2.8,0.1c-0.7,1-1.8,0.9-2.8,0.9c0,2.7-0.1,5.4,0,8.1C75,491.9,74.2,494.9,75.4,497.6z"/>
			<path class="st11" d="M270.5,549.2c0.9,0.1,0.6,1.3,0.7,2.1c1,0.1,2.1-0.1,2.8,1c0,0.6,0,1.2,0.2,1.8h6.3v-0.9
				c-0.4-0.2-0.8-0.4-1.2-0.6c-1.3-0.8-3.9,0.5-4.1-1.9s1.5-3.6,3.5-4.2c3.6-2.2,5.3-5.6,5.5-9.8c0.1-1.9,0.5-3,2.4-4
				c3.4-1.9,5.5-5.3,5.7-9.2c0-2.7,0.6-3.4,2.4-3.8c2.1-0.5,4.6-0.8,4.6,2.8c0,1,0,2.1,1.1,2.4c6.5,1.7,4.9,8.9,8,13
				c1.2,1.6,1.6,3.9,3.9,4.8c0.2-0.9-0.9-2.1,0.2-2.6c1.1-0.5,1.5,0.6,1.8,1.5c0.6,1.5,2.1,3.9,3,2.6c1.9-2.5,4.6-1.4,6.7-2.9
				c2-1.5,2.8-2.5,0.1-3.7c-2.1-0.8-3.8-2.4-4.6-4.5c-0.9-2.6-2-4-4.7-4.4c-1.8-0.3-4-2-3.5-3.8c0.8-3.5,2.5-6.7,4.9-9.3
				c1-0.3,2.2,0.1,2.9-1.8c-5.1,1.4-6.8-5.6-11.6-4.2c-1.1-2.1,1.9-1.5,1.6-2.9l-3.3-1.6l-0.3-0.6l0.7,0.3c1.5-0.4,3.9,1,4.5-1.1
				c0.5-2.1-1.5-3.4-3.4-4.7c3.7,0.6,7.5,0.5,11.3-0.2c0.8-0.1,1.7-0.2,1.8-1.1c0.2-1.1-1.2-1-1.4-1.4c-1.8-4.3-7.4-3.2-9.5-7.1
				c0.3-0.2,0.5-0.5,0.7-0.6c2.3-0.2,5.9,1,6.4-1.4c0.4-2.3-3.3-3.1-5.5-4.1l-1.2-0.5c-0.9-1.9,6.8-3.9-0.1-5.6
				c-0.3,0.2-0.6,0.5-1,0.7c-0.1-0.1-0.2-0.2-0.3-0.3l1.1-0.5c-1.4-1.9-3.6-3.1-4.2-5.7c-0.5-2.3-2.5-0.3-2.9-0.3
				c-3.7,0.4-7.8-0.4-10.9,2.6c-2.8,2.7-2.1,5.2,1.3,7.6c-3.2,0.8-4.8,4-8.3,3.8c1.6,1,2.6,3.3,5,2.2c1.9-0.9,2.8,1,3.1,1.9
				c0.4,1.5-1.4,1.8-2.4,2.2c-1.5,0.4-2.9,0.6-4.4,0.8c0.7,3.4,3.3,1.8,5,2.4l1-0.6c0.1,0.1,0.2,0.2,0.2,0.3l-1.1,0.4
				c-2.2,1.2-4.2,3.1-3.6,5.7c1,4.6-1.9,4.7-4.7,4.8c-2,0.1-3.9-0.4-6-0.2c4.5,2.8,9.5,4.2,15.1,5.8c-3.4,1.7-6.6,0.9-9.7,0.7
				c0.4,2.6,2.2,2.2,3.6,2.5c1.1,0.2,3.1-0.8,3,1.1c-0.1,1.9-1.9,2.6-3.6,2.3c-1.6-0.3-3.2-2.8-3.1,1.5c0,1.6-3.3,0.2-5,0.9
				c0,0.6-2.2,1.2,0,1.8c1.4,0.4,3.1-0.7,4.1,1.1c-2.1,5-6.6,2.7-10,3.5c3,6.3,4.2,6.7,9.8,2.8c0.6-0.4,1.3-0.8,2-1.2
				c1.5-0.7,3.5-2.4,4.5-0.7c1,1.8-1.3,3.1-2.6,4.5c-4.7,4.8-10.1,8.6-15.2,12.8C267.7,545.7,264.7,548.8,270.5,549.2z M283.5,524.1
				l-0.3-0.1c0-0.1,0.1-0.2,0.1-0.3c0.1,0,0.2,0.1,0.3,0.1C283.6,523.8,283.5,524,283.5,524.1L283.5,524.1z"/>
			<path class="st2" d="M179,539.1c1.6-0.3,0.8,1.5,0.8,2.5c0,3.2-1.4,6.7,1.5,9.5c0.9,0.8,1.6,1.8,1.8,3h20.6
				c0.1-0.6,0.2-1.3,0.3-1.9c0-1.1,0.8-1.7,1.8-1.8l0,0c0.4-2.4,2.2-1.8,3.7-1.9l4.7-0.1c-0.4-0.5-0.9-1.3-1.3-1.3
				c-7.8,0.3-13.1-8.2-21.3-6.6c-0.6,0-1.2-0.2-1.7-0.7c-3.9-3.9-9.6-2.7-14-5C176.1,536.9,174.6,540,179,539.1z"/>
			<path class="st11" d="M73.5,435.6c0.7,0.1,1.5,0.7,1.2,1.1c-3.2,3.9,0.6,6.9,1.2,10.2c0,0.5,0.2,0.9,0.5,1.3
				c2.9,2.9,2.8,3.4-1.4,6.5c-1.1-0.7-2.4-1.1-3.7-1c0.3-3.8-3.9-6.1-3.3-10.2c0.1-0.8-1.5-1.6-2.2,0.1c-0.6,1.4-1.3,2.8-2,4.3v1
				c0,1,0,1.9,0,2.9l-3.8,1.9c-2.9-0.8-6.1-0.3-8.9-1.6c-0.7-0.3-0.9,1-1.2,1.7c-1.7-0.4-4,0.9-4.7-1.9c2.7-0.9,0.5-3.3,1.5-5
				c1.8,1.1,3.7,1.9,5.8,2.2c1.4,0.2,2.5,0.9,3.4-0.8s0.3-2.9-1.1-4c-1.4-1.1-2.7-2.2-2.2-4.6c3.2,0.2,4.9,3.8,8.1,3.8
				c0.3,0.4,0.6,0.6,1,0.1c0.1-0.1-0.3-0.4-0.4-0.6c-0.1-1.3,0.2-2.8-0.4-3.7c-2-2.9-4.3-5.4,1.2-7c0.9-0.3-0.7-2.7,0.9-3.6l2.5,0.1
				c0.1,2.3,2.9,1.1,3.5,3.1c-0.1,1.7-2.8,0.9-3.3,3.5C68.7,432.1,69.9,443,73.5,435.6z"/>
			<path class="st12" d="M15.1,513.7c1.3-2.3,2.8-4.5,4.4-6.6c1.6-1.9,3.7-1.7,5.4-0.1c2.6,2.5-0.9,2.2-1.5,3.3
				c-1.1,2.3-3.1,4-4.1,6.2c-0.9,2-1.2,4.9,2.3,4.7c3.1-0.2,2.5,2.7,3.8,4c-0.4,2-1.4,4.2-3.5,3.4c-2.8-1.1,0.5-3.2,0-4.8
				c-1.7-1.1-2.6,0.3-3.8,0.9s-2.7,0.5-4.4,0c0.9-2,1.8-3.8,2.6-5.6C17,517.2,18,515,15.1,513.7z"/>
			<path class="st12" d="M205.8,554.1c0.1-1.2,0-2.5,0-3.8c-1,0.2-1.8,0.7-1.8,1.8c0,0.6-0.1,1.3-0.3,1.9H205.8z"/>
			<path class="st2" d="M71.1,453.8c1.3-0.1,2.6,0.3,3.7,1c-1.2,2.2-0.7,3.6,1.9,3.9c1.8,2.3,5.1,3.7,3.7,7.6
				c-1.9,1.3-5.6,0-5.7,4.1c-2.7-3.6-2.6-8.1-3.6-12.2C71,456.7,71,455.3,71.1,453.8z"/>
			<path class="st11" d="M77.7,480c-0.7,1-1.8,0.9-2.8,0.9c0-3.2,0-6.4,0-9.6c3.1-1.4,8,1.4,9.4-4.7c0.1,3.6,0.7,6.8-2,8.9
				c-2.1,1.5,0.6,2.4,0.1,3.6c-0.2,1.2-0.5,2.3-1.9,0.9C79.5,477,78.6,478.5,77.7,480z"/>
			<path class="st2" d="M59.8,453.8l3.8-1.9c-0.3,3.6,1.3,8-3.8,9.6c-0.5-2.5-2.4-1.7-3.9-1.9c0.3-1.4-0.6-1.9-1.7-2.1
				c0-0.6,0-1.2,0-1.7C56.4,455.7,58.6,456.4,59.8,453.8z"/>
			<path class="st5" d="M280.5,553.3c-0.4-0.2-0.8-0.4-1.2-0.6c-1.3-0.8-3.9,0.5-4.1-1.9s1.5-3.6,3.5-4.2c0,0.6,0.1,1.3,0.1,1.9
				c-0.1,1,0.5,1.9,1.5,2c0.1,0,0.1,0,0.2,0c0.1,0.3,0.1,0.6,0.1,0.9C280.6,552,280.6,552.6,280.5,553.3z"/>
			<path class="st11" d="M312.4,545.5c0.9,0.6,1.8,1.2,2.7,1.8c0.6,0.4,1.8,0.5,1.2,1.5c-0.2,0.5-1.4,0.5-2.1,0.7
				C313.2,548.4,312,547.4,312.4,545.5z"/>
			<path class="st12" d="M205.8,550.4c0.4-2.4,2.2-1.8,3.7-1.9C209.1,550.9,207.3,550.3,205.8,550.4z"/>
			<path class="st11" d="M280.5,550.4c-1,0-1.7-0.8-1.7-1.8c0-0.1,0-0.1,0-0.2c1,0,1.8,0.9,1.7,1.9
				C280.5,550.4,280.5,550.4,280.5,550.4z"/>
			<path class="st2" d="M175.9,530.1c0.8,0.5,1.1,1.7,0.5,2.5c-0.1,0.2-0.3,0.4-0.5,0.5L175.9,530.1z"/>
			<path class="st2" d="M63.7,449v-1c0.1,0.2,0.2,0.5,0.3,0.7C64,448.8,63.8,448.9,63.7,449z"/>
			<path class="st13" d="M54.3,457.5c1.1,0.3,1.9,0.7,1.7,2.1c-3.1,0.9-6.4,0.1-8.8-2c-0.6-0.5-1.1-1.4-1.6-1.4
				c-0.7,0-0.4,0.9-0.3,1.5h-0.4c-1.2-0.1-2.3-0.3-3.5-0.7c-0.9-0.4-1.4-1.3-1.2-2.3c0.2-1,1.1-0.8,1.8-0.8c1.4,0,2-1.2,2.9-1.9
				c0.7,2.8,3,1.5,4.7,1.9l0,0c0.3,0.8-2.6,1.7-0.3,2C51.2,456.1,52.6,457.1,54.3,457.5z"/>
			<path class="st5" d="M65.2,428.8l-2.5-0.1c-3.2-3.8,0.1-7.4,0.1-11.8C67,420.7,64,425.2,65.2,428.8z"/>
			<path class="st3" d="M195.3,455.9c-1.5-7.1-4.6-9-10.3-6.3c-0.6,0.3-1.6,0.6-1.6,0.8c0.3,6.8-4.3,3.2-7,3.5
				c-5.8,0.4-11.7-0.3-17.3-2.2c-7.2-2.2-13.8-6.3-19.1-11.7c-0.8-0.8-0.7-2.5-0.3-2.6c3-0.2,3.6-5.8,7.6-3c0-2.4-0.6-4-2.4-5.1
				c-1.3-0.8-2.3-2.5-0.7-3.5c3.4-2.1,0.7-3.5-0.1-5.1c-1-2.2-3.9-4.1-1-6.9c0.8-0.8-0.3-1.4-0.8-1.9c-1.1-1-1.2-2.8-0.2-3.9
				c3.3-4.3-0.1-7.9-1.1-11.7c-0.3-1-1-2.5-2.7-1.9c-1.5,0.5-3.3,0.6-3.4,2.7c-0.1,2.8-1.6,5.3-1.1,8.2c0.2,1.3,0.5,3.1-1.7,3.3
				c-1.2,0.1-1.3,0.6-0.6,1.5c2,2.4-0.4,4.5-0.6,6.7c-0.2,1.5-4.6,3,0.6,4c1.1,0.2-0.8,1.9-1.4,2.9c-0.9,1.4-3.6,2.8-2.1,4.1
				c1.8,1.7,1.2,6.3,5.6,5.1c1.4-0.4,3.7,1.3,3.5,2.5c-0.3,1.7,0.2,4.2-2.3,5.1c-1.3,0.4-2.6,1.6-3.9,1.6
				c-6.1,0.3-11.3,4.2-17.3,4.4c-6,0.2-10.9-3.1-15.6-7c-5.4-4.5-9.1-10.5-14.4-15.4c1.1-1.7,3-0.7,4.5-1.1c4-1,5.1-3.7,2.8-7.2
				c-2.9-4.5-3.2-9.9-4.4-15c-0.9-3.7-1.6-7.5-2.6-11.2c6.3,4.3,14,4.5,20.9,7.4c0.7,2.6,2.4,2,3.9,1.1c2.3-1.4,4.8-2.4,7.4-2.1
				c4.3,0.6,7.5-0.6,9.3-4.9c2.8,0.2,5.5-0.9,7.5-2.9l0,0c5.8-1.6,11.7-2.4,17.4-4.6c10.8-4.3,21.7-5.7,32.1,1.7
				c2,1.4,2.5,3.6,3.8,5.3c3,3.9,6.5,7.3,10.5,10.1c5.6,3.7,12.2,8.6,20.1,4.6c2.3-1.2,5.1-1.2,7.7-1.8c2.1,2,3.8,0.8,5-1
				c4.7-7.3,11.1-13.3,18.8-17.5c3.3-1.7,5.8-4.4,7.3-7.8c0.6-1.7,2.3-2.8,4.1-2.6c3.8,0.2,6.9-1.6,9.7-3.9
				c3.9-0.4,7.2,3.4,11.3,1.4c0.3-0.1,1,0.3,1.2,0.6c3.2,5.4,10,7.9,11.6,14.7c0.4,1.9,1.5,3.5,3.8,3.8c1.7,0.3,2.8,1.8,2.7,3.5
				c-0.1,4.4,3.1,4.5,5.9,5.9c5.9,3,11.7,1.6,17.1-0.3c4.1-1.4,7.5-4.8,11.2-7.2c7.5-4.8,15.5-7.8,24.7-6.8
				c5.5,0.6,10.5,2.9,15.9,3.7c1.4,0.2,2.1,1.2,2.9,2.1c2,2.4,4.5,3.3,7.5,2.3c1.2-0.4,2.8-1,3.6-0.1c3.6,3.9,9.1,3.6,13.1,6.4
				c2.6,1.8,6.4-0.1,8.6,2.8c4,2.9,9,3.8,13.4,5.1c4.8,1.4,9.1,4,13.5,5.9c6.9,2.9,13.8,6.5,20.8,9.3c10,4,19.6,9.2,29.8,12.5
				c-1.5,2.7-0.8,5.7-1,8.5c-0.1,1.3,0.5,2.8-0.7,3.6c-6.5,4.3-7.6,12.8-13,17.9c-1.3,1.2-1.6,4.3-3.9,3.3c-1.5-0.6-0.5-3.1-0.7-4.8
				c-0.2-2.4-0.6-4.5-3.2-4.3c-2.6,0.2-2.3,2.5-2.1,4.5c0.4,3.9-2,5-4.6,3.7c-5.3-2.5-10.3-5.6-15-9.2c-3.9-3.1-8.2-5.6-12.8-7.7
				c-2.6-1.3-4.1-1.7-0.5-3.5c1.3-0.7,1.3-2.1,0.7-3.4c-0.8-1.4-1.2-3-1.3-4.6c0-2.4,0-6-2.3-6.1c-2.3-0.1-3.1,3.3-3.3,5.9
				c0.1,0.7,0,1.4-0.2,2c-1.7,3.7-1.8,8.3-7.5,9.3c-2.9,0.6-5.7,3.9-7.5,7.4c-2.4,4.9-5.3,9.6-9.5,13.2c-2.5,2.1-5.6,4-8.3,3.4
				c-2.3-0.6-1.1-4.6-1.5-7.1c-0.1-0.5,0-1,0-1.4c-0.2-1.8-0.3-4-2.4-4.1c-2.4-0.1-2.2,2.2-2.3,3.9c-0.1,1.4-0.6,2.8-0.7,4.3
				c-0.3,3-1.9,3.6-4.1,2.2c-5-3.2-11.3-5.1-11.4-13c-0.1-1.4-0.5-2.9-1.1-4.1c-1.1-2.2-2.4-4.1-4.3-0.6c-0.9,1.6-2,2.8-3.5,0.8
				c-3.5-4.6-8.7-6.6-13.4-9.3c-0.9-0.5-2.3-0.8-2.3-2.1c0-1.9,1.8-1.3,2.8-1.8c1.4-0.8,4.1-1.1,2.8-3.4c-2.2-4-3-8.4-4.5-12.6
				c-0.4-1.2-0.8-2.7-2.4-2.6c-1.5,0.1-2.7,1.4-2.6,2.9c-0.1,2.3-1.2,4.3-1.7,6.4c-0.9,3.9-4.1,8.8,2.6,11c1.1,0.4,0.9,2,0.4,3
				c-0.9,1.7-2.3,2.7-4.3,2.2c-5.4-1.4-10.1-5-16.9-3.9c4.1-3.9,4.7-8.3,2.5-12.3c-0.6-1.1-1.4-2.5-2.8-2.1
				c-1.3,0.4-2.2,1.5-2.3,2.8c-0.2,2.2-0.1,4.5-0.2,6.7c0,1.5-0.1,2.8-2,3.2c-4.9,1-13.5-4.3-14.7-9.3c-0.5-2-1-4-2.7-5.6
				c-0.8,1.1-1.8,2-2.1,3.2c-1.4,5.5-3.7,3.4-6.2,0.9c-3.5-3.5-5.7-8.2-6-13.2c-0.2-1.9-0.7-5.3-3.4-3.3c-3.8,2.7-4.6-0.5-5.6-2.5
				c-0.8-1.5-1.2-2.8-3-3.2c-3.9-1-5.6-4-7.1-7.5c-1.2-2.7-1.1-5.7-2.2-8.3c-0.5-1.3-1.1-2.4-2.6-2.2c-1.2,0.2-2,1.2-2,2.4
				c-0.2,2.8-2.1,5.2-2.3,7.7c-0.3,2.8-4.7,6.1,0.5,8.9c4.6,2.5,4.4,3.4-0.3,6.3c-1.2,0.7-2.7,1-3.8,1.8c-3.2,2.4-5.3,2.2-6.4-2.1
				c-0.2-1.2-1.3-2-2.4-1.9c-1.5,0.2-2.1,1.3-2.1,2.7c0,3.2-1,6.4-2.9,9c-2.5,3.2-4.5,2.8-6-0.9c-0.6-1.4-0.8-3.2-2.5-3.7
				c-2.1,2.5-3.1,5.7-2.7,8.9c0.2,3.9-2.7,5.5-5.6,5.8c-2.9,0.2-2.9-2.7-3.6-5.1c-1-3.3,1.8-6.4-0.3-9.4c-0.8-1.2-0.4-3.7-2.6-3.3
				c-2.1,0.4-2.4,2.6-2.1,4.3c0.5,3-0.8,5.5-1.8,7.9c-2.2,5.3-1.7,9.5,2.4,12.9c-7.2,3.3-7.2,3.3-9-3.9c-0.3-1.2-0.8-2.4-1.3-3.6
				c-0.4-1-1.2-1.5-2.2-0.7c-1,0.8-4.2,12.4-3.4,13.2C202.1,454.8,197.7,454.9,195.3,455.9z"/>
			<path class="st6" d="M926.4,554.1c-0.8-0.6-1.5-1.2-2.1-2c-1.1-1.5-0.9-3.6,0.6-4.7c0,0,0,0,0,0c-0.1-0.6-0.1-1.3-0.2-1.9
				c-0.8,0.3-1.7,0.6-2.5,0.8c-0.5,0.1-1.1,0.2-1.7,0.3c0.2-0.7,0.3-1.4,0.5-2.1c-0.4-1.4-1.4-3.6-2.5-2.1c-1.8,2.5-4.1,1.2-6,2.1
				c-0.2,1-0.7,2-1.7,1.8c-6.6-1-5.9,3.6-5.8,7.7L926.4,554.1z"/>
			<path class="st6" d="M851.8,552.8c0.4,0.4,0.8,0.8,0.9,1.4h37.5c0.2-0.6,0.5-1.1,0.9-1.6c1.7-2.1-2-3.5,0.1-5.1
				c-2.6-3.4-4.7-6.3-3.4-11.7c0.8-4.3-0.6-8.8-3.6-12c-2-1.9-1.2-4.1-1.5-6.2c-2.4-0.7-4.2-2.1-3.5-5c0.6-2.4-0.7-3.4-2.1-4.6
				c-2.9-0.7-2.5-3.7-3.9-5.5c-1.4-1.8-2.8-3.9-3.8,0.3c-0.1,3-0.8,5.6-3.8,6.9c-0.9,0.3-2.5,0.6-2.5,0.8c0.3,4.5-4.3,4.5-6.1,6.9
				c2.7,2.1,0.3,5.5,2,8.1c0.5,0.7-1.7,0.7-2.5,1.1c-2.5,1.1-3.4,2.6-2,5.2c2.8,5.4,1.3,10-2.4,14.3
				C850.4,548.2,847.4,549.9,851.8,552.8z"/>
			<path class="st6" d="M808.5,554.1c-0.5-0.5-0.9-0.9-1.4-1.4c-0.9-0.8-2.1-0.8-3,0c-0.4,0.3-0.5,0.9-0.4,1.4L808.5,554.1z"/>
			<path class="st6" d="M821.6,554.1c2.4-1.5,1.9-2.1-1.3-4.7c-3.6-3-4.3-7.4-4.9-11.7c-0.4-2.5,0-5.1,0-7.7
				c-0.7-0.4-0.3-3.1-2.1-1.1c0.6,4.5-0.9,8.9-0.6,13.3c0,0.2,0.1,0.4,0,0.5c-4.9,3.4-1.7,7.5-1,11.4H821.6z"/>
			<path class="st2" d="M1196.6,544.6c0-5.1,0-10.3,0-15.5c-0.2,0-0.4,0-0.7,0v15.4C1196.1,544.5,1196.3,544.6,1196.6,544.6z"/>
			<path class="st2" d="M1186.6,525.3h9.4v-61.7l-6.5-0.1c0.8,4.5-2.1,9-0.1,13.5c0,1-0.1,1.9,0,2.8c0.3,2.6-0.5,5.5-2.6,6
				c-2.4,0.5-4.8-0.8-5.9-3c-1.2-0.5-5.6,1.2-1.7-2.7c1.3-1.2-1.2-3.8,1.6-4.1l0.1-2c0-0.3,0-0.6,0-0.9c-1-0.1-2.1,0-2.8-1
				c-5.1-0.6-3.4,4.8-5.6,6.7l0.3,0.2l-0.3-0.2h-0.9l-5.6,0.1c1.6,3.8,5.2,0.7,7.7,2.4c-2.1,2.5-3.3,5.6-7.4,5.7c-1.7,0-1.4,2-0.5,3
				c1.6,1.5,1.9,3.8,0.8,5.6c-1.7,2.8-1.5,5.8-1.4,8.8c0,2.1-0.4,3.5-2.8,3.4c0,0.8,0.5,1.5,1.2,1.9c3.2,1.2,2.3,2.4,0.3,4.3
				c-3.7,3.4-3.8,10.5-0.1,12.4c2.7,1.5,6,1.1,9,1.1c1.5-0.1,3.1-0.4,4.6-0.9c2-0.5,4.1-0.7,4.3,2c0.3,2.7-1.3,5.9-3.9,5.3
				c-2.6-0.6-2.5,0.9-3,2.1c-1,2.4-2.8,4.5-5.2,4.4c-4.4-0.3-7.9,2.6-12,3.1c1.8,1.2,3.7,2.3,5.3,3.7c2.4,2,2,3.8-0.8,4.8
				c-1.9,0.7-4,1.4-5.9,1c-1.3-0.2-2.7,0.1-3.7,1l39.8-0.1c-2-0.2-3.7-1.4-4.6-3.2c-1-2.6,2-2.2,3-3.2c1.6-1.4,2.8-3.3,5.2-3.3
				v-15.4C1192.4,529.3,1189.2,528.6,1186.6,525.3z"/>
			<rect x="1195.9" y="463.6" class="st2" width="0.7" height="61.7"/>
			<path class="st10" d="M1191.8,418.6c-1.7-0.8-3.6-0.8-4.6,1.4c-0.4,3.1-0.8,6.2-1.2,9.2c-0.2,1.1-0.5,2.9-1,3
				c-3.1,0.6-1.6,1.7-0.6,3.1c1.7,2.6-0.7,3.4-2,4.9c-1.3,1.5-2.8,2.4,0,4.1c3,1.9-0.3,3.7-1.1,4.2c-1.2,0.8-1.7,4.9-4.4,1.8
				c-1-1.1-1.8-2.2-3.5-1.8c1.2,5.7,6.6,6.5,10.3,9.3c0.5-0.8,1.5-1.2,2.4-0.9c1.4,0.3,2.6,1.3,3,2.6c0.1,0.6,0,1.2-0.4,1.6
				c-1.6,0.9-2.4-0.5-3.4-1.4c-0.4-0.4-1-0.8-1.4-1.2c-0.2,4.2,2.3,5.1,5.6,5l6.5,0.1v-44.2C1194.5,419.3,1193.1,419,1191.8,418.6z
				 M1184.8,443.3l0.1-0.3v0c0.1,0,0.3,0,0.3,0c0,0.1,0.1,0.2,0.1,0.3H1184.8z"/>
			<path class="st10" d="M1196.6,419.5c-0.2,0-0.4,0-0.6,0v44.2l0.7,0C1196.6,448.9,1196.6,434.2,1196.6,419.5z"/>
			<path class="st12" d="M1196.6,544.6c-0.2,0-0.5-0.1-0.7-0.1v9.6h0.7C1196.6,551,1196.6,547.8,1196.6,544.6z"/>
			<path class="st12" d="M1190.8,547.8c-1.1,1-4,0.6-3,3.2c0.8,1.8,2.5,3,4.5,3.2h3.6v-9.6C1193.6,544.5,1192.4,546.4,1190.8,547.8z
				"/>
			<path class="st6" d="M1186.6,525.3c2.6,3.3,5.8,4,9.3,3.9v-3.9H1186.6z"/>
			<path class="st6" d="M1196.6,525.3h-0.7v3.9c0.2,0,0.5,0,0.7,0V525.3z"/>
			<path class="st2" d="M45.3,457.7c-0.2-0.6-0.5-1.5,0.3-1.5c0.5,0,1.1,0.9,1.6,1.4L45.3,457.7z"/>
			<path class="st13" d="M1187.3,420c-0.4,3.1-0.8,6.1-1.2,9.2c-0.2,1.1-0.5,2.9-1,3c-3.1,0.6-1.6,1.7-0.6,3.1
				c1.8,2.6-0.8,3.5-2,4.9s-2.9,2.4,0,4.1c3,1.9-0.3,3.7-1.1,4.2c-1.2,0.8-1.7,4.9-4.4,1.8c-1-1.1-1.8-2.2-3.5-1.8
				c-10.3-7.3-22.3-10-34.3-11.7c-14.5-2-27.8,3.2-40.5,10.2c-3.4,1.9-5.8,4.7-9,6.6c-5.8,3.4-12.5,4.9-19.2,4.3l-1.7-0.1
				c-6.8-0.7-12.8-2.5-18.8-6.7c-8-5.7-14.9-13.8-25.4-15.1c-2.3-0.3-4.5-0.6-6.9-0.9c1.8-2.8,0-11.9-2.6-13.4
				c-1.9-1.1-4.9-1.1-4.7,1.3c0.1,1.9-2,3.1-0.6,5.7c0.9,1.6,0,6.4-4.6,7.4c-5.6,1.3-11,3.7-15.7,7c-0.8,0.5-1.8,0.8-1.6,2
				c0.2,1,1.1,1,1.8,1.2c4.6,1.3,8.1,4.3,8.6,9.1c0.5,4.5-3.1,6.8-6.9,8.6c-3,1.4-2.3,4.8-2.5,7.3c-0.2,3,2.5,1.4,3.8,1.8
				c4.1,1.1,1,4.4,2,6.5c0.9,1.7,0.2,3.8-1.5,4.6c-0.3,0.1-0.6,0.2-0.9,0.3c-7,2-13.9,4.2-21.1,5.1c-2.2,0.2-4.3,0.8-6.2,1.9
				c-6.2,3.6-11.2,8.9-17.3,12.8c-7.7,5-14.8,11.3-24.6,10.9c-3.5-0.1-7.2,2.5-10.5-0.6c-1.9-1.7-2.7-4.7-5.8-5
				c-0.8-0.2-1.3-1.1-1.1-1.9c0.3-1.1,1.3-0.4,1.9-0.5c1-0.2,2.3-0.6,2.7-1.3c0.7-1.3-0.8-2.1-1.6-2.5c-2.3-1.2-3.8-2.3-1.3-4.8
				c0.4-0.5,0.2-1.3-0.3-1.6c-0.2-0.1-0.3-0.2-0.5-0.2c-2.1-0.2-2.4-2.2-3.2-3.4c-1.5-2.3-6.4-3.8-8.9-1.8c-1.9,1.6-3.9,4.3-1.9,7
				c1.6,2.1,0.6,2.6-1,3.4c-1,0.5-2,1.2-3.1,1.7c0.9,1.8,2.7,1.7,3.5,2.5c3,3.1,0.5,3.4-2,3.6c-3.8-4.8-8.3-4.7-13.1-1.7
				c-2.9-0.7-2.5-3.7-3.9-5.5c-1.4-1.8-2.8-3.9-3.8,0.3c-2.3-0.7-3.5,0.1-3.6,2.6c0,1.4-0.1,2.8-0.2,4.2c-0.9,0.3-2.5,0.6-2.5,0.8
				c0.3,4.5-4.3,4.5-6.1,6.9c-4.6,3.7-10.4,4.6-15.4,7.3c-4.3,2.4-9.2,2.9-13.5,5.6c-3.7,2.3-8.4,0.2-12.7-0.4
				c-0.7-0.4-0.3-3.1-2.1-1.1c-7.3-2.8-12.3-8.4-17.7-13.9c-3.1-3.2-2.8-8.3-6.8-10.4c-0.2-0.3-0.3-0.6-0.2-0.9
				c4.1-4-0.4-6.5-1.4-9.7c-0.8-2.5,1.6-5.7-1.3-8c0-0.5,0.3-0.9,0.6-1.2c2.4-1.5,2.5-2.5,1.1-5.4c-0.8-1.6-0.2-4.7-1.8-6.7
				c-2.1-2.7-4.7-2.2-5.9,1.1c-1,2.9-0.8,5.9-1.1,8.9c-0.2,2.1-1.2,3.8-3.2,1.8c-2.4-2.5-3.5-0.8-4.5,1.1c-0.8,1.6-1.4,3.1-2,4.8
				c-2.2-1.7-2.9-4.4-3-7c-0.2-2.7-1-5.3-2.1-7.8c-0.5-1.1-0.5-3-2-2.8c-0.9,0.2-2,1.7-2.2,2.8c-0.9,3.5-1.6,7.2-2.3,10.7
				c-0.4,2-0.8,4-2.9,1.1c-1.9-2.7-3.1-1.3-4,0.7c-1.7,3.6-2.7,3.4-4-0.3c-0.6-1.7-1.7-3.5-4.1-3.2c-2.2,0.3-2,2.9-3.1,3.7
				c-2.4,1.8,0.5,3.4-0.4,5.5c-0.8,1.8-1.9,4.4-1.8,6.3c0.2,3.3-1.3,5.3-2.7,7.7c-2.8,4.9-8,6.7-11.9,10.2
				c-8.2,7.5-16.2,15.2-24.3,22.8c-1.5,0-2.5-1.2-3.6-1.9c-5.7-3.6-7.8-2.5-8.4,4.6c0,2-0.7,3.3-2.9,3c-2.5-3.3,2.9-4.9,1.4-8.3
				c-3.7,5.4-4.9-0.8-7.2-1.8c-1.8-0.8,1-2.1,0.9-3.4c-2.5-3.3-2.8-7.2-2.6-11.2c0-1,0.3-2.7-1.1-2.8c-1.7-0.1-1.4,1.7-1.7,2.9
				c-0.7,3-0.6,6.2,0.2,9.2c-0.1,0.5,0,1.1-0.3,1.4c-2.7,2.9-3.6,5.8-1,9.4c0.8,1.1,1.8,3.9-1.6,3.9c-6-5.6-6.1-5.6-2.2-12.3
				c1.5-2.6,2.4-5-1.3-6.4c-0.8-0.3-1.3-1.1-1-1.9c0-0.1,0.1-0.3,0.2-0.4c1.8-3,1.5-5.4,0.1-8.7c-1-2.3-2.1-4.7-3.2-7
				c-0.6-1.3-1.7-3.1-0.2-3.8c4.6-2,2.4-5.8,2.6-8.9c1.1-0.1,2.6,0.3,3.2-0.3c4-4.1,8.9-6.8,13.2-10.3c4.6-3.8,8.2-8.8,13.9-11.3
				c3.2-1.4,5.8-4.1,8.8-6.1c3.2-2.2,1.7-5.9,2.8-8.8c0.2-0.6,0.4-1.2,0.4-1.9c0.2-2.5,1.2-5.8,3-5.9c2.7-0.1,2.4,3.5,3,5.7
				c1.7,6.7,2.8,7.2,9.5,4.9c4.6-1.4,9.1-3.1,13.5-5.2c1.5-0.8,4-1.2,1-3.8c-2-1.7-1.1-9.1,0.7-11.3c1.6-1.9,2.8-1,3.5,0.7
				c1,2,1.4,4.3,1.4,6.5c-0.1,1.7,0.5,3.3,2.4,1.5c7.9-8,16.8-15.5,17.2-28.4c0-1.6-0.7-4,2-4.1c2.4-0.1,2.9,2.1,3.5,3.9
				c1.3,4.2,1.1,3.8,5.4,2.9c3.7-0.8,5.9-4.6,10.1-4.4c1.7,0.1,2-2.4,0.4-3.1c-4.6-2-2.6-5.4-2-8.5c0.2-1.3,0.7-2.5,1.3-3.6
				c0.7-1.2,0.2-3.7,2.5-3.4c1.6,0.2,1.7,2,2.1,3.5c0.8,2.8,1.4,5.6,1.8,8.4c0.3,4,2.6,3.8,4.8,2.5c3.9-2.3,7.6-4.4,12.1-1.5
				c0.7,0.5,1.8,0.3,2.3-0.4c0.1-0.1,0.1-0.2,0.1-0.3c0.5-1.2-0.4-1.7-1.3-2c-4.4-1.4-4.5-4.2-2.8-8.1c1.5-3,2.4-6.3,2.8-9.7
				c0-1.3,0.9-2.5,2.2-2.9c1.6-0.4,2.3,1.3,2.6,2.3c1.3,4.7,2.5,9.4,4.8,13.8c1,1.9-1.3,2.1-2.5,2.6c-1.8,0.7-3.7,1.2-3.3,3.8
				c0.4,2.6,2.5,1.8,4.1,2c8.9,1,17.1,5.3,22.9,12c1.4,1.5,2.7,3.1,4.8,3.7c1.1,0.3,2.8,1.1,3.1,2c1.3,4.7,5,6.8,8.3,9.7
				c2.1,2.1,4.5,3.6,7.3,4.7c2.4,0.8,4.3,2.6,6.8-0.6c1.3-1.6,5.1-1,6.1,2c0.9,2.7,2.5,2.3,5.4,2.1c-3.9-1.3-3.8-4-3-6.4
				c0.8-2.1,1.5-4.2,2-6.3c0.2-1,0.7-2.3,2-2.3c1.1,0,1.7,1,1.8,1.9c0.8,4.3,3.9,8.5,0.6,13.1c5.4,1,8.8-3.6,13.4-4.7
				c1.8-0.4,3.2-2,4.9-2.7c2.7-1,4.3-3.7,3.9-6.5c-0.3-4,0.3-8.1,1.6-11.9c0.8-2.5,1.8-5,1.4-7.9c-0.2-1.1,0-2.3,1.4-2.7
				s2,0.5,2.7,1.4c1,1.3,1.9,2.9,1.3,4.4c-1.1,2.7,0.2,5.3-0.6,8.3c3.5-0.9,4.2-4,5.9-5.8c3.9-4.3,7.1-9.1,12.1-12.3
				c2.7-1.7,2-5.9-1.1-7.1c-2.9-1.1-3.5-2.5-2.4-5.4c1.2-3.5,2.2-7,3-10.6c0.4-1.5,0.8-3,2.5-2.9c1.7,0.1,3,1.5,3,3.2
				c0.4,4,1.6,7.8,3.4,11.4c1.2,2.5-0.7,4.2-2.9,4.2c-2,0.1-2.6,0.8-2.1,2.5c0.8,2.4,1.9,0.3,2.7-0.1c9.5-4.4,18.9-3.2,27.6,1.7
				c4.8,2.7,9.9,1.6,14.7,2.8c3,0.7,2.9-2.6,3.8-4.5c0.8-1.6,0.4-4.6,2.7-4.4s2.3,2.9,2.5,5.1c0.6,4.6,2.3,5.8,6.7,4
				c6.8-2.7,13.6-2.1,20.6-0.8c6.4,1.2,12.6,2.6,18.5,5.7c3.5,1.8,3.8,0.4,4.5-3.6c0.6-4,1.5-8,2.6-11.9c0.4-1.2,0.7-2.8,2.3-2.5
				c1.5,0.3,2.5,1.6,2.4,3.1c-0.8,7.1,1.3,13.8,2.3,20.6c0.2,1.3-0.1,2.8,1.4,3.1c5.7,0.9,9.9,5.8,16,6.2c3.2,0.2,4.4-0.7,4.7-3.5
				c0.3-2.4,0.8-6,2.8-5.9c2.4,0.2,2.7,3.7,2.9,6.3c0.3,5.6,4.7,8.7,10.3,6.6c7.4-2.8,14.5-6.4,21.2-10.5c1.1-0.7,2.7-1.9,1.9-2.8
				c-2.8-3-0.3-6.4,0.1-8.8c0.7-3.8,1.5-7.8,2.6-11.6c0.3-1.1,0.6-2.3,1.9-2.4c1.7-0.2,2,1.2,2.4,2.4c1.3,3.3-0.3,6.8,0.7,10.2
				c0.6,2.1,0.4,3.8,3.8,2.5c5-1.8,8.3-6.7,14-7.2c1.8-0.2,1.6-2.8-0.3-4c-0.9-0.6-2.7-0.9-2.2-2c2.1-4.9,2.3-10.5,5-15.2
				c1.3-2.2,2.7-1.2,3.3,0.6c1.8,4.6,2.8,9.4,5.3,13.7c1.6,2.7-3.3,1.6-4.6,4.6c3.4,0,6.5,0.6,9.4-0.1c7.9-1.9,13.8,1.5,19.5,6.4
				c3.4,2.9,4.4,2.4,5.5-2c0.2-0.9,0.5-1.8,0.9-2.7c0.5-0.8,1.2-1.8,1.9-1.9c1.3-0.1,1.7,1.5,1.7,2.5c0,3.3,1.4,6.2,2,9.4
				C1184.1,418.3,1185.1,419.7,1187.3,420z"/>
			<path class="st6" d="M623,553.3l-0.1,0.9H677c0-4.6-3.5-6.3-6.5-8.4c-6-5.6-6.1-5.6-2.2-12.3c1.5-2.6,2.4-5-1.3-6.4
				c-0.8-0.3-1.3-1.1-1-1.9c0-0.1,0.1-0.3,0.2-0.4c1.8-3,1.5-5.4,0.1-8.7c-1-2.3-2.1-4.7-3.2-7c-0.6-1.3-1.7-3.1-0.2-3.8
				c4.6-2,2.4-5.8,2.6-8.9c0-1.3,0.4-3.2-0.3-3.7c-4-3-1.7-6.7-1.4-10.2c0.4-3.7-2-5.8-4-8.5c-1.5-2,2.1-6.3,0-9.6
				c-0.3-0.5-1.1-0.7-1.4-1.2c-1.4-2.6-3.9-4.7-3-8.2c-0.1-0.5,0.3-1.1,0.8-1.2c0,0,0.1,0,0.1,0h-0.2c0.2-3.8,1.1-7.8-3.5-9.9
				c-1.3-0.6-1.6-2.3-1.8-4.1c-0.3-3.8-0.9-7.7-3.7-10.7c-1.7,1.5,0.1,4.3-2.2,5.1c-2.5,0.8-2.6,2.9-2.6,4.9c0.1,4.1,1.7,8.5-3.3,11
				c-0.4,0.3-0.6,0.7-0.6,1.2c1.2,4.4,0,7.6-4.3,9.3c-0.5,0.2-0.7,1.4-1,2.1c1,4.5,2.9,8.9,0.5,13.5c1.2,5.5,2.1-1.1,3.5,0.3
				l0.5,5.6c-2.1-2.9-4.6-1.3-6.3-0.4c-1.9,1.1-2.5,3.5-1.5,5.5c4,8.3,1.6,17.2,2,25.8c0,0.6,0.1,1.7-0.1,1.8
				c-5.3,2.1-2.9,8-5.4,11.5c-0.4,2.1,1.5,3.1,2,4.7c0,3.5,0,7,0,10.5c0,3.7-3.8,1.2-4.8,3.2C622.7,547.4,626.9,550.6,623,553.3z"/>
			<path class="st4" d="M835,356.4c0.7-1.2,1.3-2.6,2.9-1C837.1,356.4,836,356.3,835,356.4z"/>
			<path class="st4" d="M756.5,380.5c-0.7-1.4,0.5-0.8,1-1L756.5,380.5z"/>
			<path class="st4" d="M655.4,454.9c-0.1-0.5,0.3-1.1,0.8-1.2c0,0,0.1,0,0.1,0L655.4,454.9z"/>
			<path class="st8" d="M488.1,436.5c-10.3-3.3-19.8-8.5-29.8-12.5c-7-2.8-13.9-6.3-20.8-9.3c-4.4-1.9-8.7-4.5-13.5-5.9
				c-4.4-1.3-9.4-2.2-13.4-5.1c1-0.3,2.1-1,3.1-0.9c4.9,0.5,8.7-1.7,12-5.1c2.5-2.8,6.1-4.5,9.9-4.7c2.8-0.1,4.8-1.6,6-4.5
				c1.1-2.7,3.2-4.3,6.1-5.3c6.9-2.5,13.5-5.5,20.2-8.4c3-1.3,5.8-3.1,9.2-3.1c1.8-0.1,3.4-0.9,4.5-2.4c4.7-6.1,11.5-8.3,18.1-11
				c8.6-3.5,17.1-7.3,23.3-14.7c6.6-0.8,13.2-1.4,17.6-7.5c1.3-1.1,2.5-3,4-3.2c8.3-1.1,14.2-7.6,22-10c12.5-4,23.5-11.7,35.5-16.9
				c1,0.9,0.6,1.3-0.3,2.1c-4.1,4.3-8,8.8-12,13.3c-0.6,0.7-1.6,1.4-0.9,2.4c0.7,1,1.7,0.6,2.6,0.3c3.4-1.1,6.5-3,10.8-3.2
				c-3.9,5.5-9.7,8.1-13.5,13.7c2.7-0.2,4.5-0.4,6.1-1.4c1-0.6,2.2-1.8,3.2-0.2c0.8,1.4-0.5,2.4-1.4,3.2c-3.4,3.2-5.6,7.3-8.5,10.8
				c-0.4,0.5-0.8,1-0.1,2.2l9.2-7.3l1,0.8L583.6,364l0.8,0.9c4.8-3.7,9.8-7,14-11.4c0.9-0.9,1.6-2.5,2.9-1.4
				c1.3,1.1-0.4,1.8-0.9,2.7l-18,31.3c2.1,1,3.3-0.4,4.4-1.1c4.4-2.7,8.7-5.5,13-8.3c0.8-0.5,1.7-1.4,2.5-0.5
				c1.2,1.2-0.4,1.9-0.9,2.7c-5.7,9.5-11.5,19-17.2,28.5c-0.5,0.9-1,1.8,0,2.6c1,0.7,2.2,0.1,3-0.6c5-3.6,10.9-5.5,15.5-9.6
				c0.6-0.8,1.8-1,2.6-0.3c0.1,0.1,0.1,0.1,0.2,0.2c-2.3,2.5-4.7,4.9-7.2,7.1c-6.8,6.1-13.1,12.8-18.9,19.8c-1,1.2-2.2,2.7-1,4.3
				c1.2,1.6,2.6,0.2,3.8-0.2c6.6-1.7,13.1-4.2,19.1-7.4c1.7-1,3.8-1.3,5.6-1.9c1,1.7-0.3,2.3-1,2.9c-8.8,7.6-16.3,16.6-24.7,24.7
				c-1.1,1-1.6,2.4-1.5,3.9c-5.9-3-12.6-2.4-18.9-4.5c-8.4-2.9-17.4-4.1-25.7-7.9c-4.7-2.1-10.2-1.7-14.3-5.1
				c-2-1.7-3.6-2.1-5.8-0.8c-2,1.1-4.6,1.8-6.2,0.2c-3.3-3.2-5.9-1.3-8.1,0.8c-2.1,2.2-5.1,3.2-8,2.7
				C491,438.4,492.4,429.8,488.1,436.5z"/>
			<path class="st14" d="M602,306c-12.1,5.1-23,12.9-35.5,16.9c-7.8,2.5-13.7,8.9-22,10c-1.4,0.2-2.7,2.1-4,3.2
				c-2.2-0.4-1.8-2.2-1.9-3.8c-0.8-20.8,7-37.6,22.3-50.8c13.3-11.5,29.3-15.1,45.7-12.5c13.4,2.1,26,8.5,35.2,19.8
				c5.3,6.4,9.5,13.7,12.4,21.5c1.6,4.4,1.2,9.5,2.3,14.1c0.8,3.5,1.1,6.2-3,7.3c-0.2,0-0.3-0.1-0.4-0.2c-10.5-10-25-12.1-36.9-19.4
				c-3.4-2.1-7.7-2.3-10-6.4C605.2,304.3,603.3,304.9,602,306z"/>
			<path class="st3" d="M492.8,438.3c3,0.5,6-0.5,8-2.7c2.2-2.2,4.8-4.1,8.1-0.8c1.6,1.6,4.2,0.9,6.2-0.2c2.2-1.3,3.8-0.9,5.8,0.8
				c4.1,3.4,9.6,3,14.3,5.1c8.2,3.7,17.2,4.9,25.7,7.9c6.2,2.2,12.9,1.5,18.9,4.5c4.3,2.3,8.9,0.9,12.7-0.7c5.8-2.4,12.4-3,17.6-7
				c1.1-0.8,1.7-0.6,2.7,0.4c3.3,3.5,6.9,6.6,10.3,10.1c3,3,6.7,4.7,10.2,7c1,4.5,2.9,8.9,0.5,13.5c-1.2,0.6-0.5,5.3-3.7,1.6
				c-0.6-0.8-1.8-0.9-2.5-0.3c-0.4,0.3-0.6,0.8-0.7,1.4c-0.2,4.7-2.7,8.7-3.2,13.2c-0.6,5-2.7,6.5-7,4c-1.8-1-3.4-2.4-5.3-3
				c-2.4-0.8-3.3-2.2-4-4.7c-0.8-3-0.6-6.7-3.7-9.2c-0.9,2-2.2,3.7-2.3,5.5c-0.3,3.4-1.9,3-4.1,2.2c-3.9-1.4-7.8-2.9-11.8-4
				c-5.8-1.5-11.1-4.3-16.8-6.3c-0.9-0.3-1.9-0.8-1.8-1.9c0-1.2,1.1-1.3,2-1.5c1.9-0.5,4.1-1.4,3-3.8c-1.9-4.2-3.1-8.6-4.6-12.9
				c-0.4-1-0.8-2.3-2.1-2.3c-1.5,0.1-1.9,1.5-2.2,2.8c-1.1,3.7-1.7,7.6-3.2,11c-1,2.3-1,4,1.1,6.2c-5.2,0-9.6,0-13.9,0
				c-0.8,0-1.7,0.2-2.3-1c-2.4-4.5-5.2-4.9-8.4-1.3c-0.8,0.9-1.1,2.1-2.6,2.4c-4.1,0.7-8.4,0.2-12.3-1.4c-3.2-1.3-2.3-4.5-2.5-7.2
				c-0.1-1.5-1-2.8-2.4-3.3c-1.5-0.5-2.2,1.3-2.6,2.3c-1.5,4-3.4,2.3-5,0.3c-5-5.9-9.9-11.9-16-16.6c-0.5-0.4-1.6-0.1-0.5-1.4
				C494.8,444.3,493.7,441.3,492.8,438.3z"/>
			<path class="st8" d="M971.5,346.7l0.9,0.2l-0.3,0.5L971.5,346.7L971.5,346.7z"/>
			<path class="st8" d="M1056.1,384.1c-0.1,0.2-0.2,0.6-0.3,0.7c-0.3,0-0.5-0.1-0.6-0.3c-0.1-0.2,0.2-0.5,0.3-0.7L1056.1,384.1z"/>
			<path class="st4" d="M132.9,388.3c-2,2-4.7,3.1-7.5,2.9C127.1,387.8,130.2,388.7,132.9,388.3z"/>
			<path class="st4" d="M397.4,331.2l-0.2,0.3L397.4,331.2L397.4,331.2z"/>
			<path class="st4" d="M885.5,329.3c-1-0.2-1.9-0.5-1.6-1.8c0.1-0.2,0.4-0.6,0.6-0.5C885.8,327.3,885.3,328.5,885.5,329.3
				L885.5,329.3z"/>
			<path class="st4" d="M935.9,338c-0.6-0.1-1.3-0.1-1.5-0.9c0-0.1,0.2-0.3,0.2-0.4L935.9,338L935.9,338z"/>
			<path class="st10" d="M713.6,554.1H744c0.1-0.2,0.3-0.3,0.4-0.5c4.8-5.8,8.3-12.8,15-16.8c4.5-2.7,6.7-2,9.7,2.5
				c1.2,1.9,1.2,3.8,1.4,5.9c0.2,3,0.1,5.9-0.4,8.9h33.6c-0.2-0.5-0.1-1,0.4-1.4c0.9-0.8,2.1-0.8,3,0c0.5,0.4,0.9,0.9,1.4,1.4h3.3
				c-0.7-3.9-4-8,1-11.4c0.1,0,0-0.3,0-0.5c-0.2-4.5,1.3-8.9,0.6-13.3c-7.3-2.8-12.3-8.4-17.7-13.9c-3.1-3.2-2.8-8.3-6.8-10.4
				c-0.2-0.3-0.3-0.6-0.2-0.9c4.1-4-0.4-6.5-1.4-9.7c-0.8-2.5,1.6-5.7-1.3-8c0-0.5,0.3-0.9,0.6-1.2c2.4-1.5,2.5-2.5,1.1-5.4
				c-0.8-1.6-0.2-4.7-1.8-6.7c-2.1-2.7-4.7-2.2-5.9,1.1c-1,2.9-0.8,5.9-1.1,8.9c-0.2,2.1-1.2,3.8-3.2,1.8c-2.4-2.5-3.5-0.8-4.5,1.1
				c-0.8,1.6-1.4,3.1-2,4.8c-2.2-1.7-2.9-4.4-3-7c-0.2-2.7-1-5.3-2.1-7.8c-0.5-1.1-0.5-3-2-2.8c-0.9,0.2-2,1.7-2.2,2.8
				c-0.9,3.5-1.6,7.2-2.3,10.7c-0.4,2-0.8,4-2.9,1.1c-1.9-2.7-3.1-1.3-4,0.7c-1.7,3.6-2.7,3.4-4-0.3c-0.6-1.7-1.7-3.5-4.1-3.2
				c-2.2,0.3-2,2.9-3.1,3.7c-2.4,1.8,0.5,3.4-0.4,5.5c-0.8,1.8-1.9,4.4-1.8,6.3c0.2,3.3-1.3,5.3-2.7,7.7c-2.8,4.9-8,6.7-11.9,10.2
				c-8.3,7.5-16.3,15.2-24.4,22.8C702.8,546,707.9,550.4,713.6,554.1z"/>
			<path class="st6" d="M573.9,546.4c3.1-0.3,5.8,2.6,9.1,0.5c-2.5,3.4-5.1,6.5-8.8,7.3h10.4l0,0l0,0h22.2l0,0h-4.4
				c-3.2-0.1-6.3-1.3-8.7-3.5l-1-0.6c0.1-0.1,0.2-0.3,0.3-0.3c0.3,0.2,0.7,0.4,1,0.6c2.6-0.5,4.3,1.8,6.6,2.2
				c3.1-2.1-0.5-1.8-0.9-2.1c-2.7-1.9-0.5-1.8,0.7-2.1c2-2.8,4.3-2.4,6.5-0.4c0.9,0.8,1.4,1.9,2.5,0.7c0.9-0.9,1.4-2.1,1.5-3.4
				c0-1-1.5-0.7-2.3-0.8c-3.5-0.3-3.5-0.3-3.6-4c-5.6-1.9-5.9-2.5-1.9-6.4c1.5-1.4,1.8-2.7,1.1-4.1c-1.2-2.2-2.2-0.3-3.2,0.4
				c-0.5,0.4-1.1,0.6-1.6-0.1c-0.5-0.7-0.4-1.6,0.2-2.1c1.6-1.8,1.5-3-1.1-2.6c-2.6,0.4-1.7-1.4-1.5-2.3c0.4-2.4-1-3.9-2.1-5.6
				c-1.7,2.5-5.5-3.7-6.6,1.7c0,0.2-1,0.5-1.1,0.4c-2.2-3.1-4.8,2.7-7-0.3c-1.3,2.5-3.5,4.8-3.7,7.4c-0.2,2.1-2,6.1,2.7,7
				c1.3,0.3,1.5,3.2,0,3.4c-3.7,0.5-5.2,4.1-8.3,5.2C570.3,543.9,572.1,546.5,573.9,546.4z"/>
			<path class="st5" d="M569.9,554.1l-0.3-0.1l0.2-0.5l0.5,0.5h3.9c3.8-0.9,6.3-3.9,8.8-7.3c-3.2,2.1-6-0.9-9.1-0.5
				c-1.8,0.2-3.6-2.4-3.4-3.9c-2.1-4.2-3.2,1.1-4.9,0.6c0.3,0.6,0.6,1.1,1,1.6c2.4,2.8,3.2,4.9-1.4,6.4c-5.9,1.9-11.8,3.5-17.9,2.1
				c-2.2-0.5-4.6-0.4-6.7,0.3c0.1,0.3,0.2,0.6,0.2,0.9L569.9,554.1z"/>
			<path class="st11" d="M606.7,554.1L606.7,554.1h11.6c-0.6-1.4-0.8-3.3-0.7-6.5c1.3,3,1.3,6.8,5.4,5.6c3.9-2.7-0.3-5.9,0.6-8.8
				c-1.4,1.3,0,3.5-1.8,5c-1.5-3.1-4.5-5-4.8-8.7c0-0.6-0.5-1,0-1.7c2.2-2.9,2.2-2.9,1.5-6.1c3.8,1.2,6.4-2.5,10-2.2
				c-0.5-1.7-2.4-2.7-2-4.7c-1.3,2-2.4,6.2-4.1,0.2c-0.2-0.7-1.6-0.9-2.2-1.6c-1.1-1.1-1.9-2.5,0.2-3.3c4.2-1.6,2.1-3.7,0.5-5.7
				c-0.6-0.7-2-1.4-1.7-2.1c2.1-3.9,0.3-6.6-1.9-9.6c-0.9-1.2-0.1-4.4-2.2-4c-2.4,0.2-4.5,1.5-5.9,3.4c-1.4,2.1-1.5,4-0.5,5.8
				c1.5,2.7,0.5,5-1.4,6.1c-3.2,1.8-1.4,3.2,0,4.1c2.6,1.8,3.4,3.3,0.1,5c-2,1-1.3,2,0.2,2.4c1.7,0.4,3.1,0,0.7,2.2
				c-1.4,1.6-1.9,3.7-1.3,5.8c1,2.9-0.7,4.2-2.2,5.8c0,3.7,0,3.7,3.6,4c0.9,0.1,2.3-0.2,2.3,0.8c-0.1,1.2-0.6,2.4-1.5,3.2
				c-1,1.2-1.6,0.1-2.5-0.7c-2.2-2-4.5-2.4-6.5,0.4C605,547.6,608.1,550.4,606.7,554.1z"/>
			<path class="st5" d="M678.1,554.1h8.2c0-1,0.7-1.8,1.7-1.8c0,0,0,0,0.1,0c0.4-3-0.2-6-1.7-8.7c0,2-0.7,3.3-2.9,3
				c-0.4,1.1-2.7,0.8-2.1,2.1C683.4,553.3,680.9,553.7,678.1,554.1z"/>
			<path class="st13" d="M626.4,526.1c-1.3,2-2.4,6.2-4.1,0.2c-0.2-0.7-1.6-0.9-2.2-1.6c-1.1-1.1-1.9-2.5,0.2-3.3
				c4.2-1.6,2.1-3.7,0.5-5.7c-0.6-0.7-2-1.4-1.7-2.1c2.1-3.9,0.3-6.6-1.9-9.6c-0.9-1.2-0.1-4.4-2.2-4c-2.4,0.2-4.5,1.5-5.9,3.4
				c-1.4,2.1-1.5,4-0.5,5.8c1.5,2.7,0.5,5-1.4,6.1c-3.2,1.8-1.4,3.2,0,4.1c2.6,1.8,3.4,3.3,0.1,5c-2,1-1.3,2,0.2,2.4
				c1.7,0.4,3.1,0,0.7,2.2c-1.4,1.6-1.9,3.7-1.3,5.8c1,2.9-0.7,4.2-2.2,5.8c-5.6-1.9-5.9-2.5-1.9-6.4c1.5-1.4,1.8-2.7,1.1-4.1
				c-1.2-2.2-2.2-0.3-3.2,0.4c-0.5,0.4-1.1,0.6-1.6-0.1c-0.5-0.7-0.4-1.6,0.2-2.1c1.6-1.8,1.5-3-1.1-2.6s-1.7-1.4-1.5-2.3
				c0.4-2.4-1-3.9-2.1-5.6c-1.7,2.5-5.5-3.7-6.6,1.7c0,0.2-1,0.5-1.1,0.4c-2.2-3.1-4.8,2.7-7-0.3c-1.3,2.5-3.5,4.8-3.7,7.4
				c-0.2,2.1-2,6.1,2.7,7c1.3,0.3,1.5,3.2,0,3.4c-3.7,0.5-5.2,4.1-8.3,5.2c-2.1-4.2-3.2,1.1-4.9,0.6c-1.8-1.6-3.8-2.7-6.3-2.3
				c-4.2,0.7-4.6-4-7.2-5.8s-5.2-3.2-7.5-5.3c-1.1-1-3.1-0.7-4.4,0.1c-2,1.2,0.1,3.2-0.5,5c-2.6-0.4-2.9-4.9-6.6-3.4
				c2.3-2.8,4.6-4.4,7.5-3.8c3.4,0.7,6.7-1.2,10,0.3c1,0.5,1.6-0.3,1.9-1.4c0.8-2.5,1.5-4.9-0.2-7.3c-2.3-3.2-6.8-1.5-9-3.8
				c-3.2-3.4-5.7-1.6-8.6-0.3c-2.4,1-4.9,2.7-7.5,0.8c-1-0.7-2.9-1.5-2.4-3.2c0.4-1.3,2.2-1.6,3.2-1.4c3.5,0.6,5.9-1.5,8.7-2.9
				c1.1-0.3,1.8-1.4,1.8-2.5c-0.1-1.5-1.1-1.7-2.2-2c-2.8-0.8-4.7-3.4-8-3.5c-2.8-0.1,2.3-3.1-1-4.2c-1.6-0.5-4.5,0.6-4.5-0.9
				c0.1-5.9-6.2-5.2-8-9c-0.7-1-2-1.2-2.9-0.5c0,0,0,0-0.1,0c-2.8,2.8-7.2,3.9-8.3,8.7c-3.9-2.2-7.2-3.2-11.7,0.2
				c-4.5,3.4-2.7,4.4,0.9,6.5c-2.5,1.1-3.9,3-6.3,3.4c-1.2,0.1-2.1,1-2.1,2.2c0,1.2,0.8,2.3,2,2.6c2,0.8,3.8,2.2,6,2.5
				c1.8,0.2,1.7,1.8,1.1,3c-0.4,0.7-1.3,1-2,0.6c-0.3-0.2-0.6-0.4-0.7-0.7c-1.5-3-4.9-2.5-7-4.4c-0.3-0.3-0.8-0.5-1.3-0.4
				c-4.4,1.5-9.6,1.8-12.8,5.5c-2.2,2.5-4.1,5.1-7,6.9c-2.3,1.4-4.5,3.3-0.2,5.1c1,0.4,1,1.1,0.9,1.9c-0.3,3,1.9,3,3.8,3.8
				c3.8,1.5,7.8,1.4,11.7,1.8c1.1,0.1,2.8-0.5,3.3,1.1c0.7,2-1.9,1.9-2.4,3c-1.6,3.7-4.6,2.9-7.4,2.7c-7-2.5-13.1-6.3-17.5-12.6
				c-0.7-0.9-1.4-1.7-2.1-2.5c-4.2-4.6-8.6-8.9-15.2-8.9c-4.6-0.1-9.3-0.7-13.8-1.6c-1.4-0.2-3.3,1.4-3.8-0.1c-1.3-4-6.4-6.4-3.9-12
				c0.7-1.5,0-4.9-2.1-7.5c-1.4,6.7-2.2,12.8-0.7,19l-1.5-0.1c-8-1.4-16.1-0.3-24.1-0.6c-2.2-0.1-4,0.1-5.7-2.6
				c-2.8-4.5-9.4-3.1-10.9,2c-0.6,2.2-2.3,2-3.6,2.2c-12.7,2.3-25.4,3.8-38.3,3.2c-4.5-0.2-8.6-2.2-12.8-3.8c1-0.3,2.2,0.1,2.9-1.8
				c-5.1,1.4-6.8-5.6-11.6-4.2c-1.1-2.1,1.9-1.5,1.6-2.9l-3.3-1.6l0.3-0.3c1.5-0.4,3.9,1,4.5-1.1c0.5-2.1-1.5-3.4-3.4-4.7
				c3.7,0.6,7.5,0.5,11.3-0.2c0.8-0.1,1.7-0.2,1.8-1.1c0.2-1.1-1.2-1-1.4-1.4c-1.8-4.3-7.4-3.2-9.5-7.1c0.3-0.2,0.5-0.5,0.7-0.6
				c2.3-0.2,5.9,1,6.4-1.4c0.4-2.3-3.3-3.1-5.5-4.1l-1.2-0.5c-0.9-1.9,6.8-3.9-0.1-5.6l-0.1-0.1c-1.4-1.9-3.6-3.1-4.2-5.7
				c-0.5-2.3-2.5-0.3-2.9-0.3c-3.7,0.4-7.8-0.4-10.9,2.6c-2.8,2.7-2.1,5.2,1.3,7.6c-3.2,0.8-4.8,4-8.3,3.8c1.6,1,2.6,3.3,5,2.2
				c1.9-0.9,2.8,1,3.1,1.9c0.4,1.5-1.4,1.8-2.4,2.2c-1.5,0.4-2.9,0.6-4.4,0.8c0.7,3.4,3.3,1.8,5,2.4l0.1,0.1
				c-2.2,1.2-4.2,3.1-3.6,5.7c1,4.6-1.9,4.7-4.7,4.8c-2,0.1-3.9-0.4-6-0.2c4.5,2.8,9.5,4.2,15.1,5.8c-3.4,1.7-6.6,0.9-9.7,0.7
				c0.4,2.6,2.2,2.2,3.6,2.5c1.1,0.2,3.1-0.8,3,1.1c-0.1,1.9-1.9,2.6-3.6,2.3c-1.6-0.3-3.2-2.8-3.1,1.5c0,1.6-3.3,0.2-5,0.9
				c-8.2,0.9-16.3,1.8-24.4-0.2c-1.8-0.5-3.5-1.2-5.2-2c-1.3-0.5-2.5-2.1-1.9-2.9c2.5-3.7-2-6.5-1.4-8.1c1.4-4.2-5.1-8.8,1-12.5
				c1.4-0.9-2.8-11.2-4.7-11.8c-2.3-0.7-5.7,2.6-5.5,6s1.1,6.5-2.2,8.7c-0.1,0.1-0.2,0.3-0.1,0.4c2.4,3.8,0.3,6.6-1.7,9.7
				c-0.5,0.7,1.4,0.7,2.2,0.9l0,0c0.2,2.9-1.9,4.1-4,4.5c-2.1,0.4-3.7-1.2-5-2.9c-2.2-3-3-6.6-4.3-10c-3-8.1-9.1-12.5-16.5-15.7
				c-7.2-3.2-7.1-3.4-5.4-11.1c-1.5-0.7-3.5,1.6-4.6-0.6c-0.9-1.8,0.1-3.4,0.8-5.3c1.5-4.1,4.2-5.7,7.9-6.3c1.5-0.1,2.8-0.9,3.4-2.2
				c-3-2.3-6.8-0.9-9.8-2.5c2.3-1.1,6.8-1.1,2.2-5.4c-0.9-0.8,2.4-12.4,3.4-13.2s1.8-0.3,2.2,0.7c0.5,1.2,1,2.4,1.3,3.6
				c1.9,7.2,1.8,7.2,9,3.9c-4.1-3.4-4.6-7.6-2.4-12.9c1-2.4,2.3-4.9,1.8-7.9c-0.3-1.6,0-3.9,2.1-4.3c2.3-0.5,1.8,2.1,2.6,3.3
				c2.1,3-0.7,6.1,0.3,9.4c0.7,2.4,0.7,5.3,3.6,5.1s5.8-1.8,5.6-5.8c-0.3-3.2,0.7-6.4,2.7-8.9c1.7,0.5,2,2.3,2.5,3.7
				c1.5,3.7,3.5,4.1,6,0.9c1.9-2.6,2.9-5.8,2.9-9c0.1-1.4,0.7-2.6,2.1-2.7c1.2-0.1,2.2,0.7,2.4,1.9c1.1,4.2,3.3,4.5,6.4,2.1
				c1.1-0.8,2.6-1.1,3.8-1.8c4.7-2.9,4.9-3.8,0.3-6.3c-5.2-2.8-0.8-6.1-0.5-8.9c0.3-2.5,2.1-4.9,2.3-7.7c0-1.2,0.9-2.2,2.2-2.3
				c1.5-0.2,2.1,0.9,2.6,2.2c1.1,2.7,1.1,5.6,2.2,8.3c1.5,3.5,3.2,6.5,7.1,7.5c1.7,0.4,2.2,1.8,3,3.2c1,1.9,1.8,5.2,5.6,2.5
				c2.7-2,3.3,1.4,3.4,3.3c0.3,4.9,2.4,9.6,5.9,13.1c2.5,2.4,4.8,4.5,6.2-0.9c0.3-1.1,1.4-2,2.1-3.2c1.8,1.7,2.3,3.6,2.7,5.6
				c1.2,5,9.8,10.3,14.7,9.3c1.9-0.4,2-1.7,2-3.2c0-2.3,0-4.5,0.2-6.7c0.1-1.3,1.1-2.4,2.3-2.8c1.4-0.4,2.2,1,2.8,2.1
				c2.2,4,1.6,8.4-2.5,12.3c6.7-1.1,11.5,2.6,16.9,3.9c2,0.5,3.3-0.5,4.3-2.2c0.6-1.1,0.7-2.6-0.4-3c-6.7-2.2-3.5-7.1-2.6-11
				c0.5-2.1,1.6-4.1,1.7-6.4c0-1.5,1.1-2.8,2.6-2.9c1.5-0.1,2,1.5,2.4,2.6c1.5,4.2,2.3,8.6,4.5,12.6c1.3,2.3-1.5,2.6-2.8,3.4
				c-1,0.6-2.8-0.1-2.8,1.8c0,1.4,1.4,1.6,2.3,2.1c4.7,2.7,9.9,4.7,13.4,9.3c1.5,2,2.7,0.8,3.5-0.8c1.9-3.5,3.3-1.6,4.3,0.6
				c0.7,1.3,1,2.7,1.1,4.1c0.1,7.9,6.4,9.8,11.4,13c2.2,1.4,3.8,0.8,4.1-2.2c0.1-1.4,0.6-2.8,0.7-4.3c0.2-1.8,0-4.1,2.3-3.9
				c2.1,0.1,2.2,2.4,2.4,4.1c0,0.5-0.1,1,0,1.4c0.4,2.5-0.7,6.6,1.5,7.1c2.6,0.7,5.8-1.2,8.3-3.4c4.2-3.6,7.1-8.3,9.5-13.2
				c1.8-3.5,4.6-6.8,7.5-7.4c5.7-1.1,5.8-5.6,7.5-9.3c0.2-0.6,0.3-1.3,0.2-1.9c0.2-2.6,1.1-6,3.3-5.9c2.2,0.1,2.3,3.7,2.3,6.1
				c0.1,1.6,0.6,3.2,1.3,4.6c0.6,1.3,0.6,2.7-0.7,3.4c-3.6,1.8-2.2,2.3,0.5,3.5c4.6,2,8.9,4.6,12.8,7.7c4.7,3.6,9.7,6.7,15,9.2
				c2.6,1.3,5,0.2,4.6-3.7c-0.2-1.9-0.5-4.3,2.1-4.5c2.6-0.2,3,1.9,3.2,4.3c0.2,1.6-0.9,4.1,0.7,4.8c2.3,1,2.7-2.1,3.9-3.3
				c5.4-5.2,6.5-13.6,13-17.9c1.2-0.8,0.6-2.4,0.7-3.6c0.2-2.9-0.5-5.8,1-8.5c4.3-6.7,2.9,1.9,4.7,1.9c0.9,2.9,1.9,5.9-0.3,8.5
				c-1.1,1.3,0,1,0.5,1.4c6.1,4.8,11,10.7,16,16.6c1.6,2,3.5,3.7,5-0.3c0.4-1,1.1-2.8,2.6-2.3c1.4,0.5,2.3,1.8,2.4,3.3
				c0.2,2.6-0.7,5.8,2.5,7.2c3.9,1.6,8.1,2.1,12.3,1.4c1.5-0.3,1.8-1.5,2.6-2.4c3.2-3.7,6-3.3,8.4,1.3c0.6,1.2,1.5,1,2.3,1
				c4.3,0.1,8.7,0,13.9,0c-2.2-2.2-2.1-3.9-1.1-6.2c1.5-3.5,2.1-7.3,3.2-11c0.4-1.2,0.7-2.7,2.2-2.8c1.3-0.1,1.8,1.3,2.1,2.3
				c1.5,4.3,2.7,8.7,4.6,12.9c1.1,2.4-1.1,3.3-3,3.8c-0.9,0.2-2,0.3-2,1.5c0,1.3,1,1.6,1.8,1.9c5.6,2,10.9,4.8,16.8,6.3
				c4,1,7.9,2.5,11.8,4c2.2,0.8,3.8,1.2,4.1-2.2c0.2-1.8,1.4-3.4,2.3-5.5c3.1,2.5,2.9,6.1,3.7,9.2c0.6,2.5,1.5,3.9,4,4.7
				c1.9,0.6,3.5,2,5.3,3c4.3,2.5,6.4,1,7-4c0.6-4.5,3-8.5,3.2-13.2c0-1,0.9-1.8,1.9-1.8c0.5,0,1,0.3,1.4,0.7c3.2,3.7,2.5-1,3.7-1.6
				c1.2,5.5,2.1-1.1,3.5,0.3l0.5,5.6c-2.1-2.9-4.6-1.3-6.3-0.4c-1.9,1.1-2.5,3.5-1.5,5.5c4,8.3,1.6,17.2,2,25.8
				c0,0.6,0.1,1.7-0.1,1.8C626.5,516.8,628.9,522.7,626.4,526.1z"/>
			<path class="st11" d="M80.5,466.2c1.4-3.9-2-5.3-3.7-7.6c2-3.5,4.5,0.6,6.8-0.5c0.7-0.3,1.5,1.1,1.1,2.1
				C84,462.8,84.2,466,80.5,466.2z"/>
			<path class="st5" d="M271.2,551.3c1,0.1,2.1-0.1,2.8,1C273,552.3,271.9,552.4,271.2,551.3z"/>
			<path class="st13" d="M232.9,507.9l1-0.7l0.2,0.4L232.9,507.9L232.9,507.9z"/>
			<path class="st5" d="M417.5,517.7c2.2,3.7,4.9,4.9,9.2,2.9c-3.2,3.4-2.3,8-4.9,11.1c1.6,0.9,2.7-1.6,4.3-0.5
				c-1.4,3-2.3,6.4-6.4,6.7c-1.1,0.1-2.5,0.6-2,2c0.5,1.5,1.8,0.8,2.8,0.4c4.1-1.5,7.6-4.2,10.1-7.7c-0.1,3.7-1.9,5.6-3.1,7.7
				c-0.5,0.8-1.6,2.7-0.3,2.7c2.6-0.1,4,4.2,7,1.7c0.5-0.4,2,0,2.5,0.5c0.8,0.9-0.4,1.6-0.8,2.4c-1.4,2.6-2.5,5.2-5.9,6
				c-0.4,0.1-0.7,0.3-1,0.5h7.7c0.4-0.3,0.7-0.6,1.2-0.9l-0.1,0.9h24.9c-1.7-1.2-3.1-2.5-3.1-3.2c0.3-3.7,3.6-4.6,6.1-5.7
				c2.3-0.9,4.5-2.1,6.4-3.7c-7-2.5-13.1-6.3-17.5-12.6c-0.7-0.9-1.4-1.7-2.1-2.5c-4.2-4.6-8.6-8.9-15.2-8.9
				c-4.6-0.1-9.3-0.7-13.8-1.6c-1.4-0.2-3.3,1.4-3.8-0.1c-1.3-4-6.4-6.4-3.9-12c0.7-1.5,0-4.9-2.1-7.5c-1.4,6.7-2.2,12.8-0.7,19
				C414.9,515.3,416.6,516.2,417.5,517.7z"/>
			<path class="st5" d="M540.5,553.3c-3-0.3-6.1-0.7-9.2-1c-1.3-0.1-2.1-0.8-1.9-2.2c0.2-2.1,1.7-3.4,3.4-4.2
				c0.8-0.4,2.5-0.5,2.4,0.4c-0.5,3.2,2.2,2.8,3.6,3.5C540.5,550.6,541,551.5,540.5,553.3L540.5,553.3z"/>
			<path class="st5" d="M396.5,541.7c4.3,0,8.2,0.7,11.5,6.1C402.9,546.3,398.2,547.4,396.5,541.7L396.5,541.7z"/>
			<path class="st5" d="M481.3,542.5c5.7-0.7,8,3.9,11.7,5.5c0.6,0.3,0.8,1,0.5,1.5c-0.1,0.2-0.3,0.4-0.5,0.5
				c-1,0.8-2.4,0.6-3.2-0.3c-0.1-0.1-0.1-0.1-0.1-0.2C487.8,546.4,484.8,544.9,481.3,542.5z"/>
			<path class="st13" d="M508.1,529.8c0.3-0.5-0.7-2.1,0.8-1.3c2.5,1.3,1.6,3.9,2,6.7l-5.9-3l2.5-1.8c0.3,0.3,0.7,0.7,1,0.1
				C508.6,530.3,508.2,530,508.1,529.8z"/>
			<path class="st10" d="M77.7,480c0.9-1.5,1.8-3,2.8-0.1L77.7,480z"/>
			<path class="st10" d="M283.2,523.9l0.1-0.3c0.1,0,0.2,0.1,0.3,0.1c0,0-0.1,0.2-0.1,0.3L283.2,523.9z"/>
			<path class="st13" d="M309.6,477.1c-0.3,0.2-0.6,0.5-1,0.7c-0.1-0.1-0.2-0.2-0.3-0.3l1.1-0.5L309.6,477.1z"/>
			<path class="st13" d="M290.8,494.4l1-0.6l0.2,0.3l-1.1,0.4L290.8,494.4z"/>
			<path class="st13" d="M305.7,505.1l-0.3-0.6l0.7,0.3L305.7,505.1z"/>
			<path class="st13" d="M59.8,453.8c-1.2,2.6-3.4,1.9-5.5,1.9c-1.5-1-2.7-2.4-4.7-1.9l0,0c0.3-0.7,0.5-2,1.2-1.7
				C53.8,453.5,56.9,453,59.8,453.8z"/>
			<path class="st3" d="M61.1,443c0.2,0.2,0.5,0.6,0.4,0.6c-0.3,0.5-0.7,0.3-1-0.1L61.1,443z"/>
			<path class="st11" d="M49.6,453.8c2-0.5,3.3,0.9,4.7,1.9c0,0.6,0,1.2,0,1.7c-1.7-0.3-3.2-1.3-5-1.6C47,455.5,50,454.6,49.6,453.8
				z"/>
			<path class="st10" d="M911.2,529.6c0.2,0.1,0.4,0.4,0.7,0.8c-1.5,2.8-7.8,2.2-5.5,7.6c1.2,2.9,1.8,6.8,6.2,6.6
				c1.9-0.9,4.2,0.3,6-2.1c1.1-1.5,2.1,0.7,2.5,2.1c1.1-0.4,0.7-2.7,2-2.2c0.9,0.4,1.2,2,1.8,3.2c0.1,0.6,0.1,1.3,0.2,1.9
				c1.4,2.9,4.9,3.7,6.2,6.7h1.9c0.7,0,1.5,0,2.2,0h94.6c4.7-2.2,9-5.6,14.5-5.7c-2.5-3.6-5.1-6.2-8.8-1.1c-0.7,0.9-1.9,1.5-2.8,0.5
				c-1-1-1.8-2.1-1.8-3.1c0-1.5,1.6-1,2.6-1.1c3.1-0.5,2.8-2.9,2.3-4.9c-0.7-2.6,1.1-1.5,2-1.9l0,0c0.1-2.6,2.9-1.3,3.9-2.9
				c-0.4-1.8-3.9-0.5-3.2-2.9c0.4-1.7,2.5-0.5,4-1.4c-2.8-1.1-5.4-2.7-7.7-4.8c7.5-1.4,8.9-4.7,5.6-12.4c1-1.7,4.3,0.7,4.3-2.3
				c0-2.6-2.7-2-4.4-2.8c-0.1-2,1.9-2.3,2.7-3.5c0.6-0.8,1.3-1,0.9-2.6c-1.3-5.1,0.5-7.9,5.6-8.8c2-0.4,2.7-0.6,2.8-3.1
				c0.1-4,2.4-7,6-8.7l0,0c0.2-1.8,1.5-1.9,2.8-1.9c3.1-6.8,3.3-14.8,7.6-21.2c-6.8-0.7-12.8-2.5-18.8-6.7
				c-8-5.7-14.9-13.8-25.4-15.1c-2.3-0.3-4.5-0.6-6.9-0.9c1.8-2.8,0-11.9-2.6-13.4c-1.9-1.1-4.9-1.1-4.7,1.3c0.1,1.9-2,3.1-0.6,5.7
				c0.9,1.6,0,6.4-4.6,7.4c-5.6,1.3-11,3.7-15.7,7c-0.8,0.5-1.8,0.8-1.6,2c0.2,1,1.1,1,1.8,1.2c4.6,1.3,8.1,4.3,8.6,9.1
				c0.5,4.5-3.1,6.8-6.9,8.6c-3,1.4-2.3,4.8-2.5,7.3c-0.2,3,2.5,1.4,3.8,1.8c4.1,1.1,1,4.4,2,6.5c0.9,1.7,0.2,3.8-1.5,4.6
				c-0.3,0.1-0.6,0.2-0.9,0.3c-7,2-13.9,4.2-21.1,5.1c-2.2,0.2-4.3,0.8-6.2,1.9c-6.2,3.6-11.2,8.9-17.3,12.8
				c-7.7,5-14.8,11.3-24.6,10.9c-3.5-0.1-7.2,2.5-10.5-0.6c-0.2,1.3-1,2.2-2.1,2.1c-4-0.4-3.6,4.4-6.3,5.5
				C905.7,525.5,907.4,528.5,911.2,529.6z"/>
			<path class="st2" d="M1045.3,554.1v-5.7h-1c-5.4,0.1-9.8,3.5-14.5,5.7L1045.3,554.1z"/>
			<path class="st2" d="M926.4,554.1h4.8c-1.3-3-4.9-3.8-6.2-6.7c-1.5,1.1-1.8,3.2-0.7,4.7c0,0,0,0,0,0
				C924.9,552.9,925.6,553.6,926.4,554.1z"/>
			<path class="st5" d="M820.3,549.4c3.2,2.6,3.7,3.2,1.3,4.7h31c-0.2-0.5-0.5-1-0.9-1.4c-4.4-2.8-1.3-4.6,0.4-6.6
				c3.7-4.3,5.2-9,2.4-14.3c-1.4-2.7-0.5-4.1,2-5.2c0.9-0.4,3-0.4,2.5-1.1c-1.7-2.5,0.7-6-2-8.1c-4.6,3.7-10.4,4.6-15.4,7.3
				c-4.3,2.4-9.2,2.9-13.5,5.6c-3.7,2.3-8.4,0.2-12.7-0.4c0,2.6-0.4,5.2,0,7.7C816,542,816.7,546.5,820.3,549.4z"/>
			<path class="st11" d="M887.8,535.8c-1.3,5.4,0.8,8.3,3.4,11.7c4.2,0.2,2.4,3.5,2.7,5.7c0,0.3,0,0.7,0,1h11.3
				c-0.2-4.2-0.9-8.8,5.8-7.7c1,0.2,1.5-0.8,1.7-1.8c-4.5,0.3-5-3.7-6.2-6.6c-2.3-5.4,4.1-4.8,5.5-7.6c-0.3-0.4-0.5-0.8-0.7-0.8
				c-3.7-1-5.4-4-6.9-7.3c2.7-1.1,2.2-5.9,6.3-5.5c1.1,0.1,2-0.8,2.1-2.1c-1.9-1.7-2.7-4.7-5.8-5c-0.8-0.2-1.3-1.1-1.1-1.9
				c0.3-1.1,1.3-0.4,1.9-0.5c1-0.2,2.3-0.6,2.7-1.3c0.7-1.3-0.8-2.1-1.6-2.5c-2.3-1.2-3.8-2.3-1.3-4.8c0.4-0.5,0.2-1.3-0.3-1.6
				c-0.2-0.1-0.3-0.2-0.5-0.2c-2.1-0.2-2.4-2.2-3.2-3.4c-1.5-2.3-6.4-3.8-8.9-1.8c-1.9,1.6-3.9,4.3-1.9,7c1.6,2.1,0.6,2.6-1,3.4
				c-1,0.5-2,1.2-3.1,1.7c0.9,1.8,2.7,1.7,3.5,2.5c3,3.1,0.5,3.4-2,3.6c-0.2,2.6,1,5.1,0,7.8c-0.5,1.3,0.4,3.3-1.9,3.7
				c-1.9,0.4-2.9-0.7-3.6-2.2c-0.3-0.9-1.2-1.5-2.2-1.5c0.4,2.1-0.5,4.2,1.5,6.2C887.1,527,888.5,531.4,887.8,535.8z"/>
			<path class="st2" d="M891,552.6c-0.4,0.5-0.7,1-0.9,1.6h3.6c0-0.3,0-0.7,0-1c-0.3-2.2,1.6-5.5-2.7-5.7
				C889,549.1,892.7,550.5,891,552.6z"/>
			<path class="st5" d="M890.2,509.8c-0.2,2.6,1,5.1,0,7.8c-0.5,1.3,0.4,3.3-1.9,3.7c-1.9,0.4-2.9-0.7-3.6-2.2
				c-0.3-0.9-1.2-1.5-2.2-1.5c-2.4-0.7-4.2-2.1-3.5-5c0.6-2.4-0.7-3.4-2.1-4.6C881.9,505.1,886.3,505,890.2,509.8z"/>
			<path class="st11" d="M865.6,509.7c0.1-1.4,0.1-2.8,0.2-4.2c0.1-2.5,1.3-3.3,3.6-2.6C869.3,505.8,868.6,508.4,865.6,509.7z"/>
			<path class="st2" d="M921,544.6c1.1-0.4,0.7-2.7,2-2.2c0.9,0.4,1.2,2,1.8,3.2c-0.8,0.3-1.7,0.6-2.5,0.8c-0.5,0.1-1.1,0.2-1.7,0.3
				L921,544.6z"/>
			<path class="st1" d="M1047.2,554.1h50.3c0.2-1.9-1.3-3.1-4.1-4.1c-2.1-0.8-1.8-4-3.9-5.6c-3.1-2.4,0.5-4,1.5-5.9
				c0.7-1.4,1.5-2.7,0-3.8c-3-2.3-2.7-5.5-2.5-8.7c-0.3-2,0.2-4.1-2.3-5.2c-1.1-0.5-1.9-2.9-1.1-3.7c2.7-2.6,1.7-6.3,3.3-9.2
				c-2.3-3.1-2.9-6.8-4-10.4c-1.1-3.9-3.2-7.4-2-11.7c-5.9-4-5-10.7-6.3-16.6l0,0c-1.4,0-2.7-0.1-2.7-2c-0.1-3.5-0.7-6.8-2.9-9.5
				l-1.7-0.1c-4.2,6.4-4.4,14.3-7.6,21.2c-0.4,1.2-1.6,2-2.8,1.9l0,0c-1.5,3.1-3.1,6.2-0.6,9.6c1,1.4-2.3,4.7,1.9,4.7
				c-0.1,1.1,1.4,3-1.6,2.6c-4.4-0.6-6,2-5.3,6.3c2.9,1.8,5.8,3.1,4,7.9c-1,2.5-0.2,5.7-0.2,8.6c0,1.6,0.4,3.4-1.8,3.8l-1.9,1
				c-0.1,1.5,0.5,3.5-1.9,3.9v7.7c2.7,2.8,2.9,8.7-0.1,10.5c-2.8,1.6-4,3.3-3.7,6.5C1047.2,554,1047.2,554.1,1047.2,554.1z"/>
			<path class="st5" d="M1073.4,467.3c-0.1-3.5-0.7-6.8-2.9-9.5c6.7,0.7,13.4-0.8,19.2-4.3c3.2-1.9,5.6-4.8,9-6.6
				c12.7-7,26-12.2,40.5-10.2c12,1.6,23.9,4.4,34.3,11.7c1.2,5.7,6.6,6.5,10.3,9.3c0,0.3,0.1,0.5,0.1,0.8c-0.2,4.2,2.3,5.1,5.6,5
				c0.8,4.5-2.1,9-0.1,13.5c-0.6,0.2-1.3,0.2-1.7,0.6c-1.3,1.4,0.9,4.9-2.2,4.8c-2.6-0.1-2-3.8-3.7-5.3c-0.3-0.3-0.6-0.7-0.9-1.1
				l0.1-2c0.2-0.3,0.4-0.7,0.7-1l-0.6,0.1c-1-0.1-2.1,0-2.8-1c-0.3-2.2-0.7-4.4-1-6.5c-0.1-0.8-0.2-1.7-1.2-1.8
				c-1.3-0.1-1.6,1-1.5,1.9c0.4,2.5-0.4,5.1-2.3,6.9c-2.7,2.3-1.3,4.2-0.6,6.3l-5.6,0.1c-1.7,6-4.9,11.7-2.7,18.3
				c0.3,0.8,0.9,1.7-0.2,2.6c-2.7,2.3-1.6,5.2-0.9,8c0,0.8,0.5,1.5,1.2,1.9c3.2,1.2,2.3,2.4,0.3,4.3c-3.7,3.4-3.8,10.5-0.1,12.4
				c2.7,1.5,6,1.1,9,1.1c1.5-0.1,3.1-0.4,4.6-0.9c2-0.5,4.1-0.7,4.3,2c0.3,2.7-1.3,5.9-3.9,5.3c-2.6-0.6-2.5,0.9-3,2.1
				c-1,2.4-2.8,4.5-5.2,4.4c-4.4-0.2-7.9,2.6-12,3.1l0,0c0.1-1.8-0.6-3.5-1.8-4.8c0-2.1,0-4.1,0-6.2c0-1.6-0.7-2.8-2.2-1.6
				c-2,1.6-3.7,3.8-6.2,0.8c-0.7,0.2-1.3,0.7-1.7,1.2c-1.8,3.9-5,4.2-8.6,3.9c-0.8-2.7-3.4-5.2-5-5.1c-6.9,0.2-5.4-4.4-5.3-8.4
				c0.1-0.6,0-1.3-0.2-1.9c-1.7-3.8,0.7-5.4,3.5-5.4c5.8-0.2,11.3-3.7,17.4-1c1.9,0.8,4.2,0,5.1-2c0-0.1,0-0.1,0.1-0.2
				c0.9-2.4-1.4-2.7-2.9-3.5c-0.7-0.3-1.3-0.9-1.7-1.6c-1.5-4.4-5.8-3.8-8.9-5.3c-3.6-1.8-6.6,0.3-9.2,3.3c-1.2,1.4-3.4,2.1-2.9,4.3
				c0.5,2.2,2.9,2,4.6,2.5c0.6,0.2,1.1,0.2,2,0.4c-6.4,3.4-10.8,3-15.5-1.1c-1.3-1.1-2.9-1.9-4.2-3c-2.8-2.5-7.4-3.5-6.8-8.8l0,0
				c1.5-0.8,2.8-2.7,4.6-1.7c5.2,2.9,10.8,1.6,16.3,2c2.1,0.2,3.2-0.5,3.4-2.7c0.2-2.6-1-3.4-3.3-3.3c-2.6,0.1-5.3-0.5-7.5-1.8
				c1.8-2.1,4,0.7,5.4-0.9c4.3-5,9.9-1.9,14.8-2.4c1.7-0.2,4,0.3,4.1-1.7c0.1-2,0.5-5.7-2.5-6c-3.5-0.3-5.3-2.4-7.2-4.7
				c-3.3-3.8-6.8-7-12.2-5.9c-3.4-6.2-9.3-7.4-15.4-8.4c-0.4-0.1-0.8-0.6-1.2-0.7c-2.8-0.5-5.3-3.8-8.2-1.6
				c-4.5,3.3-10.1,3.7-14.6,6.6c-2.3,1.5-4.4,3-7.2,2.6l0,0C1075.9,468.1,1074.7,467.3,1073.4,467.3z"/>
			<path class="st9" d="M1152.6,554.1c1-0.9,2.4-1.2,3.7-1c1.9,0.3,4-0.4,5.9-1c2.8-1,3.2-2.9,0.8-4.8c-1.7-1.4-3.6-2.5-5.3-3.7l0,0
				c-2.2-1-2-2.9-1.8-4.8c0-2.1,0-4.1,0-6.2c0-1.6-0.7-2.8-2.2-1.6c-2,1.6-3.7,3.8-6.2,0.8c-0.7,0.2-1.3,0.7-1.7,1.2
				c-1.8,3.9-5,4.2-8.6,3.9c-3.7,3.5-7.7,6.5-11.1,10.5c-1.8,2.2-3.5,4.4-5.1,6.8L1152.6,554.1z"/>
			<path class="st11" d="M1162.2,507.9c-0.7-2.8-1.8-5.6,0.9-8c1-0.9,0.4-1.8,0.2-2.6c-2.2-6.6,0.9-12.3,2.7-18.3
				c1.6,3.8,5.2,0.7,7.7,2.4c-2.1,2.5-3.3,5.6-7.4,5.7c-1.7,0-1.4,2-0.5,3c1.6,1.5,1.9,3.8,0.8,5.6c-1.7,2.8-1.5,5.8-1.4,8.8
				C1165,506.6,1164.6,508,1162.2,507.9z"/>
			<path class="st11" d="M1180.8,476c0.3,0.4,0.6,0.7,0.9,1.1c1.7,1.5,1.1,5.2,3.7,5.3c3.1,0.1,0.9-3.4,2.2-4.8
				c0.4-0.4,1.1-0.4,1.7-0.6c0,1-0.1,1.9,0,2.8c0.3,2.6-0.5,5.5-2.6,6c-2.4,0.5-4.8-0.8-5.9-3l0.2-0.3l-0.2,0.3
				c-1.2-0.5-5.6,1.2-1.7-2.7C1180.4,478.9,1177.9,476.4,1180.8,476z"/>
			<path class="st11" d="M1171.6,479c-0.7-2.2-2.1-4,0.6-6.3c1.8-1.8,2.7-4.4,2.3-6.9c-0.2-0.9,0.2-2,1.5-1.9c1,0.1,1.1,1,1.2,1.8
				c0.3,2.2,0.7,4.4,1,6.5c-5.1-0.6-3.4,4.8-5.6,6.7l0,0L1171.6,479L1171.6,479z"/>
			<path class="st11" d="M1180.9,473.2l0.6-0.1c-0.2,0.3-0.4,0.7-0.7,1C1180.9,473.8,1180.9,473.5,1180.9,473.2z"/>
			<path class="st11" d="M1172.5,478.9l0.3,0.2L1172.5,478.9L1172.5,478.9z"/>
			<path class="st13" d="M1183.8,458.5c0-0.3,0-0.5-0.1-0.8c0.5-0.8,1.5-1.2,2.4-0.9c1.4,0.3,2.6,1.3,3,2.6c0.1,0.6,0,1.2-0.4,1.6
				c-1.6,0.9-2.4-0.5-3.4-1.4C1184.8,459.3,1184.2,458.9,1183.8,458.5z"/>
			<path class="st13" d="M1185,443c0.1,0,0.3,0,0.3,0c0,0.1,0.1,0.2,0.1,0.3h-0.5L1185,443z"/>
			<path class="st11" d="M670.5,545.8c3,2.1,6.6,3.8,6.5,8.4h1.1c2.8-0.4,5.4-0.9,3.2-5.5c-0.6-1.3,1.7-1,2.1-2.1
				c-2.5-3.3,2.9-4.9,1.4-8.3c-3.7,5.4-4.9-0.8-7.2-1.8c-1.8-0.8,1-2.1,0.9-3.4c-2.1,0.5-3-2.6-5.3-2c-0.1,0.5,0,1.1-0.3,1.4
				c-2.7,2.9-3.6,5.8-1,9.4C672.9,543,673.9,545.8,670.5,545.8z"/>
			<path class="st5" d="M678.6,533.1c-2.1,0.5-3-2.6-5.3-2c-0.8-3-0.9-6.1-0.2-9.2c0.3-1.2,0-3,1.7-2.9c1.4,0.1,1.2,1.8,1.1,2.8
				C675.8,525.9,676.1,529.8,678.6,533.1z"/>
			<path class="st13" d="M623.6,544.5c-1.4,1.3,0,3.5-1.8,5c-1.5-3.1-4.5-5-4.8-8.7c0-0.6-0.5-1,0-1.7c2.2-2.9,2.2-2.9,1.5-6.1
				c3.8,1.2,6.4-2.5,10-2.2c0,3.5,0,7,0,10.5C628.4,545,624.6,542.5,623.6,544.5z"/>
			<path class="st13" d="M622.9,554.1l0.1-0.9c-4.1,1.2-4.1-2.6-5.4-5.6c-0.1,3.1,0,5.1,0.7,6.5H622.9z"/>
			<path class="st13" d="M600.3,548.3c4.8-0.7,7.8,2.1,6.4,5.8h-4.4l-1.8-1.6c3.1-2.1-0.5-1.8-0.9-2.1
				C596.8,548.5,599.1,548.6,600.3,548.3z"/>
			<path class="st5" d="M600.4,552.4l1.8,1.6c-3.2-0.1-6.3-1.3-8.7-3.5l0.3-0.3C596.4,549.8,598.2,552,600.4,552.4z"/>
			<path class="st5" d="M593.6,550.6l-1-0.6c0.1-0.1,0.2-0.3,0.3-0.3c0.3,0.2,0.7,0.4,1,0.6L593.6,550.6z"/>
			<path class="st11" d="M508.1,529.8c0.1,0.3,0.4,0.6,0.4,0.7c-0.3,0.6-0.7,0.3-1-0.1C507.7,530.2,507.9,530,508.1,529.8z"/>
			<path class="st11" d="M1054.7,524.3l-1.9,1c-3.2,0-1.3,2.6-1.9,3.9l0,0c-3.7,3.6-3.7,6.2,0,7.7l0,0c1,5.3-1,9.1-5.6,11.6h-1
				c-2.5-3.6-5.1-6.2-8.8-1.1c-0.7,0.9-1.9,1.5-2.8,0.5c-1-1-1.8-2.1-1.8-3.1c0-1.5,1.6-1,2.6-1.1c3.1-0.5,2.8-2.9,2.3-4.9
				c-0.7-2.6,1.1-1.5,2-1.9l0.7,0.6c0.1-0.2,0.2-0.3,0.3-0.5l-0.9-0.2c0.1-2.6,2.9-1.3,3.9-2.9c-0.4-1.8-3.9-0.5-3.2-2.9
				c0.4-1.7,2.5-0.5,4-1.4c-2.8-1.1-5.4-2.7-7.6-4.8c7.5-1.4,8.9-4.7,5.6-12.4c1-1.7,4.3,0.7,4.3-2.3c0-2.6-2.7-2-4.4-2.8
				c-0.1-2,1.9-2.3,2.7-3.5c0.6-0.8,1.3-1,0.9-2.6c-1.3-5.1,0.5-7.9,5.6-8.8c2-0.4,2.7-0.6,2.8-3.1c0.1-4,2.4-7,6-8.7
				c-1.5,3.1-3.1,6.2-0.6,9.6c1,1.4-2.3,4.7,1.9,4.7c-0.1,1.1,1.4,3-1.6,2.6c-4.4-0.6-6,2-5.3,6.3c-0.2,3.5,2.8,6.3,1.8,10
				C1053.8,517.4,1054.4,520.9,1054.7,524.3z M1055.6,494.5c-0.2-0.3-0.3-0.7-0.5-1.1c-0.1,0.3-0.4,0.5-0.4,0.8
				c0.1,0.4,0.2,0.8,0.4,1.2L1055.6,494.5z"/>
			<path class="st11" d="M1061.2,478.9c-0.4,1.2-1.6,2-2.8,1.9C1058.6,479,1059.9,478.9,1061.2,478.9z"/>
			<path class="st6" d="M1047.2,554.1c0-0.1,0-0.2,0-0.3c-0.4-3.2,0.9-4.9,3.7-6.5c3.1-1.8,2.9-7.7,0.1-10.5c1,5.3-1,9.1-5.6,11.6
				v5.7H1047.2z"/>
			<path class="st11" d="M1082.5,485.9c-1.3,4.3,0.8,7.7,2,11.7c1.1,3.7,1.7,7.3,4,10.4c2.1-2,4.6-1.3,6.9-1
				c2.6,0.3,4.8-0.5,5.4-3.3c0.6-2.8-1.6-3.2-3.6-4c-2.8-1.2-5.1-4.5-8.7-1.7c-0.5,0.3-1.1,0.1-1.4-0.4c-0.1-0.2-0.2-0.4-0.1-0.7
				c0.4-1.2-0.6-2.9,1.5-3.5c7.4-2.2,12.8,1.1,13.9,8.6c0.4,2.5,1.4,4.7,3.7,5.8c3.8,1.9,6.5,5.4,9.8,7.9c1.4,1.1,2.3,2.6,2.6,4.3
				c1.5,6.1,1.2,6-4.7,6.3c-6,0.3-11.5-4.2-17.2-0.7c-2.8,1.7-5.2,1.5-7.9,0.4c-0.3,3.2-0.6,6.4,2.5,8.7c1.5,1.1,0.8,2.4,0,3.8
				c-1,1.8-4.5,3.5-1.5,5.9c2,1.6,1.8,4.8,3.9,5.6c2.8,1,4.2,2.2,4.1,4.1h23.3c1.6-2.3,3.3-4.6,5.1-6.8c3.3-3.9,7.4-7,11.1-10.5
				c-0.8-2.7-3.4-5.2-5-5.1c-6.9,0.2-5.4-4.4-5.3-8.4c0.1-0.6,0-1.3-0.2-1.9c-1.7-3.8,0.7-5.4,3.5-5.4c5.8-0.2,11.3-3.7,17.4-1
				c1.9,0.8,4.2,0,5.1-2c0-0.1,0-0.1,0.1-0.2c0.9-2.4-1.4-2.7-2.9-3.5c-0.7-0.3-1.3-0.9-1.7-1.6c-1.5-4.4-5.8-3.8-8.9-5.3
				c-3.6-1.8-6.6,0.3-9.2,3.3c-1.2,1.4-3.4,2.1-2.9,4.3c0.5,2.2,2.9,2,4.6,2.5c0.6,0.2,1.1,0.2,2,0.4c-6.4,3.4-10.8,3-15.5-1.1
				c-1.3-1.1-2.9-1.9-4.2-3c-2.7-2.5-7.4-3.5-6.8-8.8c1.5-0.8,2.8-2.7,4.6-1.7c5.2,2.9,10.8,1.6,16.3,2c2.1,0.2,3.2-0.5,3.4-2.7
				c0.2-2.6-1-3.4-3.3-3.3c-2.6,0.1-5.3-0.5-7.5-1.8c1.8-2.1,4,0.7,5.4-0.9c4.3-5,9.9-1.9,14.8-2.4c1.7-0.2,4,0.3,4.1-1.7
				s0.5-5.7-2.5-6c-3.5-0.3-5.3-2.4-7.2-4.7c-3.3-3.8-6.8-7-12.2-5.9c-3.4-6.2-9.3-7.4-15.4-8.4c-0.4-0.1-0.8-0.6-1.2-0.7
				c-2.8-0.5-5.3-3.8-8.2-1.6c-4.5,3.3-10.1,3.7-14.6,6.6c-2.3,1.5-4.4,3-7.2,2.6C1077.5,475.1,1076.6,481.9,1082.5,485.9z
				 M1106.6,490.6c1.3,0.1,2.7,0.3,4,0.6c-5.7,2.2-4.2,5.7-3.5,9.1c-0.2,0.2-0.6,0.6-0.7,0.5c-2.3-2.1-2.9-5.2-3.6-8
				C1102.3,490.6,1104.9,490.5,1106.6,490.6z"/>
			<path class="st5" d="M1088.4,508c2.1-2,4.6-1.3,6.9-1c2.6,0.3,4.8-0.5,5.4-3.3s-1.6-3.2-3.6-4c-2.8-1.2-5.1-4.5-8.7-1.7
				c-0.5,0.3-1.1,0.1-1.4-0.4c-0.1-0.2-0.2-0.4-0.1-0.7c0.4-1.2-0.6-2.9,1.5-3.5c7.4-2.2,12.8,1.1,13.9,8.6c0.4,2.5,1.4,4.7,3.7,5.8
				c3.8,1.9,6.5,5.4,9.8,7.9c1.4,1.1,2.3,2.6,2.6,4.3c1.5,6.1,1.2,6-4.7,6.3s-11.5-4.2-17.2-0.7c-2.8,1.7-5.2,1.5-7.9,0.4
				c-0.3-2,0.2-4.1-2.3-5.2c-1.1-0.5-1.9-2.9-1.1-3.7C1087.8,514.6,1086.8,510.8,1088.4,508z"/>
			<path class="st6" d="M1054.7,524.3c-0.3-3.4-0.9-6.9-0.1-10.3c1-3.7-2-6.5-1.8-10c2.9,1.8,5.8,3.1,4,7.9c-1,2.5-0.2,5.7-0.2,8.6
				C1056.5,522,1056.9,523.9,1054.7,524.3z"/>
			<path class="st6" d="M1050.9,536.9c-3.7-1.5-3.7-4.1,0-7.7V536.9z"/>
			<path class="st6" d="M1050.9,529.1c0.6-1.3-1.3-3.9,1.9-3.9C1052.7,526.8,1053.3,528.8,1050.9,529.1z"/>
			<path class="st11" d="M1073.4,467.3c1.2,0,2.3,0.8,2.7,2C1074.8,469.3,1073.5,469.2,1073.4,467.3z"/>
			<path class="st2" d="M1157.6,543.6c-2.2-1-2-2.9-1.8-4.8C1157,540.1,1157.6,541.8,1157.6,543.6z"/>
			<path class="st2" d="M1180.9,482.8l0.2-0.3L1180.9,482.8L1180.9,482.8z"/>
			<path class="st10" d="M1055.7,494.5l-0.5,0.9c-0.2-0.4-0.3-0.8-0.4-1.2c0-0.2,0.2-0.5,0.4-0.8
				C1055.3,493.8,1055.5,494.2,1055.7,494.5z"/>
			<path class="st10" d="M1037.9,536.9l0.9,0.2c-0.1,0.2-0.2,0.3-0.3,0.5L1037.9,536.9L1037.9,536.9z"/>
			<path class="st5" d="M1107,500.2c-0.3,0.2-0.7,0.6-0.7,0.6c-2.3-2.1-2.9-5.2-3.6-8c-0.5-2.1,2.1-2.2,3.8-2.1
				c1.3,0.1,2.7,0.3,4,0.6C1104.9,493.3,1106.4,496.9,1107,500.2L1107,500.2z"/>
		</g>
	</g>
</g>
</svg>
