<svg xmlns="http://www.w3.org/2000/svg" viewBox="0 0 67.16 60.61"><defs><style>.cls-1{fill:#fff;stroke:#fff;stroke-miterlimit:10;stroke-width:0.75px;}</style></defs><g id="Слой_2" data-name="Слой 2"><g id="шапка"><g id="Слой_8" data-name="Слой 8"><path class="cls-1" d="M.38,15.83c.08-.29.17-.58.26-.86a4.54,4.54,0,0,1,4.48-3.24H23.36c0-.32,0-.59,0-.86,0-2.37,0-4.73,0-7.1A3.18,3.18,0,0,1,26.79.38q6.8,0,13.59,0a3.19,3.19,0,0,1,3.41,3.43c0,2.29,0,4.58,0,6.87v1c.4,0,.72.06,1,.06H61.89a4.55,4.55,0,0,1,4.87,4.88c0,11.78-.05,23.56,0,35.35,0,3.28-2.45,5.36-5.07,5.09a3.91,3.91,0,0,0-.64,0v3.16H59.4V57.05h-.89q-24.9,0-49.8,0c-.74,0-1,.18-1,.93s0,1.48,0,2.28H6.18V57.05h-1A4.5,4.5,0,0,1,.52,53.3a1.23,1.23,0,0,0-.14-.25ZM47.55,13.4H13.91c0,2.3,0,4.56,0,6.81,0,.13.19.36.29.36,1.25,0,2.5,0,3.81,0V16.68h1.66v3.94h3v7.92h-3V55.37H47.5V28.51h-3v-7.9c.86,0,1.66,0,2.45,0,.47,0,.63-.16.63-.63,0-1.36,0-2.72,0-4.09Zm5.79,38.45V29.55c0-1,0-1-1.07-1-.72,0-1.45,0-2.16,0s-1,.17-1,.93q0,12.54,0,25.08v.8a1.25,1.25,0,0,0,.31.1c4.33,0,8.65,0,13,0a2.78,2.78,0,0,0,2.68-2.85V16.26a2.9,2.9,0,0,0-2.89-2.91c-2.21,0-4.42,0-6.63,0-.57,0-.7.2-.7.72,0,1.93,0,3.86,0,5.79,0,.64.24.79.82.76.78,0,1.57,0,2.34,0v7.9H55.94c-1,0-1,0-1,1V51.85ZM9.15,20.61c.83,0,1.6,0,2.37,0,.54,0,.79-.11.78-.72,0-1.95,0-3.91,0-5.86,0-.56-.19-.7-.71-.69-2.09,0-4.17,0-6.26,0A3,3,0,0,0,2.06,16.6V52.18a3,3,0,0,0,3.19,3.25h6.26c.24,0,.48,0,.77-.06V42.86c0-4.5,0-9,0-13.51,0-.69-.21-.9-.88-.85s-1.48,0-2.27,0ZM39.24,6.74h-3.1c-3.44,0-6.89,0-10.34,0-.26,0-.74.24-.74.37,0,1.51,0,3,0,4.54a3.37,3.37,0,0,0,.38.06c5.41,0,10.81,0,16.22,0,.59,0,.59-.32.59-.74,0-2.29,0-4.58,0-6.87C42.21,2.57,41.58,2,40,2H27.34C25.53,2,25,2.49,25,4.31c0,.68.19.87.87.87,4.14,0,8.29,0,12.43,0h.94ZM18,28.51c-1.1,0-2.15,0-3.2,0-.74,0-.89.25-.88.93q0,12.57,0,25.15c0,.27,0,.54,0,.81h4Zm-2.06-6.33c-1.52,0-3,0-4.55,0-.5,0-.67.17-.66.67,0,1.16,0,2.31,0,3.47,0,.46.15.63.62.63q4.62,0,9.24,0c.44,0,.59-.16.58-.59,0-1.18,0-2.36,0-3.54,0-.54-.24-.64-.7-.64C18.94,22.19,17.42,22.18,15.91,22.18Zm30.19,4.7H56.41V22.24H46.1ZM49.16,17c0,1,0,2,0,2.93,0,.47.1.71.63.69,1,0,2,0,2.93,0,.48,0,.62-.2.62-.65,0-2,0-4,0-6,0-.48-.19-.62-.64-.61-1,0-2,0-2.93,0-.49,0-.62.19-.61.64C49.18,15,49.17,16,49.16,17Z"/><path class="cls-1" d="M25.49,51.6l-2.32-6.44,9.45-3.39,2.32,6.44Zm-.24-5.46,1.22,3.39,6.39-2.3-1.22-3.39Z"/><path class="cls-1" d="M37.32,21.27l-3.3,7-7.61-3.57,3.29-7Zm-2.17.78-4.67-2.2-1.91,4.06,4.67,2.19Z"/><path class="cls-1" d="M34.19,35.07a4.22,4.22,0,0,1,4.32-4.27,4.32,4.32,0,0,1,4.31,4.32,4.39,4.39,0,0,1-4.36,4.31A4.3,4.3,0,0,1,34.19,35.07Zm7,0a2.77,2.77,0,0,0-2.73-2.69,2.81,2.81,0,0,0-2.69,2.75,2.71,2.71,0,0,0,5.42-.06Z"/></g></g></g></svg>