<svg xmlns="http://www.w3.org/2000/svg" viewBox="0 0 61.89 61.89"><defs><style>.cls-1{fill:none;stroke:#fff;stroke-linecap:round;stroke-linejoin:round;stroke-width:2px;}</style></defs><g id="Слой_2" data-name="Слой 2"><g id="Слой_9" data-name="Слой 9"><g id="team_group_social_media_social_group_society_" data-name="team, group, social media, social group, society,"><path class="cls-1" d="M26.59,43.2,26,48.32l-9.1,3.18a8.87,8.87,0,0,0-5.52,7.8v1.59"/><path class="cls-1" d="M35.29,43.2l.65,5.12L45,51.5a8.88,8.88,0,0,1,5.53,7.8v1.59"/><path class="cls-1" d="M26.59,43.2c-1.9-1.47-3.28-4.61-3.29-11.08,0-2.12.17-4.36,2.23-6.43a7.33,7.33,0,0,1,5.41-1.89,7.36,7.36,0,0,1,5.42,1.89c2.06,2.07,2.23,4.31,2.23,6.43,0,10.86-3.88,12.33-7.65,12.33"/><polyline class="cls-1" points="25.95 48.32 30.94 52.94 35.94 48.32"/><path class="cls-1" d="M27.7,29.51c2.25,2,7.59,3.2,10.89,1.43"/><path class="cls-1" d="M15.46,46V42.28a5.18,5.18,0,0,0,2.06-4.11v-3.1a5.16,5.16,0,0,0-10.32,0v3.1a5.15,5.15,0,0,0,2.06,4.11V46"/><path class="cls-1" d="M17.52,38.17a5.17,5.17,0,0,1-4.12,5.06"/><path class="cls-1" d="M1,58.82V53.6a6.19,6.19,0,0,1,3.74-5.68l4.52-2,3.1,2.55L15.46,46,20,47.91"/><path class="cls-1" d="M11.33,34.1a7.94,7.94,0,0,0,5,1.82,6.44,6.44,0,0,0,1.16-.13v-.72a5.16,5.16,0,0,0-10.32,0v.77"/><path class="cls-1" d="M52.63,46V42.28a5.18,5.18,0,0,0,2.06-4.11v-3.1a5.16,5.16,0,1,0-10.32,0v3.1a5.15,5.15,0,0,0,2.06,4.11V46"/><path class="cls-1" d="M54.69,38.17a5.17,5.17,0,0,1-4.12,5.06"/><path class="cls-1" d="M60.89,58.82V53.6a6.19,6.19,0,0,0-3.74-5.68l-4.52-2-3.1,2.55L46.43,46l-4.52,1.94"/><path class="cls-1" d="M30.89,1.11a34.12,34.12,0,0,1,16.84,22.6"/><path class="cls-1" d="M52.34,10.4a77.47,77.47,0,0,1-21.4,3A77.17,77.17,0,0,1,9.26,10.31"/><line class="cls-1" x1="30.94" y1="1" x2="30.94" y2="19.59"/><path class="cls-1" d="M1.48,36.32A30.76,30.76,0,0,1,1,30.94a29.95,29.95,0,0,1,59.89,0,29.51,29.51,0,0,1-.47,5.27"/><path class="cls-1" d="M13.78,25.78A34.12,34.12,0,0,1,31,1.1"/><path class="cls-1" d="M30.89,1.11A34.11,34.11,0,0,1,48.11,25.78"/></g></g></g></svg>