<svg xmlns="http://www.w3.org/2000/svg" viewBox="0 0 60.01 66.2"><defs><style>.cls-1{fill:#fff;}</style></defs><g id="Слой_2" data-name="Слой 2"><g id="шапка"><g id="Компас"><path class="cls-1" d="M30,66.2A30,30,0,1,1,60,36.52,30,30,0,0,1,30,66.2Zm27.46-30A27.49,27.49,0,1,0,30,63.74,27.5,27.5,0,0,0,57.48,36.17Z"/><path class="cls-1" d="M31.34,2.35l-.18,2H28.81l-.14-2H26.25c-1.52,0-1.52,0-1.49-1.5,0-.28,0-.55.08-.91H35.06V2.35Z"/><path class="cls-1" d="M28.75,16c-10,.32-18.67,9.06-19,18.94h3.53v2.48H9.73a19.56,19.56,0,0,0,5,12.23,20.69,20.69,0,0,0,11.49,6.65l-.52,2.32A22.68,22.68,0,0,1,7.25,33.76C8.34,21.92,19.33,12.53,31.13,13.4v6H28.75V16Z"/><path class="cls-1" d="M28.8,59V52.89a7.09,7.09,0,0,1,1.67,0,1.15,1.15,0,0,1,.74.76,24.51,24.51,0,0,1,0,2.71c9,.6,19.9-10.31,18.93-18.91H46.79V35h3.52a20,20,0,0,0-5-12.16A20.77,20.77,0,0,0,34,16.19l.6-2.31A22.8,22.8,0,0,1,28.8,59Z"/><path class="cls-1" d="M18.45,47.77l4.4-12.09c.5-1.38,1-2.78,1.54-4.14a1.87,1.87,0,0,1,.92-.94c5.18-1.93,10.38-3.82,15.57-5.71a2.78,2.78,0,0,1,.51-.06c-.1.39-.16.72-.27,1-1.79,4.93-3.57,9.87-5.4,14.79a2.11,2.11,0,0,1-1,1.16C29.39,43.81,24.05,45.74,18.45,47.77Zm4.3-4.43a2.36,2.36,0,0,0,.48,0c3.22-1.16,6.44-2.3,9.63-3.52a1.84,1.84,0,0,0,.86-1c1.12-3,2.19-6,3.27-9a8.31,8.31,0,0,0,.18-.92l-9.39,3.43,4.27,3.94-2,2.32-4-4.36Z"/></g></g></g></svg>