<svg xmlns="http://www.w3.org/2000/svg" xmlns:xlink="http://www.w3.org/1999/xlink" viewBox="0 0 189.85 94.55"><defs><style>.cls-1{fill:url(#Безымянный_градиент_39);}.cls-2{fill:url(#Безымянный_градиент_7);}.cls-3{fill:url(#Безымянный_градиент_7-2);}.cls-4{fill:url(#Безымянный_градиент_7-3);}.cls-5{fill:url(#Безымянный_градиент_7-4);}.cls-6{fill:url(#Безымянный_градиент_7-5);}.cls-7{fill:url(#Безымянный_градиент_41);}.cls-8{fill:url(#Безымянный_градиент_42);}</style><linearGradient id="Безымянный_градиент_39" x1="19.48" y1="-11.81" x2="43.29" y2="93.26" gradientUnits="userSpaceOnUse"><stop offset="0.41" stop-color="#f7ac6b"/><stop offset="1" stop-color="#fe5b4e"/></linearGradient><linearGradient id="Безымянный_градиент_7" x1="42.42" y1="9.18" x2="184.15" y2="187.57" gradientUnits="userSpaceOnUse"><stop offset="0" stop-color="#f7ac6b"/><stop offset="1" stop-color="#fe5b4e"/></linearGradient><linearGradient id="Безымянный_градиент_7-2" x1="60.29" y1="-5.01" x2="202.02" y2="173.38" xlink:href="#Безымянный_градиент_7"/><linearGradient id="Безымянный_градиент_7-3" x1="71.95" y1="-14.28" x2="213.68" y2="164.11" xlink:href="#Безымянный_градиент_7"/><linearGradient id="Безымянный_градиент_7-4" x1="89.32" y1="-28.08" x2="231.05" y2="150.31" xlink:href="#Безымянный_градиент_7"/><linearGradient id="Безымянный_градиент_7-5" x1="106.38" y1="-41.63" x2="248.11" y2="136.75" xlink:href="#Безымянный_градиент_7"/><linearGradient id="Безымянный_градиент_41" x1="-5.64" y1="1.31" x2="59.82" y2="111.61" gradientUnits="userSpaceOnUse"><stop offset="0.33" stop-color="#f7ac6b"/><stop offset="0.45" stop-color="#f7a86a"/><stop offset="0.56" stop-color="#f89d66"/><stop offset="0.66" stop-color="#fa8b5f"/><stop offset="0.76" stop-color="#fc7156"/><stop offset="0.82" stop-color="#fe5b4e"/></linearGradient><linearGradient id="Безымянный_градиент_42" x1="28.56" y1="-18.99" x2="94.03" y2="91.31" gradientUnits="userSpaceOnUse"><stop offset="0.46" stop-color="#f7ac6b"/><stop offset="0.59" stop-color="#f7aa6a"/><stop offset="0.63" stop-color="#f8a368"/><stop offset="0.66" stop-color="#f99864"/><stop offset="0.69" stop-color="#fa875e"/><stop offset="0.71" stop-color="#fc7156"/><stop offset="0.73" stop-color="#fe5b4e"/></linearGradient></defs><g id="Слой_2" data-name="Слой 2"><g id="Слой_10" data-name="Слой 10"><path class="cls-1" d="M8.21,28c0-10.12,9.1-18.36,20.29-18.36S48.79,17.88,48.79,28,39.69,46.35,28.5,46.35,8.21,38.12,8.21,28Zm6.71,0c0,6.77,6.09,12.29,13.58,12.29S42.09,34.77,42.09,28,36,15.71,28.5,15.71,14.92,21.22,14.92,28Z"/><path class="cls-2" d="M61,52.25c0-6.18,7-11.2,15.66-11.2s15.66,5,15.66,11.2-7,11.19-15.66,11.19S61,58.42,61,52.25Zm5.17,0c0,4.13,4.71,7.5,10.49,7.5s10.49-3.37,10.49-7.5-4.71-7.5-10.49-7.5S66.15,48.11,66.15,52.25Z"/><path class="cls-3" d="M95.84,63.45a.06.06,0,0,1-.06-.06V41.11a.06.06,0,0,1,.06-.06h1.59l0,0,2.36,2.4,11.86,12V41.11a.06.06,0,0,1,.06-.06h4a.07.07,0,0,1,.07.06V63.39a.07.07,0,0,1-.07.06h-1.59l0,0L111.72,61,99.86,49V63.39a.06.06,0,0,1-.06.06Z"/><path class="cls-4" d="M122.82,63.45a.06.06,0,0,1-.06-.06V41.11a.06.06,0,0,1,.06-.06h4a.07.07,0,0,1,.07.06V59.75h13.49a.05.05,0,0,1,.06.06v3.58a.06.06,0,0,1-.06.06Z"/><path class="cls-5" d="M140.76,52.25c0-6.18,5.55-11.2,12.38-11.2s12.38,5,12.38,11.2-5.56,11.2-12.38,11.2S140.76,58.42,140.76,52.25Zm4.09,0c0,4.13,3.72,7.5,8.29,7.5s8.29-3.37,8.29-7.5-3.72-7.5-8.29-7.5S144.85,48.11,144.85,52.25Z"/><path class="cls-6" d="M172.33,60.17a10.44,10.44,0,0,1,0-15.84,12.9,12.9,0,0,1,8.73-3.28h0a13,13,0,0,1,8.76,3.28l0,0a.05.05,0,0,1,0,0l-.73.66L187,46.94a.07.07,0,0,1-.09,0,8.94,8.94,0,0,0-11.72,0,7,7,0,0,0,0,10.61,8.94,8.94,0,0,0,11.72,0,.06.06,0,0,1,.09,0l2.81,2.54a.05.05,0,0,1,0,0l0,0a13.34,13.34,0,0,1-17.5,0Z"/><path class="cls-7" d="M.46,70.16q2-5.64,3.89-11.27c.75-2.17,1.53-4.32,2.28-6.49.6-1.74,1.2-3.48,1.77-5.24.37-1.1.36-1.13,1.22-1.13,2.71,0,5.43,0,8.15,0,.49,0,.8.16,1,.81,1,3,2,6,3,8.91.73,2.1,1.48,4.19,2.21,6.29q2.07,6,4.12,12c.13.39.27.77.41,1.15s.29.36.42,0c.82-2.34,1.64-4.67,2.45-7,.62-1.78,1.22-3.58,1.84-5.36.7-2,1.41-4,2.1-6,1-2.84,1.94-5.68,2.9-8.53a1.13,1.13,0,0,1,.62-.76,21.5,21.5,0,0,0,9.3-8.14c.52-.79,1-1.67,1.44-2.5.17-.54.49-1,.68-1.49.06-.19.17-.4.36-.27s.15.38.08.57c-.18.48-.34,1-.48,1.48-.24.74-.45,1.49-.71,2.22-1.39,3.91-2.79,7.82-4.17,11.74s-2.66,7.63-4,11.46S38.81,70.18,37.5,74s-2.62,7.56-3.93,11.34L31,92.77c-.13.39-.23.8-.35,1.19s-.18.59-.44.59H27.32c-.34,0-.6-.51-.73-.89-1.42-4.11-2.86-8.19-4.28-12.29-.83-2.38-1.67-4.76-2.47-7.15q-2.57-7.59-5.22-15.14c-.22-.64-.41-1.3-.66-1.93-.07-.19-.12-.44-.31-.43s-.23.25-.3.44c-.56,1.6-1.13,3.21-1.68,4.82-.66,1.94-1.35,3.86-2,5.79-.43,1.25-.84,2.51-1.29,3.74-.16.44-.25.92-.6.92a4.56,4.56,0,0,1-.64,0c-1.79-.09-4.45-.08-6.24-.13-.37,0-1.13.13-.81-1.15"/><path class="cls-8" d="M49.11,40.7c.64-1.92-3.2,9-3.2,9-.17-.14,2.64-8.79,2.56-8.66-.23.41,1.39-4.53,1.16-4.12a22,22,0,0,0,1.13-3.11,22.75,22.75,0,0,0,1-6,28.55,28.55,0,0,0-.32-5.39,24.69,24.69,0,0,0-1.52-5.05,2,2,0,0,1-.05-1.54q1.86-5.17,3.7-10.37L55.33.28a1.57,1.57,0,0,1,.9-.28h6.44c.87,0,.66,0,.5.7-1.37,3.87-2.78,7.71-4.11,11.61-.75,2.22-1.57,4.4-2.34,6.6-1.49,4.29-5.17,14.93-6.65,19.23"/></g></g></svg>