<svg width="32" height="21" viewBox="0 0 32 21" fill="none" xmlns="http://www.w3.org/2000/svg">
<path d="M0 2L0.231905 2.12479L12.7682 10.2781L13 10.4584L12.2735 10.9437L0.247284 18.8475L0 19V2Z" fill="#27A3F3"/>
<path d="M16.0364 11L0 0.225584L0.685239 0.0100906C0.816043 -0.00336353 0.948087 -0.00336353 1.07889 0.0100906C11.0604 0.0100906 21.0563 0.0100906 31.0669 0.0100906C31.3806 0.0306264 31.6924 0.0711216 32 0.131298V0.252505L16.0364 11Z" fill="#27A3F3"/>
<path d="M31.9417 20.8516C31.6503 20.8516 31.3589 20.9852 31.0675 21H1.03455C0.687291 20.9774 0.341806 20.9328 0 20.8665V20.7478L0.859697 20.095C4.8427 17.1276 8.81598 14.1602 12.7796 11.1929C12.815 11.1542 12.8579 11.1234 12.9055 11.1024C12.9531 11.0813 13.0045 11.0705 13.0564 11.0705C13.1084 11.0705 13.1597 11.0813 13.2074 11.1024C13.255 11.1234 13.2979 11.1542 13.3333 11.1929C13.989 11.6973 14.6593 12.1721 15.3297 12.6766C15.4139 12.765 15.5147 12.8352 15.6261 12.8832C15.7375 12.9312 15.8572 12.9559 15.9781 12.9559C16.0991 12.9559 16.2188 12.9312 16.3302 12.8832C16.4416 12.8352 16.5424 12.765 16.6266 12.6766L18.8852 11L32 20.7626L31.9417 20.8516Z" fill="#27A3F3"/>
<path d="M19 10.4793L32 2V19L19 10.4793Z" fill="#27A3F3"/>
</svg>
