<svg xmlns="http://www.w3.org/2000/svg" viewBox="0 0 54.02 54.02"><defs><style>.cls-1{fill:#fff;}</style></defs><g id="Слой_2" data-name="Слой 2"><g id="Слой_9" data-name="Слой 9"><path class="cls-1" d="M52.86,21.8c-4.8,5.21-13,8.58-22.48,8.58H27V22.3c-4.91-2.63-7.88-6.88-7.88-11.5,0-.34,0-.68.07-1C8.09,12,0,18.88,0,27,0,41.93,18.14,54,40.51,54V42.58C48.58,39.47,54,33.67,54,27A12.53,12.53,0,0,0,52.86,21.8ZM6.75,30.38v-4.5H22.51v4.5Zm9,9h-4.5v-4.5h4.5Zm20.26,0H20.26v-4.5H36Z"/><path class="cls-1" d="M38.26,0c-8.7,0-15.75,4.84-15.75,10.8,0,4,3.17,7.48,7.87,9.35V27C43.44,27,54,19.76,54,10.8,54,4.84,47,0,38.26,0Zm-4.5,13.5A2.25,2.25,0,1,1,36,11.25,2.25,2.25,0,0,1,33.76,13.5Zm9,0A2.25,2.25,0,1,1,45,11.25,2.25,2.25,0,0,1,42.77,13.5Z"/></g></g></svg>