<svg width="51" height="43" viewBox="0 0 51 43" fill="none" xmlns="http://www.w3.org/2000/svg">
<path d="M0 4.02621C0.140803 3.68444 0.277464 3.34267 0.418267 3.00091C0.977337 1.65051 2.01265 0.846108 3.35028 0.362633C4.13712 0.0708802 4.9488 0.0667123 5.76877 0.0625444C15.128 0.0458728 24.4873 0.0292013 33.8506 2.60367e-05C35.4409 -0.00414185 36.8365 0.491837 37.9132 1.66301C38.7166 2.53827 39.1722 3.60525 39.1432 4.84728C39.1142 6.08098 39.1349 7.31467 39.1349 8.63173C39.3337 8.63173 39.5076 8.63173 39.6815 8.63173C41.6486 8.6359 43.6199 8.6609 45.587 8.64006C46.9991 8.62339 48.2995 8.96933 49.3762 9.88626C50.4074 10.7657 50.9955 11.9035 50.9913 13.3081C50.983 16.1756 50.9913 19.039 50.9913 21.9065C50.9913 24.4697 50.9706 27.0288 50.9996 29.5921C51.0162 30.9758 50.5192 32.1303 49.5419 33.0431C48.6059 33.9142 47.4547 34.381 46.1668 34.4018C44.5599 34.4268 42.9573 34.4101 41.3505 34.4101C41.1848 34.4101 41.0192 34.4101 40.808 34.4101C40.7997 34.6144 40.7831 34.7894 40.7831 34.9645C40.7831 37.2193 40.7831 39.4783 40.7831 41.7331C40.7831 41.854 40.7831 41.979 40.7831 42.0999C40.7707 42.475 40.6589 42.7918 40.2737 42.9376C39.8886 43.0835 39.5614 42.9626 39.2798 42.6876C38.7208 42.1374 38.1576 41.5914 37.6109 41.0329C36.6791 40.0826 35.7639 39.1199 34.8363 38.1696C33.801 37.1151 32.7574 36.0731 31.722 35.0145C31.3079 34.5894 30.8648 34.3851 30.227 34.3893C25.9574 34.4101 21.6836 34.3643 17.414 34.3726C16.006 34.3726 14.7015 34.0725 13.6082 33.1681C12.7219 32.4387 12.1215 31.5009 11.9972 30.3131C11.9807 30.1339 11.96 29.9588 11.9351 29.6712C11.3719 30.2172 10.8708 30.6882 10.3946 31.1759C9.4752 32.1136 8.5724 33.0681 7.64476 34.0017C7.49154 34.1559 7.28447 34.2851 7.07741 34.3601C6.48935 34.581 5.98826 34.1767 5.98826 33.4807C5.98412 31.1342 5.98826 28.7835 5.98826 26.437C5.98826 26.2577 5.98826 26.0744 5.98826 25.8201C5.73564 25.8201 5.51616 25.8159 5.29667 25.8201C3.66501 25.8618 2.28183 25.2866 1.16369 24.1029C0.869664 23.7903 0.662601 23.3819 0.467962 22.9859C0.273323 22.6025 0.153227 22.1815 0 21.7773V4.02621ZM39.1349 40.1952V39.5533C39.1349 37.7069 39.1349 35.8647 39.1349 34.0184C39.1349 33.0764 39.3585 32.8513 40.282 32.8513C42.1746 32.8513 44.0713 32.8764 45.9638 32.843C48.0055 32.8013 49.339 31.4926 49.3472 29.3712C49.3721 24.1571 49.3472 18.9431 49.3597 13.7291C49.3597 12.9913 49.1526 12.3203 48.7965 11.6993C48.6391 11.4242 48.374 11.1992 48.1297 10.9824C47.376 10.3156 46.4525 10.2155 45.4959 10.2155C36.6046 10.203 27.7133 10.1822 18.822 10.1655C18.1718 10.1655 17.5175 10.1447 16.8673 10.1738C14.9955 10.2489 13.5958 11.5826 13.5958 13.5623C13.5958 18.8389 13.604 24.1154 13.5875 29.3878C13.5875 30.1339 13.8152 30.7841 14.188 31.3884C14.3495 31.6468 14.6021 31.8594 14.8381 32.0594C15.5918 32.6971 16.4946 32.8013 17.4347 32.8055C21.9942 32.818 26.5537 32.8305 31.1133 32.868C31.4529 32.868 31.8753 32.9555 32.1072 33.1681C33.0597 34.0434 33.9625 34.9728 34.8735 35.8981C35.797 36.8358 36.6957 37.7903 37.6151 38.7281C38.0747 39.199 38.5593 39.645 39.1308 40.1993L39.1349 40.1952ZM37.3583 8.62339C37.3583 7.10211 37.4038 5.65169 37.3334 4.2096C37.3086 3.74279 37.0767 3.21347 36.7785 2.8467C35.9793 1.86307 34.8777 1.55465 33.6312 1.55882C24.2098 1.59633 14.7884 1.60883 5.36707 1.63384C5.20142 1.63384 5.03577 1.64218 4.86598 1.65051C3.20119 1.7172 1.68963 3.06759 1.71034 5.00566C1.76832 10.2947 1.76832 15.5879 1.71034 20.877C1.68963 22.8484 3.20948 24.203 4.94052 24.253C5.49959 24.2697 6.0628 24.253 6.62187 24.2613C7.41285 24.2738 7.71516 24.5781 7.71516 25.3741C7.71516 27.2664 7.71516 29.1544 7.71516 31.0466C7.71516 31.1925 7.72759 31.3384 7.74001 31.5885C8.52271 30.7924 9.23915 30.0672 9.95144 29.3378C10.4774 28.796 10.9619 28.2041 11.5375 27.7207C11.8606 27.4456 11.9558 27.1872 11.9558 26.7954C11.9475 22.4191 11.9475 18.0428 11.9558 13.6665C11.9558 13.3331 11.9724 12.9955 12.0014 12.6621C12.1132 11.4701 12.7219 10.5365 13.604 9.80291C14.6683 8.92348 15.9273 8.58588 17.3146 8.59422C23.7998 8.61923 30.2809 8.61923 36.7661 8.62756C36.9607 8.62756 37.1512 8.62756 37.3666 8.62756L37.3583 8.62339Z" fill="white"/>
<path d="M31.5242 21C34.9573 21 38.3944 21 41.8275 21.0053C42.0845 21.0053 42.3857 21.0213 42.5864 21.1914C42.7872 21.3562 43 21.7337 43 22.0102C43 22.292 42.7751 22.6429 42.5744 22.8237C42.4017 22.9832 42.1287 22.9885 41.8998 22.9939C34.9693 22.9992 28.0429 23.0045 21.1125 22.9939C20.8675 22.9939 20.5824 22.9779 20.3937 22.8184C20.201 22.6536 19.9922 22.292 20.0002 22.0262C20.0083 21.7337 20.209 21.3509 20.4098 21.1914C20.6306 21.0159 20.9438 21.0106 21.2169 21.0106C24.65 21 28.0871 21.0053 31.5202 21.0053L31.5242 21Z" fill="url(#paint0_linear_1905_239)"/>
<path d="M31.5083 26C34.948 26 38.3877 26 41.8273 26.0053C42.0716 26.0053 42.3559 26.0053 42.5441 26.1655C42.7443 26.3363 42.9285 26.6726 42.9845 26.9822C43.0526 27.3559 42.8924 27.7082 42.5721 27.8203C42.3479 27.9004 42.1196 27.9912 41.8914 27.9912C34.968 28.0018 28.0447 28.0018 21.1173 27.9965C20.3805 27.9965 19.9921 27.6335 20.0001 26.9769C20.0081 26.3096 20.3645 26 21.1373 26C24.593 26 28.0487 26 31.5003 26H31.5083Z" fill="url(#paint1_linear_1905_239)"/>
<path d="M36.9377 17.9997C35.3172 17.9997 33.6927 17.9997 32.0722 17.9997C31.9152 17.9997 31.7543 18.0051 31.6013 17.9677C31.2207 17.8822 31.0167 17.5298 31.001 17.0384C30.9853 16.5738 31.1618 16.2053 31.515 16.0825C31.6916 16.0184 31.8838 16.0024 32.0682 16.0024C35.3407 16.0024 38.6132 15.997 41.8856 16.0024C42.125 16.0024 42.4036 16.0184 42.588 16.184C42.7842 16.3602 43 16.718 43 17.0011C43 17.2841 42.7842 17.6419 42.5919 17.8235C42.4232 17.9837 42.1564 17.9891 41.9327 17.9891C40.269 17.9997 38.6014 17.9944 36.9377 17.9944V17.9997Z" fill="url(#paint2_linear_1905_239)"/>
<defs>
<linearGradient id="paint0_linear_1905_239" x1="31.5" y1="21" x2="31.5" y2="23" gradientUnits="userSpaceOnUse">
<stop stop-color="#F8A664"/>
<stop offset="1" stop-color="#FC8055"/>
</linearGradient>
<linearGradient id="paint1_linear_1905_239" x1="31.5" y1="26" x2="31.5" y2="28" gradientUnits="userSpaceOnUse">
<stop stop-color="#F8A664"/>
<stop offset="1" stop-color="#FC8055"/>
</linearGradient>
<linearGradient id="paint2_linear_1905_239" x1="37" y1="16" x2="37" y2="18" gradientUnits="userSpaceOnUse">
<stop stop-color="#F8A664"/>
<stop offset="1" stop-color="#FC8055"/>
</linearGradient>
</defs>
</svg>
