<svg width="20" height="13" viewBox="0 0 20 13" fill="none" xmlns="http://www.w3.org/2000/svg">
<path d="M0 1L0.142711 1.08075L7.85735 6.35645L8 6.47308L7.55294 6.78711L0.152175 11.9013L0 12V1Z" fill="#27A3F3"/>
<path d="M10.0228 7L0 0.143553L0.428275 0.00642129C0.510027 -0.00214043 0.592554 -0.00214043 0.674306 0.00642129C6.91272 0.00642129 13.1602 0.00642129 19.4168 0.00642129C19.6129 0.0194895 19.8077 0.0452592 20 0.0835532V0.160685L10.0228 7Z" fill="#27A3F3"/>
<path d="M19.9636 12.911C19.7814 12.911 19.5993 12.9911 19.4172 13H0.646596C0.429557 12.9865 0.213629 12.9597 0 12.9199V12.8487L0.53731 12.457C3.02669 10.6766 5.50999 8.89615 7.98723 7.11573C8.00938 7.09255 8.03617 7.07406 8.06594 7.06142C8.09571 7.04879 8.12782 7.04227 8.16027 7.04227C8.19272 7.04227 8.22484 7.04879 8.2546 7.06142C8.28437 7.07406 8.31116 7.09255 8.33331 7.11573C8.74315 7.4184 9.16209 7.70327 9.58104 8.00594C9.63367 8.05897 9.69669 8.10112 9.76631 8.12991C9.83593 8.15871 9.91073 8.17354 9.98633 8.17354C10.0619 8.17354 10.1368 8.15871 10.2064 8.12991C10.276 8.10112 10.339 8.05897 10.3916 8.00594L11.8033 7L20 12.8576L19.9636 12.911Z" fill="#27A3F3"/>
<path d="M12 6.48662L20 1V12L12 6.48662Z" fill="#27A3F3"/>
</svg>
