<svg width="22" height="24" viewBox="0 0 22 24" fill="none" xmlns="http://www.w3.org/2000/svg">
<path d="M5.02039 13.6219V14.6424H16.432V17.12H4.99969V24H1.79899C1.79899 23.9392 1.79899 23.8805 1.79899 23.8214L1.80335 17.4704C1.80335 17.44 1.80335 17.4096 1.80335 17.3792C1.7979 17.172 1.73399 17.1212 1.48596 17.123C1.0623 17.1265 0.63864 17.1294 0.214978 17.1319H0.00254197V14.6461H0.189921C0.655828 14.6461 1.1221 14.643 1.588 14.6482C1.74234 14.65 1.80589 14.6062 1.80335 14.4724C1.79572 14.2047 1.80117 13.9364 1.80117 13.6475H0V11.1407H1.78483V0.00821293C1.85745 0.00456274 1.9043 0 1.95114 0C5.9522 0.00162231 9.95266 0.00435995 13.9525 0.00821293C15.2275 0.0109506 16.4672 0.172471 17.6409 0.626312C19.4392 1.32167 20.6698 2.4435 21.3239 4.00517C21.7055 4.91772 21.955 5.85247 21.9949 6.82312C22.0545 8.25977 21.5893 9.56076 20.5881 10.7313C20.0035 11.4154 19.3738 12.0563 18.5222 12.5238C17.5091 13.0802 16.3844 13.3603 15.1955 13.4954C13.7067 13.6648 12.2116 13.6155 10.718 13.6225C8.90234 13.631 7.08665 13.6225 5.27095 13.6225L5.02039 13.6219ZM5.01748 11.1276H5.19905C7.80748 11.1276 10.4159 11.1276 13.024 11.1224C13.5019 11.1227 13.9796 11.1012 14.4547 11.0579C15.4864 10.9612 16.3659 10.6038 17.0417 9.92821C17.8668 9.10357 18.2898 8.14297 18.3853 7.08076C18.4765 6.04958 18.2764 5.05947 17.6616 4.14996C17.179 3.43726 16.5206 2.87757 15.5318 2.69962C14.9927 2.60702 14.4437 2.56085 13.8933 2.56183C10.9882 2.54692 8.0831 2.55209 5.17799 2.55057C5.12606 2.55057 5.07413 2.55787 5.01676 2.56213L5.01748 11.1276Z" fill="#123995" fill-opacity="0.8"/>
</svg>
