<svg width="21" height="27" viewBox="0 0 21 27" fill="none" xmlns="http://www.w3.org/2000/svg">
<path fill-rule="evenodd" clip-rule="evenodd" d="M10.5 0L0 3.00239V12.0484C0 12.0484 0.0301033 22.7632 10.5 25.7247C20.9699 22.7632 21 12.0484 21 12.0484V3.00239L10.5 0ZM10.5 24.0455C10.5 24.0455 2.92153 23.0455 1.46076 13.024V4.13951L10.5 1.57459L19.5392 4.13951V13.024C18.0785 23.0455 10.5 24.0455 10.5 24.0455Z" fill="#FF6983"/>
<path fill-rule="evenodd" clip-rule="evenodd" d="M10.4996 26.7838H10.0993L5.39941 17.4513C5.39941 17.4513 6.78251 18.3778 8.08504 18.6061L10.4996 23.4134L12.9141 18.6061C14.2167 18.3778 15.5998 17.4513 15.5998 17.4513L10.8999 26.7838H10.4996Z" fill="#2B0E05"/>
<path fill-rule="evenodd" clip-rule="evenodd" d="M10.4999 17.2316C7.6831 17.2268 5.40137 15.3193 5.40137 12.9669C5.40137 10.6145 7.6831 8.70711 10.4999 8.70227C13.3167 8.70711 15.5984 10.6145 15.5984 12.9669C15.5984 15.3193 13.3167 17.2268 10.4999 17.2316ZM10.4999 10.1067C8.60609 10.11 7.07207 11.3982 7.07207 12.9867C7.07207 14.5753 8.60609 15.8634 10.4999 15.8668C12.3937 15.8634 13.9277 14.5753 13.9277 12.9867C13.9277 11.3982 12.3937 10.11 10.4999 10.1067Z" fill="#2B0E05"/>
</svg>
