<svg width="140" height="23" viewBox="0 0 140 23" fill="none" xmlns="http://www.w3.org/2000/svg">
<path d="M138.689 16.4412C139.485 16.0609 139.822 15.1073 139.441 14.3113L133.243 1.34038C132.863 0.544414 131.909 0.207488 131.113 0.587831C130.317 0.968174 129.98 1.92176 130.361 2.71772L135.87 14.2475L124.34 19.7568C123.544 20.1372 123.207 21.0908 123.588 21.8867C123.968 22.6827 124.922 23.0196 125.718 22.6393L138.689 16.4412ZM4.49909 15.2467C5.31764 14.9178 5.71454 13.9876 5.3856 13.169C5.05666 12.3505 4.12644 11.9536 3.30789 12.2825L4.49909 15.2467ZM9.38882 10.067C8.55149 10.3447 8.09779 11.2485 8.37545 12.0859C8.65311 12.9232 9.55699 13.3769 10.3943 13.0992L9.38882 10.067ZM16.4058 11.2676C17.2553 11.0298 17.7512 10.1484 17.5134 9.29884C17.2756 8.44932 16.3942 7.95341 15.5447 8.19119L16.4058 11.2676ZM21.7652 6.58726C20.9068 6.79062 20.3758 7.65135 20.5791 8.50976C20.7825 9.36816 21.6432 9.89918 22.5016 9.69582L21.7652 6.58726ZM28.6453 8.35922C29.5105 8.18714 30.0724 7.34625 29.9003 6.48103C29.7283 5.61581 28.8874 5.05391 28.0221 5.22599L28.6453 8.35922ZM34.3285 4.08366C33.4579 4.22628 32.8678 5.04762 33.0104 5.91819C33.153 6.78875 33.9744 7.37886 34.8449 7.23624L34.3285 4.08366ZM41.0979 6.31657C41.9726 6.20231 42.5891 5.40057 42.4748 4.52584C42.3605 3.6511 41.5588 3.03462 40.6841 3.14888L41.0979 6.31657ZM47.0363 2.42059C46.1584 2.50739 45.5171 3.28941 45.6039 4.1673C45.6907 5.04519 46.4727 5.68649 47.3506 5.59969L47.0363 2.42059ZM53.6472 5.07522C54.5274 5.0155 55.1925 4.2536 55.1327 3.37345C55.073 2.49331 54.3111 1.82822 53.431 1.88794L53.6472 5.07522ZM59.8213 1.55173C58.9398 1.58475 58.2519 2.32615 58.2849 3.2077C58.3179 4.08925 59.0593 4.77712 59.9409 4.7441L59.8213 1.55173ZM66.2477 4.60297C67.1298 4.59649 67.8397 3.87612 67.8332 2.99398C67.8268 2.11184 67.1064 1.40197 66.2242 1.40845L66.2477 4.60297ZM72.6388 1.45766C71.7569 1.43766 71.0257 2.1364 71.0057 3.01834C70.9857 3.90028 71.6845 4.63144 72.5664 4.65144L72.6388 1.45766ZM78.8664 4.8886C79.7474 4.93496 80.4991 4.2584 80.5455 3.37745C80.5918 2.4965 79.9153 1.74477 79.0343 1.69841L78.8664 4.8886ZM85.4211 2.13043C84.5419 2.05772 83.7703 2.71149 83.6975 3.59066C83.6248 4.46982 84.2786 5.24146 85.1578 5.31417L85.4211 2.13043ZM91.4384 5.92852C92.315 6.02757 93.1059 5.39726 93.205 4.52067C93.304 3.64408 92.6737 2.85317 91.7971 2.75412L91.4384 5.92852ZM98.155 3.56957C97.2818 3.44418 96.4722 4.05041 96.3468 4.92361C96.2215 5.79682 96.8277 6.60635 97.7009 6.73174L98.155 3.56957ZM103.938 7.72364C104.807 7.87534 105.635 7.29383 105.786 6.4248C105.938 5.55578 105.356 4.72832 104.487 4.57662L103.938 7.72364ZM110.775 5.77235C109.911 5.59446 109.067 6.1507 108.889 7.01475C108.711 7.87879 109.267 8.72344 110.131 8.90133L110.775 5.77235ZM116.287 10.2662C117.145 10.4702 118.007 9.9398 118.211 9.08154C118.415 8.22328 117.884 7.36217 117.026 7.15819L116.287 10.2662ZM123.233 8.73331C122.381 8.50338 121.505 9.0074 121.275 9.85908C121.045 10.7107 121.549 11.5876 122.4 11.8175L123.233 8.73331ZM128.465 13.5539C129.309 13.8096 130.201 13.3324 130.456 12.4881C130.712 11.6438 130.235 10.7521 129.391 10.4964L128.465 13.5539ZM135.492 12.4458C134.656 12.1646 133.75 12.6145 133.469 13.4506C133.188 14.2868 133.638 15.1926 134.474 15.4738L135.492 12.4458ZM1.65781 16.4556C2.53331 16.0599 3.48119 15.6558 4.49909 15.2467L3.30789 12.2825C2.25151 12.707 1.26196 13.1288 0.34219 13.5444L1.65781 16.4556ZM10.3943 13.0992C12.2582 12.4812 14.2649 11.8668 16.4058 11.2676L15.5447 8.19119C13.3572 8.80346 11.3023 9.43247 9.38882 10.067L10.3943 13.0992ZM22.5016 9.69582C24.4653 9.23061 26.5149 8.78294 28.6453 8.35922L28.0221 5.22599C25.854 5.6572 23.7667 6.1131 21.7652 6.58726L22.5016 9.69582ZM34.8449 7.23624C36.8703 6.90445 38.9557 6.59639 41.0979 6.31657L40.6841 3.14888C38.5074 3.43321 36.3877 3.74631 34.3285 4.08366L34.8449 7.23624ZM47.3506 5.59969C49.4058 5.3965 51.5056 5.22053 53.6472 5.07522L53.431 1.88794C51.2562 2.03549 49.1238 2.2142 47.0363 2.42059L47.3506 5.59969ZM59.9409 4.7441C62.0098 4.66662 64.1127 4.61865 66.2477 4.60297L66.2242 1.40845C64.0568 1.42437 61.9218 1.47307 59.8213 1.55173L59.9409 4.7441ZM72.5664 4.65144C74.6404 4.69847 76.741 4.77674 78.8664 4.8886L79.0343 1.69841C76.8767 1.58486 74.7442 1.5054 72.6388 1.45766L72.5664 4.65144ZM85.1578 5.31417C87.2309 5.4856 89.3249 5.68971 91.4384 5.92852L91.7971 2.75412C89.6515 2.51167 87.5256 2.30447 85.4211 2.13043L85.1578 5.31417ZM97.7009 6.73174C99.764 7.02798 101.843 7.35802 103.938 7.72364L104.487 4.57662C102.361 4.20541 100.249 3.87033 98.155 3.56957L97.7009 6.73174ZM110.131 8.90133C112.171 9.32127 114.223 9.7757 116.287 10.2662L117.026 7.15819C114.93 6.66014 112.846 6.19873 110.775 5.77235L110.131 8.90133ZM122.4 11.8175C124.413 12.3607 126.435 12.9391 128.465 13.5539L129.391 10.4964C127.329 9.87213 125.276 9.28491 123.233 8.73331L122.4 11.8175ZM134.474 15.4738C135.47 15.8088 136.468 16.1529 137.468 16.5061L138.532 13.4939C137.517 13.1353 136.504 12.786 135.492 12.4458L134.474 15.4738Z" fill="url(#paint0_linear_351_1301)"/>
<defs>
<linearGradient id="paint0_linear_351_1301" x1="69.5" y1="3" x2="69.5" y2="15" gradientUnits="userSpaceOnUse">
<stop stop-color="#FF8F36"/>
<stop offset="1" stop-color="#EF3C27"/>
</linearGradient>
</defs>
</svg>
