<svg width="59" height="60" viewBox="0 0 59 60" fill="none" xmlns="http://www.w3.org/2000/svg">
<path fill-rule="evenodd" clip-rule="evenodd" d="M29.525 5.36442e-07C45.7556 0.00293839 58.9855 13.2228 59 29.452C59.0153 45.8104 45.8024 59.0323 29.442 59.0314C13.1372 59.0307 -0.0209045 45.7574 2.49333e-05 29.3322C0.0210133 13.1872 13.2976 -0.00317705 29.525 5.36442e-07ZM51.0065 42.0252C56.1791 33.8575 56.2073 20.2061 46.3401 11.0781C36.7502 2.2072 21.7281 2.36039 12.198 11.5312C2.73146 20.641 2.91688 34.0577 7.99601 42.0212C14.1184 36.5437 21.2904 34.0123 29.4976 34.024C37.6984 34.0356 44.872 36.5746 51.0065 42.0252ZM48.3476 45.855C38.5933 35.8053 19.474 36.3691 10.6759 45.8539C20.2423 57.1353 38.2127 57.5665 48.3476 45.855ZM40.8458 20.4657C40.8539 26.6561 35.7611 31.7719 29.5774 31.7855C23.2825 31.799 18.155 26.7207 18.1559 20.4745C18.1575 14.1467 23.2325 9.08055 29.5677 9.08277C35.7756 9.08504 40.8377 14.1943 40.8458 20.4657ZM29.4589 27.2414C33.1811 27.263 36.2697 24.2423 36.3052 20.5452C36.3423 16.7415 33.3223 13.6517 29.5395 13.624C25.7955 13.5964 22.7061 16.6503 22.6932 20.3926C22.6803 24.1561 25.7068 27.2197 29.4589 27.2414Z" fill="#FF0000"/>
<path fill-rule="evenodd" clip-rule="evenodd" d="M29.525 5.36442e-07C45.7556 0.00293839 58.9855 13.2228 59 29.452C59.0153 45.8104 45.8024 59.0323 29.442 59.0314C13.1372 59.0307 -0.0209045 45.7574 2.49333e-05 29.3322C0.0210133 13.1872 13.2976 -0.00317705 29.525 5.36442e-07ZM51.0065 42.0252C56.1791 33.8575 56.2073 20.2061 46.3401 11.0781C36.7502 2.2072 21.7281 2.36039 12.198 11.5312C2.73146 20.641 2.91688 34.0577 7.99601 42.0212C14.1184 36.5437 21.2904 34.0123 29.4976 34.024C37.6984 34.0356 44.872 36.5746 51.0065 42.0252ZM48.3476 45.855C38.5933 35.8053 19.474 36.3691 10.6759 45.8539C20.2423 57.1353 38.2127 57.5665 48.3476 45.855ZM40.8458 20.4657C40.8539 26.6561 35.7611 31.7719 29.5774 31.7855C23.2825 31.799 18.155 26.7207 18.1559 20.4745C18.1575 14.1467 23.2325 9.08055 29.5677 9.08277C35.7756 9.08504 40.8377 14.1943 40.8458 20.4657ZM29.4589 27.2414C33.1811 27.263 36.2697 24.2423 36.3052 20.5452C36.3423 16.7415 33.3223 13.6517 29.5395 13.624C25.7955 13.5964 22.7061 16.6503 22.6932 20.3926C22.6803 24.1561 25.7068 27.2197 29.4589 27.2414Z" fill="#123995"/>
</svg>
