<svg width="91" height="43" viewBox="0 0 91 43" fill="none" xmlns="http://www.w3.org/2000/svg">
<path d="M0.460506 10.0002L31.5395 10.0002C31.7953 10.0002 32 10.4527 32 11.0183L32 12.059C32 12.6247 31.7953 13.0771 31.5395 13.0771L0.460506 13.0772C0.20467 13.0772 7.71565e-07 12.6247 7.34522e-07 12.0591L6.66362e-07 11.0183C6.29319e-07 10.4527 0.214903 10.0002 0.460506 10.0002Z" fill="#033043"/>
<path d="M0.460506 19.8468L31.5395 19.8468C31.7953 19.8468 32 20.3897 32 21.0685L32 22.3173C32 22.9961 31.7953 23.5391 31.5395 23.5391L0.460506 23.5391C0.20467 23.5391 7.65638e-07 22.9961 7.21186e-07 22.3173L6.39395e-07 21.0685C5.94943e-07 20.3897 0.214903 19.8468 0.460506 19.8468Z" fill="#033043"/>
<path d="M0.460506 30.3078L31.5395 30.3078C31.7953 30.3078 32 30.7603 32 31.3259L32 32.3667C32 32.9323 31.7953 33.3848 31.5395 33.3848L0.460506 33.3848C0.20467 33.3848 7.71565e-07 32.9323 7.34522e-07 32.3667L6.66362e-07 31.3259C6.29319e-07 30.7603 0.214903 30.3078 0.460506 30.3078Z" fill="#033043"/>
<path fill-rule="evenodd" clip-rule="evenodd" d="M51.5562 33.3412C49.309 29.9446 48 25.874 48 21.5C48 9.63381 57.6338 0 69.5 0C81.3662 0 91 9.63381 91 21.5C91 25.874 89.691 29.9446 87.4438 33.3412C86.9009 34.1618 86.3032 34.9431 85.656 35.6798C81.7143 40.1664 75.9355 43 69.5 43C63.0645 43 57.2857 40.1664 53.344 35.6798C52.6968 34.9431 52.0991 34.1618 51.5562 33.3412ZM55.8617 33.1606C59.1543 37.0073 64.0445 39.4468 69.5 39.4468C74.9555 39.4468 79.8457 37.0073 83.1383 33.1606C79.4459 30.0326 74.6888 28.1486 69.5 28.1486C64.3112 28.1486 59.5541 30.0326 55.8617 33.1606ZM84.8693 30.7664C86.5051 28.0608 87.4468 24.8895 87.4468 21.5C87.4468 11.5949 79.4051 3.55322 69.5 3.55322C59.5949 3.55322 51.5532 11.5949 51.5532 21.5C51.5532 24.8895 52.4949 28.0608 54.1307 30.7664C58.197 27.3128 63.5886 25.2081 69.5 25.2081C75.4114 25.2081 80.803 27.3128 84.8693 30.7664ZM69.5 7.03779C73.9872 7.03779 77.6303 10.6808 77.6303 15.168C77.6303 19.6553 73.9872 23.2983 69.5 23.2983C65.0128 23.2983 61.3697 19.6553 61.3697 15.168C61.3697 10.6808 65.0128 7.03779 69.5 7.03779ZM69.5 10.1092C66.708 10.1092 64.4412 12.376 64.4412 15.168C64.4412 17.9601 66.708 20.2269 69.5 20.2269C72.292 20.2269 74.5588 17.9601 74.5588 15.168C74.5588 12.376 72.292 10.1092 69.5 10.1092Z" fill="#033043"/>
</svg>
