<svg width="51" height="50" viewBox="0 0 51 50" fill="none" xmlns="http://www.w3.org/2000/svg">
<path d="M25.1319 49.3265C38.6148 49.3265 49.5448 38.3964 49.5448 24.9134C49.5448 11.4304 38.6148 0.500244 25.1319 0.500244C11.6489 0.500244 0.71875 11.4304 0.71875 24.9134C0.71875 38.3964 11.6489 49.3265 25.1319 49.3265Z" fill="white" stroke="#F0F1F2" stroke-width="1.00531" stroke-miterlimit="1.5" stroke-linecap="round" stroke-linejoin="round"/>
<path fill-rule="evenodd" clip-rule="evenodd" d="M25.139 14.1487C28.2173 14.1487 30.7175 16.6484 30.7175 19.7272C30.7175 22.8059 28.2173 25.3056 25.139 25.3056C22.059 25.3056 19.5605 22.8059 19.5605 19.7272C19.5605 16.6484 22.059 14.1487 25.139 14.1487ZM25.139 17.4006C23.9021 17.4006 22.8988 18.4431 22.8988 19.7272C22.8988 21.0112 23.9021 22.0537 25.139 22.0537C26.3742 22.0537 27.3792 21.0112 27.3792 19.7272C27.3792 18.4431 26.3742 17.4006 25.139 17.4006Z" fill="#F99400"/>
<path fill-rule="evenodd" clip-rule="evenodd" d="M25.1335 26.799C25.1353 26.799 25.137 26.799 25.1388 26.799C25.2442 26.7977 27.5265 26.7584 29.143 25.5691C29.143 25.5691 30.4572 24.984 31.0757 26.0962C31.0757 26.0962 31.8962 27.3241 30.9 28.2046C30.9 28.2046 29.4171 29.3779 27.386 29.7859L30.712 33.1242C30.712 33.1242 31.5237 34.272 30.3729 35.2326C30.3729 35.2326 29.3503 36.1019 28.4402 35.4083L25.1353 32.0719L21.8321 35.4083C20.922 36.1019 19.8994 35.2326 19.8994 35.2326C18.7468 34.272 19.5603 33.1242 19.5603 33.1242L22.8863 29.7859C20.8552 29.3779 19.3723 28.2046 19.3723 28.2046C18.3761 27.3241 19.1966 26.0962 19.1966 26.0962C19.8151 24.984 21.1293 25.5691 21.1293 25.5691C22.7457 26.7584 25.0263 26.7977 25.1335 26.799Z" fill="#F99400"/>
</svg>
