<svg width="51" height="50" viewBox="0 0 51 50" fill="none" xmlns="http://www.w3.org/2000/svg">
<path d="M25.8486 49.3265C39.3316 49.3265 50.2616 38.3964 50.2616 24.9134C50.2616 11.4304 39.3316 0.500244 25.8486 0.500244C12.3657 0.500244 1.43555 11.4304 1.43555 24.9134C1.43555 38.3964 12.3657 49.3265 25.8486 49.3265Z" fill="white" stroke="#F0F1F2" stroke-width="1.00531" stroke-miterlimit="1.5" stroke-linecap="round" stroke-linejoin="round"/>
<path fill-rule="evenodd" clip-rule="evenodd" d="M19.8449 26.7534L13.9179 24.8906C13.9179 24.8906 12.5471 24.3678 13.1559 23.7052C13.1559 23.7052 13.2753 23.4584 14.2566 23.0279L36.9485 14.222C36.9485 14.222 37.8536 13.9421 38.3879 14.476C38.3879 14.476 38.8722 14.9129 38.6419 16.0001L34.6624 34.7972C34.6624 34.7972 34.2788 36.1849 32.8843 35.4746L26.9573 31.0716C26.9573 31.0716 26.7499 30.9408 26.5339 31.1563L23.8194 33.8707C23.8194 33.8707 23.3833 34.2892 22.7237 34.2892L23.1471 28.2775L34.1544 18.3709C34.1544 18.3709 34.3694 17.5687 33.5617 18.0322L19.8449 26.7534Z" fill="#039BE5"/>
</svg>
