<svg width="50" height="50" viewBox="0 0 50 50" fill="none" xmlns="http://www.w3.org/2000/svg">
<path d="M24.9053 49.3265C38.3882 49.3265 49.3182 38.3964 49.3182 24.9134C49.3182 11.4304 38.3882 0.500244 24.9053 0.500244C11.4224 0.500244 0.492188 11.4304 0.492188 24.9134C0.492188 38.3964 11.4224 49.3265 24.9053 49.3265Z" fill="white" stroke="#F0F1F2" stroke-width="1.00531" stroke-miterlimit="1.5" stroke-linecap="round" stroke-linejoin="round"/>
<path fill-rule="evenodd" clip-rule="evenodd" d="M13.5 17.7173H17.4637C17.4637 17.7173 17.2023 26.5627 22.713 27.5731V17.8244H26.3554V23.3951C26.3554 23.3951 30.1627 22.6626 31.7118 17.7173H35.4612C35.4612 17.7173 34.857 22.1449 30.5334 24.8949C30.5334 24.8949 35.1099 27.1082 36.3183 32.0724H32.2474C32.2474 32.0724 30.708 27.549 26.3554 26.9303V32.0724C26.3554 32.0724 13.9167 33.5333 13.5 17.7173Z" fill="#0077FF"/>
</svg>
