<svg width="51" height="50" viewBox="0 0 51 50" fill="none" xmlns="http://www.w3.org/2000/svg">
<path d="M25.1885 49.3265C38.6714 49.3265 49.6014 38.3964 49.6014 24.9134C49.6014 11.4304 38.6714 0.500244 25.1885 0.500244C11.7056 0.500244 0.775391 11.4304 0.775391 24.9134C0.775391 38.3964 11.7056 49.3265 25.1885 49.3265Z" fill="white" stroke="#F0F1F2" stroke-width="1.00531" stroke-miterlimit="1.5" stroke-linecap="round" stroke-linejoin="round"/>
<path fill-rule="evenodd" clip-rule="evenodd" d="M16.2144 31.2657C14.9415 29.4709 14.1934 27.2786 14.1934 24.9128C14.1934 18.8418 19.1224 13.9128 25.1933 13.9128C31.2643 13.9128 36.1933 18.8418 36.1933 24.9128C36.1933 30.9839 31.2643 35.9128 25.1933 35.9128C23.156 35.9128 21.247 35.3576 19.6095 34.3904L14.4502 35.9128L16.2144 31.2657ZM20.6684 33.5114C22.02 34.2248 23.56 34.6288 25.1933 34.6288C30.5555 34.6288 34.9093 30.2752 34.9093 24.9128C34.9093 19.5505 30.5555 15.1969 25.1933 15.1969C19.8312 15.1969 15.4774 19.5505 15.4774 24.9128C15.4774 26.9235 16.0895 28.7923 17.1372 30.343C17.311 30.5999 17.4968 30.848 17.6928 31.0867L16.5902 33.8584L19.7576 33.0023L19.8029 32.9958C20.082 33.182 20.3705 33.3542 20.6684 33.5114Z" fill="#3BBC28"/>
<path fill-rule="evenodd" clip-rule="evenodd" d="M23.2679 23.6716C23.2679 23.6716 23.13 23.5314 23.3535 23.3292C23.5769 23.127 24.2095 22.4731 24.2095 22.4731C24.2095 22.4731 24.7548 21.8371 24.2095 21.2747L22.155 19.2202C22.155 19.2202 21.6029 18.7449 21.0422 19.3058C21.0422 19.3058 19.4063 20.286 19.9293 23.0723C19.9293 23.0723 21.3307 28.4549 27.7192 30.691C27.7192 30.691 29.5066 31.1726 30.3729 30.6054C30.3729 30.6054 31.5037 29.9985 31.6569 29.3214C31.6569 29.3214 31.8941 28.9377 31.2289 28.3797L29.6025 26.7533C29.6025 26.7533 28.9048 26.0417 28.3184 26.6677C28.3184 26.6677 27.6276 27.2929 27.3768 27.6093C27.3768 27.6093 24.8318 26.707 23.2679 23.6716Z" fill="#3BBC28"/>
</svg>
